<?xml version="1.0" encoding="utf-8" standalone="no"?>
<!DOCTYPE svg PUBLIC "-//W3C//DTD SVG 1.1//EN"
  "http://www.w3.org/Graphics/SVG/1.1/DTD/svg11.dtd">
<svg xmlns:xlink="http://www.w3.org/1999/xlink" width="781.545216pt" height="439.415302pt" viewBox="0 0 781.545216 439.415302" xmlns="http://www.w3.org/2000/svg" version="1.1">
 <metadata>
  <rdf:RDF xmlns:dc="http://purl.org/dc/elements/1.1/" xmlns:cc="http://creativecommons.org/ns#" xmlns:rdf="http://www.w3.org/1999/02/22-rdf-syntax-ns#">
   <cc:Work>
    <dc:type rdf:resource="http://purl.org/dc/dcmitype/StillImage"/>
    <dc:date>2026-04-24T14:43:53.417622</dc:date>
    <dc:format>image/svg+xml</dc:format>
    <dc:creator>
     <cc:Agent>
      <dc:title>Matplotlib v3.10.8, https://matplotlib.org/</dc:title>
     </cc:Agent>
    </dc:creator>
   </cc:Work>
  </rdf:RDF>
 </metadata>
 <defs>
  <style type="text/css">*{stroke-linejoin: round; stroke-linecap: butt}</style>
 </defs>
 <g id="figure_1">
  <g id="patch_1">
   <path d="M -0 439.415302 
L 781.545216 439.415302 
L 781.545216 0 
L -0 0 
z
" style="fill: #ffffff"/>
  </g>
  <g id="axes_1">
   <g id="patch_2">
    <path d="M 108.671671 256.622676 
L 774.345216 256.622676 
L 774.345216 35.837812 
L 108.671671 35.837812 
z
" style="fill: #ffffff"/>
   </g>
   <g id="matplotlib.axis_1">
    <g id="xtick_1">
     <g id="line2d_1">
      <defs>
       <path id="m49227ddef5" d="M 0 0 
L 0 3.5 
" style="stroke: #000000; stroke-width: 0.8"/>
      </defs>
      <g>
       <use xlink:href="#m49227ddef5" x="155.285175" y="256.622676" style="stroke: #000000; stroke-width: 0.8"/>
      </g>
     </g>
     <g id="text_1">
      <!-- ccom_29|ccom_29|ccom_29|ccom_32|ccom_29 -->
      <g transform="translate(11.793266 410.29071) rotate(-45) scale(0.085 -0.085)">
       <defs>
        <path id="DejaVuSans-63" d="M 3122 3366 
L 3122 2828 
Q 2878 2963 2633 3030 
Q 2388 3097 2138 3097 
Q 1578 3097 1268 2742 
Q 959 2388 959 1747 
Q 959 1106 1268 751 
Q 1578 397 2138 397 
Q 2388 397 2633 464 
Q 2878 531 3122 666 
L 3122 134 
Q 2881 22 2623 -34 
Q 2366 -91 2075 -91 
Q 1284 -91 818 406 
Q 353 903 353 1747 
Q 353 2603 823 3093 
Q 1294 3584 2113 3584 
Q 2378 3584 2631 3529 
Q 2884 3475 3122 3366 
z
" transform="scale(0.015625)"/>
        <path id="DejaVuSans-6f" d="M 1959 3097 
Q 1497 3097 1228 2736 
Q 959 2375 959 1747 
Q 959 1119 1226 758 
Q 1494 397 1959 397 
Q 2419 397 2687 759 
Q 2956 1122 2956 1747 
Q 2956 2369 2687 2733 
Q 2419 3097 1959 3097 
z
M 1959 3584 
Q 2709 3584 3137 3096 
Q 3566 2609 3566 1747 
Q 3566 888 3137 398 
Q 2709 -91 1959 -91 
Q 1206 -91 779 398 
Q 353 888 353 1747 
Q 353 2609 779 3096 
Q 1206 3584 1959 3584 
z
" transform="scale(0.015625)"/>
        <path id="DejaVuSans-6d" d="M 3328 2828 
Q 3544 3216 3844 3400 
Q 4144 3584 4550 3584 
Q 5097 3584 5394 3201 
Q 5691 2819 5691 2113 
L 5691 0 
L 5113 0 
L 5113 2094 
Q 5113 2597 4934 2840 
Q 4756 3084 4391 3084 
Q 3944 3084 3684 2787 
Q 3425 2491 3425 1978 
L 3425 0 
L 2847 0 
L 2847 2094 
Q 2847 2600 2669 2842 
Q 2491 3084 2119 3084 
Q 1678 3084 1418 2786 
Q 1159 2488 1159 1978 
L 1159 0 
L 581 0 
L 581 3500 
L 1159 3500 
L 1159 2956 
Q 1356 3278 1631 3431 
Q 1906 3584 2284 3584 
Q 2666 3584 2933 3390 
Q 3200 3197 3328 2828 
z
" transform="scale(0.015625)"/>
        <path id="DejaVuSans-5f" d="M 3263 -1063 
L 3263 -1509 
L -63 -1509 
L -63 -1063 
L 3263 -1063 
z
" transform="scale(0.015625)"/>
        <path id="DejaVuSans-32" d="M 1228 531 
L 3431 531 
L 3431 0 
L 469 0 
L 469 531 
Q 828 903 1448 1529 
Q 2069 2156 2228 2338 
Q 2531 2678 2651 2914 
Q 2772 3150 2772 3378 
Q 2772 3750 2511 3984 
Q 2250 4219 1831 4219 
Q 1534 4219 1204 4116 
Q 875 4013 500 3803 
L 500 4441 
Q 881 4594 1212 4672 
Q 1544 4750 1819 4750 
Q 2544 4750 2975 4387 
Q 3406 4025 3406 3419 
Q 3406 3131 3298 2873 
Q 3191 2616 2906 2266 
Q 2828 2175 2409 1742 
Q 1991 1309 1228 531 
z
" transform="scale(0.015625)"/>
        <path id="DejaVuSans-39" d="M 703 97 
L 703 672 
Q 941 559 1184 500 
Q 1428 441 1663 441 
Q 2288 441 2617 861 
Q 2947 1281 2994 2138 
Q 2813 1869 2534 1725 
Q 2256 1581 1919 1581 
Q 1219 1581 811 2004 
Q 403 2428 403 3163 
Q 403 3881 828 4315 
Q 1253 4750 1959 4750 
Q 2769 4750 3195 4129 
Q 3622 3509 3622 2328 
Q 3622 1225 3098 567 
Q 2575 -91 1691 -91 
Q 1453 -91 1209 -44 
Q 966 3 703 97 
z
M 1959 2075 
Q 2384 2075 2632 2365 
Q 2881 2656 2881 3163 
Q 2881 3666 2632 3958 
Q 2384 4250 1959 4250 
Q 1534 4250 1286 3958 
Q 1038 3666 1038 3163 
Q 1038 2656 1286 2365 
Q 1534 2075 1959 2075 
z
" transform="scale(0.015625)"/>
        <path id="DejaVuSans-7c" d="M 1344 4891 
L 1344 -1509 
L 813 -1509 
L 813 4891 
L 1344 4891 
z
" transform="scale(0.015625)"/>
        <path id="DejaVuSans-33" d="M 2597 2516 
Q 3050 2419 3304 2112 
Q 3559 1806 3559 1356 
Q 3559 666 3084 287 
Q 2609 -91 1734 -91 
Q 1441 -91 1130 -33 
Q 819 25 488 141 
L 488 750 
Q 750 597 1062 519 
Q 1375 441 1716 441 
Q 2309 441 2620 675 
Q 2931 909 2931 1356 
Q 2931 1769 2642 2001 
Q 2353 2234 1838 2234 
L 1294 2234 
L 1294 2753 
L 1863 2753 
Q 2328 2753 2575 2939 
Q 2822 3125 2822 3475 
Q 2822 3834 2567 4026 
Q 2313 4219 1838 4219 
Q 1578 4219 1281 4162 
Q 984 4106 628 3988 
L 628 4550 
Q 988 4650 1302 4700 
Q 1616 4750 1894 4750 
Q 2613 4750 3031 4423 
Q 3450 4097 3450 3541 
Q 3450 3153 3228 2886 
Q 3006 2619 2597 2516 
z
" transform="scale(0.015625)"/>
       </defs>
       <use xlink:href="#DejaVuSans-63"/>
       <use xlink:href="#DejaVuSans-63" transform="translate(54.980469 0)"/>
       <use xlink:href="#DejaVuSans-6f" transform="translate(109.960938 0)"/>
       <use xlink:href="#DejaVuSans-6d" transform="translate(171.142578 0)"/>
       <use xlink:href="#DejaVuSans-5f" transform="translate(268.554688 0)"/>
       <use xlink:href="#DejaVuSans-32" transform="translate(318.554688 0)"/>
       <use xlink:href="#DejaVuSans-39" transform="translate(382.177734 0)"/>
       <use xlink:href="#DejaVuSans-7c" transform="translate(445.800781 0)"/>
       <use xlink:href="#DejaVuSans-63" transform="translate(479.492188 0)"/>
       <use xlink:href="#DejaVuSans-63" transform="translate(534.472656 0)"/>
       <use xlink:href="#DejaVuSans-6f" transform="translate(589.453125 0)"/>
       <use xlink:href="#DejaVuSans-6d" transform="translate(650.634766 0)"/>
       <use xlink:href="#DejaVuSans-5f" transform="translate(748.046875 0)"/>
       <use xlink:href="#DejaVuSans-32" transform="translate(798.046875 0)"/>
       <use xlink:href="#DejaVuSans-39" transform="translate(861.669922 0)"/>
       <use xlink:href="#DejaVuSans-7c" transform="translate(925.292969 0)"/>
       <use xlink:href="#DejaVuSans-63" transform="translate(958.984375 0)"/>
       <use xlink:href="#DejaVuSans-63" transform="translate(1013.964844 0)"/>
       <use xlink:href="#DejaVuSans-6f" transform="translate(1068.945312 0)"/>
       <use xlink:href="#DejaVuSans-6d" transform="translate(1130.126953 0)"/>
       <use xlink:href="#DejaVuSans-5f" transform="translate(1227.539062 0)"/>
       <use xlink:href="#DejaVuSans-32" transform="translate(1277.539062 0)"/>
       <use xlink:href="#DejaVuSans-39" transform="translate(1341.162109 0)"/>
       <use xlink:href="#DejaVuSans-7c" transform="translate(1404.785156 0)"/>
       <use xlink:href="#DejaVuSans-63" transform="translate(1438.476562 0)"/>
       <use xlink:href="#DejaVuSans-63" transform="translate(1493.457031 0)"/>
       <use xlink:href="#DejaVuSans-6f" transform="translate(1548.4375 0)"/>
       <use xlink:href="#DejaVuSans-6d" transform="translate(1609.619141 0)"/>
       <use xlink:href="#DejaVuSans-5f" transform="translate(1707.03125 0)"/>
       <use xlink:href="#DejaVuSans-33" transform="translate(1757.03125 0)"/>
       <use xlink:href="#DejaVuSans-32" transform="translate(1820.654297 0)"/>
       <use xlink:href="#DejaVuSans-7c" transform="translate(1884.277344 0)"/>
       <use xlink:href="#DejaVuSans-63" transform="translate(1917.96875 0)"/>
       <use xlink:href="#DejaVuSans-63" transform="translate(1972.949219 0)"/>
       <use xlink:href="#DejaVuSans-6f" transform="translate(2027.929688 0)"/>
       <use xlink:href="#DejaVuSans-6d" transform="translate(2089.111328 0)"/>
       <use xlink:href="#DejaVuSans-5f" transform="translate(2186.523438 0)"/>
       <use xlink:href="#DejaVuSans-32" transform="translate(2236.523438 0)"/>
       <use xlink:href="#DejaVuSans-39" transform="translate(2300.146484 0)"/>
      </g>
     </g>
    </g>
    <g id="xtick_2">
     <g id="line2d_2">
      <g>
       <use xlink:href="#m49227ddef5" x="196.174213" y="256.622676" style="stroke: #000000; stroke-width: 0.8"/>
      </g>
     </g>
     <g id="text_2">
      <!-- ccom_08|ccom_50|ccom_50|ccom_42|ccom_50 -->
      <g transform="translate(52.682305 410.29071) rotate(-45) scale(0.085 -0.085)">
       <defs>
        <path id="DejaVuSans-30" d="M 2034 4250 
Q 1547 4250 1301 3770 
Q 1056 3291 1056 2328 
Q 1056 1369 1301 889 
Q 1547 409 2034 409 
Q 2525 409 2770 889 
Q 3016 1369 3016 2328 
Q 3016 3291 2770 3770 
Q 2525 4250 2034 4250 
z
M 2034 4750 
Q 2819 4750 3233 4129 
Q 3647 3509 3647 2328 
Q 3647 1150 3233 529 
Q 2819 -91 2034 -91 
Q 1250 -91 836 529 
Q 422 1150 422 2328 
Q 422 3509 836 4129 
Q 1250 4750 2034 4750 
z
" transform="scale(0.015625)"/>
        <path id="DejaVuSans-38" d="M 2034 2216 
Q 1584 2216 1326 1975 
Q 1069 1734 1069 1313 
Q 1069 891 1326 650 
Q 1584 409 2034 409 
Q 2484 409 2743 651 
Q 3003 894 3003 1313 
Q 3003 1734 2745 1975 
Q 2488 2216 2034 2216 
z
M 1403 2484 
Q 997 2584 770 2862 
Q 544 3141 544 3541 
Q 544 4100 942 4425 
Q 1341 4750 2034 4750 
Q 2731 4750 3128 4425 
Q 3525 4100 3525 3541 
Q 3525 3141 3298 2862 
Q 3072 2584 2669 2484 
Q 3125 2378 3379 2068 
Q 3634 1759 3634 1313 
Q 3634 634 3220 271 
Q 2806 -91 2034 -91 
Q 1263 -91 848 271 
Q 434 634 434 1313 
Q 434 1759 690 2068 
Q 947 2378 1403 2484 
z
M 1172 3481 
Q 1172 3119 1398 2916 
Q 1625 2713 2034 2713 
Q 2441 2713 2670 2916 
Q 2900 3119 2900 3481 
Q 2900 3844 2670 4047 
Q 2441 4250 2034 4250 
Q 1625 4250 1398 4047 
Q 1172 3844 1172 3481 
z
" transform="scale(0.015625)"/>
        <path id="DejaVuSans-35" d="M 691 4666 
L 3169 4666 
L 3169 4134 
L 1269 4134 
L 1269 2991 
Q 1406 3038 1543 3061 
Q 1681 3084 1819 3084 
Q 2600 3084 3056 2656 
Q 3513 2228 3513 1497 
Q 3513 744 3044 326 
Q 2575 -91 1722 -91 
Q 1428 -91 1123 -41 
Q 819 9 494 109 
L 494 744 
Q 775 591 1075 516 
Q 1375 441 1709 441 
Q 2250 441 2565 725 
Q 2881 1009 2881 1497 
Q 2881 1984 2565 2268 
Q 2250 2553 1709 2553 
Q 1456 2553 1204 2497 
Q 953 2441 691 2322 
L 691 4666 
z
" transform="scale(0.015625)"/>
        <path id="DejaVuSans-34" d="M 2419 4116 
L 825 1625 
L 2419 1625 
L 2419 4116 
z
M 2253 4666 
L 3047 4666 
L 3047 1625 
L 3713 1625 
L 3713 1100 
L 3047 1100 
L 3047 0 
L 2419 0 
L 2419 1100 
L 313 1100 
L 313 1709 
L 2253 4666 
z
" transform="scale(0.015625)"/>
       </defs>
       <use xlink:href="#DejaVuSans-63"/>
       <use xlink:href="#DejaVuSans-63" transform="translate(54.980469 0)"/>
       <use xlink:href="#DejaVuSans-6f" transform="translate(109.960938 0)"/>
       <use xlink:href="#DejaVuSans-6d" transform="translate(171.142578 0)"/>
       <use xlink:href="#DejaVuSans-5f" transform="translate(268.554688 0)"/>
       <use xlink:href="#DejaVuSans-30" transform="translate(318.554688 0)"/>
       <use xlink:href="#DejaVuSans-38" transform="translate(382.177734 0)"/>
       <use xlink:href="#DejaVuSans-7c" transform="translate(445.800781 0)"/>
       <use xlink:href="#DejaVuSans-63" transform="translate(479.492188 0)"/>
       <use xlink:href="#DejaVuSans-63" transform="translate(534.472656 0)"/>
       <use xlink:href="#DejaVuSans-6f" transform="translate(589.453125 0)"/>
       <use xlink:href="#DejaVuSans-6d" transform="translate(650.634766 0)"/>
       <use xlink:href="#DejaVuSans-5f" transform="translate(748.046875 0)"/>
       <use xlink:href="#DejaVuSans-35" transform="translate(798.046875 0)"/>
       <use xlink:href="#DejaVuSans-30" transform="translate(861.669922 0)"/>
       <use xlink:href="#DejaVuSans-7c" transform="translate(925.292969 0)"/>
       <use xlink:href="#DejaVuSans-63" transform="translate(958.984375 0)"/>
       <use xlink:href="#DejaVuSans-63" transform="translate(1013.964844 0)"/>
       <use xlink:href="#DejaVuSans-6f" transform="translate(1068.945312 0)"/>
       <use xlink:href="#DejaVuSans-6d" transform="translate(1130.126953 0)"/>
       <use xlink:href="#DejaVuSans-5f" transform="translate(1227.539062 0)"/>
       <use xlink:href="#DejaVuSans-35" transform="translate(1277.539062 0)"/>
       <use xlink:href="#DejaVuSans-30" transform="translate(1341.162109 0)"/>
       <use xlink:href="#DejaVuSans-7c" transform="translate(1404.785156 0)"/>
       <use xlink:href="#DejaVuSans-63" transform="translate(1438.476562 0)"/>
       <use xlink:href="#DejaVuSans-63" transform="translate(1493.457031 0)"/>
       <use xlink:href="#DejaVuSans-6f" transform="translate(1548.4375 0)"/>
       <use xlink:href="#DejaVuSans-6d" transform="translate(1609.619141 0)"/>
       <use xlink:href="#DejaVuSans-5f" transform="translate(1707.03125 0)"/>
       <use xlink:href="#DejaVuSans-34" transform="translate(1757.03125 0)"/>
       <use xlink:href="#DejaVuSans-32" transform="translate(1820.654297 0)"/>
       <use xlink:href="#DejaVuSans-7c" transform="translate(1884.277344 0)"/>
       <use xlink:href="#DejaVuSans-63" transform="translate(1917.96875 0)"/>
       <use xlink:href="#DejaVuSans-63" transform="translate(1972.949219 0)"/>
       <use xlink:href="#DejaVuSans-6f" transform="translate(2027.929688 0)"/>
       <use xlink:href="#DejaVuSans-6d" transform="translate(2089.111328 0)"/>
       <use xlink:href="#DejaVuSans-5f" transform="translate(2186.523438 0)"/>
       <use xlink:href="#DejaVuSans-35" transform="translate(2236.523438 0)"/>
       <use xlink:href="#DejaVuSans-30" transform="translate(2300.146484 0)"/>
      </g>
     </g>
    </g>
    <g id="xtick_3">
     <g id="line2d_3">
      <g>
       <use xlink:href="#m49227ddef5" x="237.063252" y="256.622676" style="stroke: #000000; stroke-width: 0.8"/>
      </g>
     </g>
     <g id="text_3">
      <!-- ccom_13|ccom_16|ccom_08|ccom_50|ccom_08 -->
      <g transform="translate(93.571343 410.29071) rotate(-45) scale(0.085 -0.085)">
       <defs>
        <path id="DejaVuSans-31" d="M 794 531 
L 1825 531 
L 1825 4091 
L 703 3866 
L 703 4441 
L 1819 4666 
L 2450 4666 
L 2450 531 
L 3481 531 
L 3481 0 
L 794 0 
L 794 531 
z
" transform="scale(0.015625)"/>
        <path id="DejaVuSans-36" d="M 2113 2584 
Q 1688 2584 1439 2293 
Q 1191 2003 1191 1497 
Q 1191 994 1439 701 
Q 1688 409 2113 409 
Q 2538 409 2786 701 
Q 3034 994 3034 1497 
Q 3034 2003 2786 2293 
Q 2538 2584 2113 2584 
z
M 3366 4563 
L 3366 3988 
Q 3128 4100 2886 4159 
Q 2644 4219 2406 4219 
Q 1781 4219 1451 3797 
Q 1122 3375 1075 2522 
Q 1259 2794 1537 2939 
Q 1816 3084 2150 3084 
Q 2853 3084 3261 2657 
Q 3669 2231 3669 1497 
Q 3669 778 3244 343 
Q 2819 -91 2113 -91 
Q 1303 -91 875 529 
Q 447 1150 447 2328 
Q 447 3434 972 4092 
Q 1497 4750 2381 4750 
Q 2619 4750 2861 4703 
Q 3103 4656 3366 4563 
z
" transform="scale(0.015625)"/>
       </defs>
       <use xlink:href="#DejaVuSans-63"/>
       <use xlink:href="#DejaVuSans-63" transform="translate(54.980469 0)"/>
       <use xlink:href="#DejaVuSans-6f" transform="translate(109.960938 0)"/>
       <use xlink:href="#DejaVuSans-6d" transform="translate(171.142578 0)"/>
       <use xlink:href="#DejaVuSans-5f" transform="translate(268.554688 0)"/>
       <use xlink:href="#DejaVuSans-31" transform="translate(318.554688 0)"/>
       <use xlink:href="#DejaVuSans-33" transform="translate(382.177734 0)"/>
       <use xlink:href="#DejaVuSans-7c" transform="translate(445.800781 0)"/>
       <use xlink:href="#DejaVuSans-63" transform="translate(479.492188 0)"/>
       <use xlink:href="#DejaVuSans-63" transform="translate(534.472656 0)"/>
       <use xlink:href="#DejaVuSans-6f" transform="translate(589.453125 0)"/>
       <use xlink:href="#DejaVuSans-6d" transform="translate(650.634766 0)"/>
       <use xlink:href="#DejaVuSans-5f" transform="translate(748.046875 0)"/>
       <use xlink:href="#DejaVuSans-31" transform="translate(798.046875 0)"/>
       <use xlink:href="#DejaVuSans-36" transform="translate(861.669922 0)"/>
       <use xlink:href="#DejaVuSans-7c" transform="translate(925.292969 0)"/>
       <use xlink:href="#DejaVuSans-63" transform="translate(958.984375 0)"/>
       <use xlink:href="#DejaVuSans-63" transform="translate(1013.964844 0)"/>
       <use xlink:href="#DejaVuSans-6f" transform="translate(1068.945312 0)"/>
       <use xlink:href="#DejaVuSans-6d" transform="translate(1130.126953 0)"/>
       <use xlink:href="#DejaVuSans-5f" transform="translate(1227.539062 0)"/>
       <use xlink:href="#DejaVuSans-30" transform="translate(1277.539062 0)"/>
       <use xlink:href="#DejaVuSans-38" transform="translate(1341.162109 0)"/>
       <use xlink:href="#DejaVuSans-7c" transform="translate(1404.785156 0)"/>
       <use xlink:href="#DejaVuSans-63" transform="translate(1438.476562 0)"/>
       <use xlink:href="#DejaVuSans-63" transform="translate(1493.457031 0)"/>
       <use xlink:href="#DejaVuSans-6f" transform="translate(1548.4375 0)"/>
       <use xlink:href="#DejaVuSans-6d" transform="translate(1609.619141 0)"/>
       <use xlink:href="#DejaVuSans-5f" transform="translate(1707.03125 0)"/>
       <use xlink:href="#DejaVuSans-35" transform="translate(1757.03125 0)"/>
       <use xlink:href="#DejaVuSans-30" transform="translate(1820.654297 0)"/>
       <use xlink:href="#DejaVuSans-7c" transform="translate(1884.277344 0)"/>
       <use xlink:href="#DejaVuSans-63" transform="translate(1917.96875 0)"/>
       <use xlink:href="#DejaVuSans-63" transform="translate(1972.949219 0)"/>
       <use xlink:href="#DejaVuSans-6f" transform="translate(2027.929688 0)"/>
       <use xlink:href="#DejaVuSans-6d" transform="translate(2089.111328 0)"/>
       <use xlink:href="#DejaVuSans-5f" transform="translate(2186.523438 0)"/>
       <use xlink:href="#DejaVuSans-30" transform="translate(2236.523438 0)"/>
       <use xlink:href="#DejaVuSans-38" transform="translate(2300.146484 0)"/>
      </g>
     </g>
    </g>
    <g id="xtick_4">
     <g id="line2d_4">
      <g>
       <use xlink:href="#m49227ddef5" x="277.95229" y="256.622676" style="stroke: #000000; stroke-width: 0.8"/>
      </g>
     </g>
     <g id="text_4">
      <!-- ccom_13|ccom_45|ccom_41|ccom_50|ccom_14 -->
      <g transform="translate(134.460381 410.29071) rotate(-45) scale(0.085 -0.085)">
       <use xlink:href="#DejaVuSans-63"/>
       <use xlink:href="#DejaVuSans-63" transform="translate(54.980469 0)"/>
       <use xlink:href="#DejaVuSans-6f" transform="translate(109.960938 0)"/>
       <use xlink:href="#DejaVuSans-6d" transform="translate(171.142578 0)"/>
       <use xlink:href="#DejaVuSans-5f" transform="translate(268.554688 0)"/>
       <use xlink:href="#DejaVuSans-31" transform="translate(318.554688 0)"/>
       <use xlink:href="#DejaVuSans-33" transform="translate(382.177734 0)"/>
       <use xlink:href="#DejaVuSans-7c" transform="translate(445.800781 0)"/>
       <use xlink:href="#DejaVuSans-63" transform="translate(479.492188 0)"/>
       <use xlink:href="#DejaVuSans-63" transform="translate(534.472656 0)"/>
       <use xlink:href="#DejaVuSans-6f" transform="translate(589.453125 0)"/>
       <use xlink:href="#DejaVuSans-6d" transform="translate(650.634766 0)"/>
       <use xlink:href="#DejaVuSans-5f" transform="translate(748.046875 0)"/>
       <use xlink:href="#DejaVuSans-34" transform="translate(798.046875 0)"/>
       <use xlink:href="#DejaVuSans-35" transform="translate(861.669922 0)"/>
       <use xlink:href="#DejaVuSans-7c" transform="translate(925.292969 0)"/>
       <use xlink:href="#DejaVuSans-63" transform="translate(958.984375 0)"/>
       <use xlink:href="#DejaVuSans-63" transform="translate(1013.964844 0)"/>
       <use xlink:href="#DejaVuSans-6f" transform="translate(1068.945312 0)"/>
       <use xlink:href="#DejaVuSans-6d" transform="translate(1130.126953 0)"/>
       <use xlink:href="#DejaVuSans-5f" transform="translate(1227.539062 0)"/>
       <use xlink:href="#DejaVuSans-34" transform="translate(1277.539062 0)"/>
       <use xlink:href="#DejaVuSans-31" transform="translate(1341.162109 0)"/>
       <use xlink:href="#DejaVuSans-7c" transform="translate(1404.785156 0)"/>
       <use xlink:href="#DejaVuSans-63" transform="translate(1438.476562 0)"/>
       <use xlink:href="#DejaVuSans-63" transform="translate(1493.457031 0)"/>
       <use xlink:href="#DejaVuSans-6f" transform="translate(1548.4375 0)"/>
       <use xlink:href="#DejaVuSans-6d" transform="translate(1609.619141 0)"/>
       <use xlink:href="#DejaVuSans-5f" transform="translate(1707.03125 0)"/>
       <use xlink:href="#DejaVuSans-35" transform="translate(1757.03125 0)"/>
       <use xlink:href="#DejaVuSans-30" transform="translate(1820.654297 0)"/>
       <use xlink:href="#DejaVuSans-7c" transform="translate(1884.277344 0)"/>
       <use xlink:href="#DejaVuSans-63" transform="translate(1917.96875 0)"/>
       <use xlink:href="#DejaVuSans-63" transform="translate(1972.949219 0)"/>
       <use xlink:href="#DejaVuSans-6f" transform="translate(2027.929688 0)"/>
       <use xlink:href="#DejaVuSans-6d" transform="translate(2089.111328 0)"/>
       <use xlink:href="#DejaVuSans-5f" transform="translate(2186.523438 0)"/>
       <use xlink:href="#DejaVuSans-31" transform="translate(2236.523438 0)"/>
       <use xlink:href="#DejaVuSans-34" transform="translate(2300.146484 0)"/>
      </g>
     </g>
    </g>
    <g id="xtick_5">
     <g id="line2d_5">
      <g>
       <use xlink:href="#m49227ddef5" x="318.841328" y="256.622676" style="stroke: #000000; stroke-width: 0.8"/>
      </g>
     </g>
     <g id="text_5">
      <!-- ccom_13|ccom_16|ccom_08|ccom_16|ccom_08 -->
      <g transform="translate(175.34942 410.29071) rotate(-45) scale(0.085 -0.085)">
       <use xlink:href="#DejaVuSans-63"/>
       <use xlink:href="#DejaVuSans-63" transform="translate(54.980469 0)"/>
       <use xlink:href="#DejaVuSans-6f" transform="translate(109.960938 0)"/>
       <use xlink:href="#DejaVuSans-6d" transform="translate(171.142578 0)"/>
       <use xlink:href="#DejaVuSans-5f" transform="translate(268.554688 0)"/>
       <use xlink:href="#DejaVuSans-31" transform="translate(318.554688 0)"/>
       <use xlink:href="#DejaVuSans-33" transform="translate(382.177734 0)"/>
       <use xlink:href="#DejaVuSans-7c" transform="translate(445.800781 0)"/>
       <use xlink:href="#DejaVuSans-63" transform="translate(479.492188 0)"/>
       <use xlink:href="#DejaVuSans-63" transform="translate(534.472656 0)"/>
       <use xlink:href="#DejaVuSans-6f" transform="translate(589.453125 0)"/>
       <use xlink:href="#DejaVuSans-6d" transform="translate(650.634766 0)"/>
       <use xlink:href="#DejaVuSans-5f" transform="translate(748.046875 0)"/>
       <use xlink:href="#DejaVuSans-31" transform="translate(798.046875 0)"/>
       <use xlink:href="#DejaVuSans-36" transform="translate(861.669922 0)"/>
       <use xlink:href="#DejaVuSans-7c" transform="translate(925.292969 0)"/>
       <use xlink:href="#DejaVuSans-63" transform="translate(958.984375 0)"/>
       <use xlink:href="#DejaVuSans-63" transform="translate(1013.964844 0)"/>
       <use xlink:href="#DejaVuSans-6f" transform="translate(1068.945312 0)"/>
       <use xlink:href="#DejaVuSans-6d" transform="translate(1130.126953 0)"/>
       <use xlink:href="#DejaVuSans-5f" transform="translate(1227.539062 0)"/>
       <use xlink:href="#DejaVuSans-30" transform="translate(1277.539062 0)"/>
       <use xlink:href="#DejaVuSans-38" transform="translate(1341.162109 0)"/>
       <use xlink:href="#DejaVuSans-7c" transform="translate(1404.785156 0)"/>
       <use xlink:href="#DejaVuSans-63" transform="translate(1438.476562 0)"/>
       <use xlink:href="#DejaVuSans-63" transform="translate(1493.457031 0)"/>
       <use xlink:href="#DejaVuSans-6f" transform="translate(1548.4375 0)"/>
       <use xlink:href="#DejaVuSans-6d" transform="translate(1609.619141 0)"/>
       <use xlink:href="#DejaVuSans-5f" transform="translate(1707.03125 0)"/>
       <use xlink:href="#DejaVuSans-31" transform="translate(1757.03125 0)"/>
       <use xlink:href="#DejaVuSans-36" transform="translate(1820.654297 0)"/>
       <use xlink:href="#DejaVuSans-7c" transform="translate(1884.277344 0)"/>
       <use xlink:href="#DejaVuSans-63" transform="translate(1917.96875 0)"/>
       <use xlink:href="#DejaVuSans-63" transform="translate(1972.949219 0)"/>
       <use xlink:href="#DejaVuSans-6f" transform="translate(2027.929688 0)"/>
       <use xlink:href="#DejaVuSans-6d" transform="translate(2089.111328 0)"/>
       <use xlink:href="#DejaVuSans-5f" transform="translate(2186.523438 0)"/>
       <use xlink:href="#DejaVuSans-30" transform="translate(2236.523438 0)"/>
       <use xlink:href="#DejaVuSans-38" transform="translate(2300.146484 0)"/>
      </g>
     </g>
    </g>
    <g id="xtick_6">
     <g id="line2d_6">
      <g>
       <use xlink:href="#m49227ddef5" x="359.730367" y="256.622676" style="stroke: #000000; stroke-width: 0.8"/>
      </g>
     </g>
     <g id="text_6">
      <!-- ccom_50|ccom_29|ccom_42|ccom_43|ccom_29 -->
      <g transform="translate(216.238458 410.29071) rotate(-45) scale(0.085 -0.085)">
       <use xlink:href="#DejaVuSans-63"/>
       <use xlink:href="#DejaVuSans-63" transform="translate(54.980469 0)"/>
       <use xlink:href="#DejaVuSans-6f" transform="translate(109.960938 0)"/>
       <use xlink:href="#DejaVuSans-6d" transform="translate(171.142578 0)"/>
       <use xlink:href="#DejaVuSans-5f" transform="translate(268.554688 0)"/>
       <use xlink:href="#DejaVuSans-35" transform="translate(318.554688 0)"/>
       <use xlink:href="#DejaVuSans-30" transform="translate(382.177734 0)"/>
       <use xlink:href="#DejaVuSans-7c" transform="translate(445.800781 0)"/>
       <use xlink:href="#DejaVuSans-63" transform="translate(479.492188 0)"/>
       <use xlink:href="#DejaVuSans-63" transform="translate(534.472656 0)"/>
       <use xlink:href="#DejaVuSans-6f" transform="translate(589.453125 0)"/>
       <use xlink:href="#DejaVuSans-6d" transform="translate(650.634766 0)"/>
       <use xlink:href="#DejaVuSans-5f" transform="translate(748.046875 0)"/>
       <use xlink:href="#DejaVuSans-32" transform="translate(798.046875 0)"/>
       <use xlink:href="#DejaVuSans-39" transform="translate(861.669922 0)"/>
       <use xlink:href="#DejaVuSans-7c" transform="translate(925.292969 0)"/>
       <use xlink:href="#DejaVuSans-63" transform="translate(958.984375 0)"/>
       <use xlink:href="#DejaVuSans-63" transform="translate(1013.964844 0)"/>
       <use xlink:href="#DejaVuSans-6f" transform="translate(1068.945312 0)"/>
       <use xlink:href="#DejaVuSans-6d" transform="translate(1130.126953 0)"/>
       <use xlink:href="#DejaVuSans-5f" transform="translate(1227.539062 0)"/>
       <use xlink:href="#DejaVuSans-34" transform="translate(1277.539062 0)"/>
       <use xlink:href="#DejaVuSans-32" transform="translate(1341.162109 0)"/>
       <use xlink:href="#DejaVuSans-7c" transform="translate(1404.785156 0)"/>
       <use xlink:href="#DejaVuSans-63" transform="translate(1438.476562 0)"/>
       <use xlink:href="#DejaVuSans-63" transform="translate(1493.457031 0)"/>
       <use xlink:href="#DejaVuSans-6f" transform="translate(1548.4375 0)"/>
       <use xlink:href="#DejaVuSans-6d" transform="translate(1609.619141 0)"/>
       <use xlink:href="#DejaVuSans-5f" transform="translate(1707.03125 0)"/>
       <use xlink:href="#DejaVuSans-34" transform="translate(1757.03125 0)"/>
       <use xlink:href="#DejaVuSans-33" transform="translate(1820.654297 0)"/>
       <use xlink:href="#DejaVuSans-7c" transform="translate(1884.277344 0)"/>
       <use xlink:href="#DejaVuSans-63" transform="translate(1917.96875 0)"/>
       <use xlink:href="#DejaVuSans-63" transform="translate(1972.949219 0)"/>
       <use xlink:href="#DejaVuSans-6f" transform="translate(2027.929688 0)"/>
       <use xlink:href="#DejaVuSans-6d" transform="translate(2089.111328 0)"/>
       <use xlink:href="#DejaVuSans-5f" transform="translate(2186.523438 0)"/>
       <use xlink:href="#DejaVuSans-32" transform="translate(2236.523438 0)"/>
       <use xlink:href="#DejaVuSans-39" transform="translate(2300.146484 0)"/>
      </g>
     </g>
    </g>
    <g id="xtick_7">
     <g id="line2d_7">
      <g>
       <use xlink:href="#m49227ddef5" x="400.619405" y="256.622676" style="stroke: #000000; stroke-width: 0.8"/>
      </g>
     </g>
     <g id="text_7">
      <!-- ccom_50|ccom_08|ccom_08|ccom_50|ccom_32 -->
      <g transform="translate(257.127497 410.29071) rotate(-45) scale(0.085 -0.085)">
       <use xlink:href="#DejaVuSans-63"/>
       <use xlink:href="#DejaVuSans-63" transform="translate(54.980469 0)"/>
       <use xlink:href="#DejaVuSans-6f" transform="translate(109.960938 0)"/>
       <use xlink:href="#DejaVuSans-6d" transform="translate(171.142578 0)"/>
       <use xlink:href="#DejaVuSans-5f" transform="translate(268.554688 0)"/>
       <use xlink:href="#DejaVuSans-35" transform="translate(318.554688 0)"/>
       <use xlink:href="#DejaVuSans-30" transform="translate(382.177734 0)"/>
       <use xlink:href="#DejaVuSans-7c" transform="translate(445.800781 0)"/>
       <use xlink:href="#DejaVuSans-63" transform="translate(479.492188 0)"/>
       <use xlink:href="#DejaVuSans-63" transform="translate(534.472656 0)"/>
       <use xlink:href="#DejaVuSans-6f" transform="translate(589.453125 0)"/>
       <use xlink:href="#DejaVuSans-6d" transform="translate(650.634766 0)"/>
       <use xlink:href="#DejaVuSans-5f" transform="translate(748.046875 0)"/>
       <use xlink:href="#DejaVuSans-30" transform="translate(798.046875 0)"/>
       <use xlink:href="#DejaVuSans-38" transform="translate(861.669922 0)"/>
       <use xlink:href="#DejaVuSans-7c" transform="translate(925.292969 0)"/>
       <use xlink:href="#DejaVuSans-63" transform="translate(958.984375 0)"/>
       <use xlink:href="#DejaVuSans-63" transform="translate(1013.964844 0)"/>
       <use xlink:href="#DejaVuSans-6f" transform="translate(1068.945312 0)"/>
       <use xlink:href="#DejaVuSans-6d" transform="translate(1130.126953 0)"/>
       <use xlink:href="#DejaVuSans-5f" transform="translate(1227.539062 0)"/>
       <use xlink:href="#DejaVuSans-30" transform="translate(1277.539062 0)"/>
       <use xlink:href="#DejaVuSans-38" transform="translate(1341.162109 0)"/>
       <use xlink:href="#DejaVuSans-7c" transform="translate(1404.785156 0)"/>
       <use xlink:href="#DejaVuSans-63" transform="translate(1438.476562 0)"/>
       <use xlink:href="#DejaVuSans-63" transform="translate(1493.457031 0)"/>
       <use xlink:href="#DejaVuSans-6f" transform="translate(1548.4375 0)"/>
       <use xlink:href="#DejaVuSans-6d" transform="translate(1609.619141 0)"/>
       <use xlink:href="#DejaVuSans-5f" transform="translate(1707.03125 0)"/>
       <use xlink:href="#DejaVuSans-35" transform="translate(1757.03125 0)"/>
       <use xlink:href="#DejaVuSans-30" transform="translate(1820.654297 0)"/>
       <use xlink:href="#DejaVuSans-7c" transform="translate(1884.277344 0)"/>
       <use xlink:href="#DejaVuSans-63" transform="translate(1917.96875 0)"/>
       <use xlink:href="#DejaVuSans-63" transform="translate(1972.949219 0)"/>
       <use xlink:href="#DejaVuSans-6f" transform="translate(2027.929688 0)"/>
       <use xlink:href="#DejaVuSans-6d" transform="translate(2089.111328 0)"/>
       <use xlink:href="#DejaVuSans-5f" transform="translate(2186.523438 0)"/>
       <use xlink:href="#DejaVuSans-33" transform="translate(2236.523438 0)"/>
       <use xlink:href="#DejaVuSans-32" transform="translate(2300.146484 0)"/>
      </g>
     </g>
    </g>
    <g id="xtick_8">
     <g id="line2d_8">
      <g>
       <use xlink:href="#m49227ddef5" x="441.508444" y="256.622676" style="stroke: #000000; stroke-width: 0.8"/>
      </g>
     </g>
     <g id="text_8">
      <!-- ccom_08|ccom_08|ccom_50|ccom_08|ccom_50 -->
      <g transform="translate(298.016535 410.29071) rotate(-45) scale(0.085 -0.085)">
       <use xlink:href="#DejaVuSans-63"/>
       <use xlink:href="#DejaVuSans-63" transform="translate(54.980469 0)"/>
       <use xlink:href="#DejaVuSans-6f" transform="translate(109.960938 0)"/>
       <use xlink:href="#DejaVuSans-6d" transform="translate(171.142578 0)"/>
       <use xlink:href="#DejaVuSans-5f" transform="translate(268.554688 0)"/>
       <use xlink:href="#DejaVuSans-30" transform="translate(318.554688 0)"/>
       <use xlink:href="#DejaVuSans-38" transform="translate(382.177734 0)"/>
       <use xlink:href="#DejaVuSans-7c" transform="translate(445.800781 0)"/>
       <use xlink:href="#DejaVuSans-63" transform="translate(479.492188 0)"/>
       <use xlink:href="#DejaVuSans-63" transform="translate(534.472656 0)"/>
       <use xlink:href="#DejaVuSans-6f" transform="translate(589.453125 0)"/>
       <use xlink:href="#DejaVuSans-6d" transform="translate(650.634766 0)"/>
       <use xlink:href="#DejaVuSans-5f" transform="translate(748.046875 0)"/>
       <use xlink:href="#DejaVuSans-30" transform="translate(798.046875 0)"/>
       <use xlink:href="#DejaVuSans-38" transform="translate(861.669922 0)"/>
       <use xlink:href="#DejaVuSans-7c" transform="translate(925.292969 0)"/>
       <use xlink:href="#DejaVuSans-63" transform="translate(958.984375 0)"/>
       <use xlink:href="#DejaVuSans-63" transform="translate(1013.964844 0)"/>
       <use xlink:href="#DejaVuSans-6f" transform="translate(1068.945312 0)"/>
       <use xlink:href="#DejaVuSans-6d" transform="translate(1130.126953 0)"/>
       <use xlink:href="#DejaVuSans-5f" transform="translate(1227.539062 0)"/>
       <use xlink:href="#DejaVuSans-35" transform="translate(1277.539062 0)"/>
       <use xlink:href="#DejaVuSans-30" transform="translate(1341.162109 0)"/>
       <use xlink:href="#DejaVuSans-7c" transform="translate(1404.785156 0)"/>
       <use xlink:href="#DejaVuSans-63" transform="translate(1438.476562 0)"/>
       <use xlink:href="#DejaVuSans-63" transform="translate(1493.457031 0)"/>
       <use xlink:href="#DejaVuSans-6f" transform="translate(1548.4375 0)"/>
       <use xlink:href="#DejaVuSans-6d" transform="translate(1609.619141 0)"/>
       <use xlink:href="#DejaVuSans-5f" transform="translate(1707.03125 0)"/>
       <use xlink:href="#DejaVuSans-30" transform="translate(1757.03125 0)"/>
       <use xlink:href="#DejaVuSans-38" transform="translate(1820.654297 0)"/>
       <use xlink:href="#DejaVuSans-7c" transform="translate(1884.277344 0)"/>
       <use xlink:href="#DejaVuSans-63" transform="translate(1917.96875 0)"/>
       <use xlink:href="#DejaVuSans-63" transform="translate(1972.949219 0)"/>
       <use xlink:href="#DejaVuSans-6f" transform="translate(2027.929688 0)"/>
       <use xlink:href="#DejaVuSans-6d" transform="translate(2089.111328 0)"/>
       <use xlink:href="#DejaVuSans-5f" transform="translate(2186.523438 0)"/>
       <use xlink:href="#DejaVuSans-35" transform="translate(2236.523438 0)"/>
       <use xlink:href="#DejaVuSans-30" transform="translate(2300.146484 0)"/>
      </g>
     </g>
    </g>
    <g id="xtick_9">
     <g id="line2d_9">
      <g>
       <use xlink:href="#m49227ddef5" x="482.397482" y="256.622676" style="stroke: #000000; stroke-width: 0.8"/>
      </g>
     </g>
     <g id="text_9">
      <!-- ccom_08|ccom_50|ccom_08|ccom_29|ccom_29 -->
      <g transform="translate(338.905574 410.29071) rotate(-45) scale(0.085 -0.085)">
       <use xlink:href="#DejaVuSans-63"/>
       <use xlink:href="#DejaVuSans-63" transform="translate(54.980469 0)"/>
       <use xlink:href="#DejaVuSans-6f" transform="translate(109.960938 0)"/>
       <use xlink:href="#DejaVuSans-6d" transform="translate(171.142578 0)"/>
       <use xlink:href="#DejaVuSans-5f" transform="translate(268.554688 0)"/>
       <use xlink:href="#DejaVuSans-30" transform="translate(318.554688 0)"/>
       <use xlink:href="#DejaVuSans-38" transform="translate(382.177734 0)"/>
       <use xlink:href="#DejaVuSans-7c" transform="translate(445.800781 0)"/>
       <use xlink:href="#DejaVuSans-63" transform="translate(479.492188 0)"/>
       <use xlink:href="#DejaVuSans-63" transform="translate(534.472656 0)"/>
       <use xlink:href="#DejaVuSans-6f" transform="translate(589.453125 0)"/>
       <use xlink:href="#DejaVuSans-6d" transform="translate(650.634766 0)"/>
       <use xlink:href="#DejaVuSans-5f" transform="translate(748.046875 0)"/>
       <use xlink:href="#DejaVuSans-35" transform="translate(798.046875 0)"/>
       <use xlink:href="#DejaVuSans-30" transform="translate(861.669922 0)"/>
       <use xlink:href="#DejaVuSans-7c" transform="translate(925.292969 0)"/>
       <use xlink:href="#DejaVuSans-63" transform="translate(958.984375 0)"/>
       <use xlink:href="#DejaVuSans-63" transform="translate(1013.964844 0)"/>
       <use xlink:href="#DejaVuSans-6f" transform="translate(1068.945312 0)"/>
       <use xlink:href="#DejaVuSans-6d" transform="translate(1130.126953 0)"/>
       <use xlink:href="#DejaVuSans-5f" transform="translate(1227.539062 0)"/>
       <use xlink:href="#DejaVuSans-30" transform="translate(1277.539062 0)"/>
       <use xlink:href="#DejaVuSans-38" transform="translate(1341.162109 0)"/>
       <use xlink:href="#DejaVuSans-7c" transform="translate(1404.785156 0)"/>
       <use xlink:href="#DejaVuSans-63" transform="translate(1438.476562 0)"/>
       <use xlink:href="#DejaVuSans-63" transform="translate(1493.457031 0)"/>
       <use xlink:href="#DejaVuSans-6f" transform="translate(1548.4375 0)"/>
       <use xlink:href="#DejaVuSans-6d" transform="translate(1609.619141 0)"/>
       <use xlink:href="#DejaVuSans-5f" transform="translate(1707.03125 0)"/>
       <use xlink:href="#DejaVuSans-32" transform="translate(1757.03125 0)"/>
       <use xlink:href="#DejaVuSans-39" transform="translate(1820.654297 0)"/>
       <use xlink:href="#DejaVuSans-7c" transform="translate(1884.277344 0)"/>
       <use xlink:href="#DejaVuSans-63" transform="translate(1917.96875 0)"/>
       <use xlink:href="#DejaVuSans-63" transform="translate(1972.949219 0)"/>
       <use xlink:href="#DejaVuSans-6f" transform="translate(2027.929688 0)"/>
       <use xlink:href="#DejaVuSans-6d" transform="translate(2089.111328 0)"/>
       <use xlink:href="#DejaVuSans-5f" transform="translate(2186.523438 0)"/>
       <use xlink:href="#DejaVuSans-32" transform="translate(2236.523438 0)"/>
       <use xlink:href="#DejaVuSans-39" transform="translate(2300.146484 0)"/>
      </g>
     </g>
    </g>
    <g id="xtick_10">
     <g id="line2d_10">
      <g>
       <use xlink:href="#m49227ddef5" x="523.286521" y="256.622676" style="stroke: #000000; stroke-width: 0.8"/>
      </g>
     </g>
     <g id="text_10">
      <!-- ccom_32|ccom_08|ccom_08|ccom_08|ccom_32 -->
      <g transform="translate(379.794612 410.29071) rotate(-45) scale(0.085 -0.085)">
       <use xlink:href="#DejaVuSans-63"/>
       <use xlink:href="#DejaVuSans-63" transform="translate(54.980469 0)"/>
       <use xlink:href="#DejaVuSans-6f" transform="translate(109.960938 0)"/>
       <use xlink:href="#DejaVuSans-6d" transform="translate(171.142578 0)"/>
       <use xlink:href="#DejaVuSans-5f" transform="translate(268.554688 0)"/>
       <use xlink:href="#DejaVuSans-33" transform="translate(318.554688 0)"/>
       <use xlink:href="#DejaVuSans-32" transform="translate(382.177734 0)"/>
       <use xlink:href="#DejaVuSans-7c" transform="translate(445.800781 0)"/>
       <use xlink:href="#DejaVuSans-63" transform="translate(479.492188 0)"/>
       <use xlink:href="#DejaVuSans-63" transform="translate(534.472656 0)"/>
       <use xlink:href="#DejaVuSans-6f" transform="translate(589.453125 0)"/>
       <use xlink:href="#DejaVuSans-6d" transform="translate(650.634766 0)"/>
       <use xlink:href="#DejaVuSans-5f" transform="translate(748.046875 0)"/>
       <use xlink:href="#DejaVuSans-30" transform="translate(798.046875 0)"/>
       <use xlink:href="#DejaVuSans-38" transform="translate(861.669922 0)"/>
       <use xlink:href="#DejaVuSans-7c" transform="translate(925.292969 0)"/>
       <use xlink:href="#DejaVuSans-63" transform="translate(958.984375 0)"/>
       <use xlink:href="#DejaVuSans-63" transform="translate(1013.964844 0)"/>
       <use xlink:href="#DejaVuSans-6f" transform="translate(1068.945312 0)"/>
       <use xlink:href="#DejaVuSans-6d" transform="translate(1130.126953 0)"/>
       <use xlink:href="#DejaVuSans-5f" transform="translate(1227.539062 0)"/>
       <use xlink:href="#DejaVuSans-30" transform="translate(1277.539062 0)"/>
       <use xlink:href="#DejaVuSans-38" transform="translate(1341.162109 0)"/>
       <use xlink:href="#DejaVuSans-7c" transform="translate(1404.785156 0)"/>
       <use xlink:href="#DejaVuSans-63" transform="translate(1438.476562 0)"/>
       <use xlink:href="#DejaVuSans-63" transform="translate(1493.457031 0)"/>
       <use xlink:href="#DejaVuSans-6f" transform="translate(1548.4375 0)"/>
       <use xlink:href="#DejaVuSans-6d" transform="translate(1609.619141 0)"/>
       <use xlink:href="#DejaVuSans-5f" transform="translate(1707.03125 0)"/>
       <use xlink:href="#DejaVuSans-30" transform="translate(1757.03125 0)"/>
       <use xlink:href="#DejaVuSans-38" transform="translate(1820.654297 0)"/>
       <use xlink:href="#DejaVuSans-7c" transform="translate(1884.277344 0)"/>
       <use xlink:href="#DejaVuSans-63" transform="translate(1917.96875 0)"/>
       <use xlink:href="#DejaVuSans-63" transform="translate(1972.949219 0)"/>
       <use xlink:href="#DejaVuSans-6f" transform="translate(2027.929688 0)"/>
       <use xlink:href="#DejaVuSans-6d" transform="translate(2089.111328 0)"/>
       <use xlink:href="#DejaVuSans-5f" transform="translate(2186.523438 0)"/>
       <use xlink:href="#DejaVuSans-33" transform="translate(2236.523438 0)"/>
       <use xlink:href="#DejaVuSans-32" transform="translate(2300.146484 0)"/>
      </g>
     </g>
    </g>
    <g id="xtick_11">
     <g id="line2d_11">
      <g>
       <use xlink:href="#m49227ddef5" x="564.175559" y="256.622676" style="stroke: #000000; stroke-width: 0.8"/>
      </g>
     </g>
     <g id="text_11">
      <!-- ccom_40|ccom_37|ccom_37|ccom_37|ccom_50 -->
      <g transform="translate(420.68365 410.29071) rotate(-45) scale(0.085 -0.085)">
       <defs>
        <path id="DejaVuSans-37" d="M 525 4666 
L 3525 4666 
L 3525 4397 
L 1831 0 
L 1172 0 
L 2766 4134 
L 525 4134 
L 525 4666 
z
" transform="scale(0.015625)"/>
       </defs>
       <use xlink:href="#DejaVuSans-63"/>
       <use xlink:href="#DejaVuSans-63" transform="translate(54.980469 0)"/>
       <use xlink:href="#DejaVuSans-6f" transform="translate(109.960938 0)"/>
       <use xlink:href="#DejaVuSans-6d" transform="translate(171.142578 0)"/>
       <use xlink:href="#DejaVuSans-5f" transform="translate(268.554688 0)"/>
       <use xlink:href="#DejaVuSans-34" transform="translate(318.554688 0)"/>
       <use xlink:href="#DejaVuSans-30" transform="translate(382.177734 0)"/>
       <use xlink:href="#DejaVuSans-7c" transform="translate(445.800781 0)"/>
       <use xlink:href="#DejaVuSans-63" transform="translate(479.492188 0)"/>
       <use xlink:href="#DejaVuSans-63" transform="translate(534.472656 0)"/>
       <use xlink:href="#DejaVuSans-6f" transform="translate(589.453125 0)"/>
       <use xlink:href="#DejaVuSans-6d" transform="translate(650.634766 0)"/>
       <use xlink:href="#DejaVuSans-5f" transform="translate(748.046875 0)"/>
       <use xlink:href="#DejaVuSans-33" transform="translate(798.046875 0)"/>
       <use xlink:href="#DejaVuSans-37" transform="translate(861.669922 0)"/>
       <use xlink:href="#DejaVuSans-7c" transform="translate(925.292969 0)"/>
       <use xlink:href="#DejaVuSans-63" transform="translate(958.984375 0)"/>
       <use xlink:href="#DejaVuSans-63" transform="translate(1013.964844 0)"/>
       <use xlink:href="#DejaVuSans-6f" transform="translate(1068.945312 0)"/>
       <use xlink:href="#DejaVuSans-6d" transform="translate(1130.126953 0)"/>
       <use xlink:href="#DejaVuSans-5f" transform="translate(1227.539062 0)"/>
       <use xlink:href="#DejaVuSans-33" transform="translate(1277.539062 0)"/>
       <use xlink:href="#DejaVuSans-37" transform="translate(1341.162109 0)"/>
       <use xlink:href="#DejaVuSans-7c" transform="translate(1404.785156 0)"/>
       <use xlink:href="#DejaVuSans-63" transform="translate(1438.476562 0)"/>
       <use xlink:href="#DejaVuSans-63" transform="translate(1493.457031 0)"/>
       <use xlink:href="#DejaVuSans-6f" transform="translate(1548.4375 0)"/>
       <use xlink:href="#DejaVuSans-6d" transform="translate(1609.619141 0)"/>
       <use xlink:href="#DejaVuSans-5f" transform="translate(1707.03125 0)"/>
       <use xlink:href="#DejaVuSans-33" transform="translate(1757.03125 0)"/>
       <use xlink:href="#DejaVuSans-37" transform="translate(1820.654297 0)"/>
       <use xlink:href="#DejaVuSans-7c" transform="translate(1884.277344 0)"/>
       <use xlink:href="#DejaVuSans-63" transform="translate(1917.96875 0)"/>
       <use xlink:href="#DejaVuSans-63" transform="translate(1972.949219 0)"/>
       <use xlink:href="#DejaVuSans-6f" transform="translate(2027.929688 0)"/>
       <use xlink:href="#DejaVuSans-6d" transform="translate(2089.111328 0)"/>
       <use xlink:href="#DejaVuSans-5f" transform="translate(2186.523438 0)"/>
       <use xlink:href="#DejaVuSans-35" transform="translate(2236.523438 0)"/>
       <use xlink:href="#DejaVuSans-30" transform="translate(2300.146484 0)"/>
      </g>
     </g>
    </g>
    <g id="xtick_12">
     <g id="line2d_12">
      <g>
       <use xlink:href="#m49227ddef5" x="605.064597" y="256.622676" style="stroke: #000000; stroke-width: 0.8"/>
      </g>
     </g>
     <g id="text_12">
      <!-- ccom_50|ccom_50|ccom_50|ccom_50|ccom_33 -->
      <g transform="translate(461.572689 410.29071) rotate(-45) scale(0.085 -0.085)">
       <use xlink:href="#DejaVuSans-63"/>
       <use xlink:href="#DejaVuSans-63" transform="translate(54.980469 0)"/>
       <use xlink:href="#DejaVuSans-6f" transform="translate(109.960938 0)"/>
       <use xlink:href="#DejaVuSans-6d" transform="translate(171.142578 0)"/>
       <use xlink:href="#DejaVuSans-5f" transform="translate(268.554688 0)"/>
       <use xlink:href="#DejaVuSans-35" transform="translate(318.554688 0)"/>
       <use xlink:href="#DejaVuSans-30" transform="translate(382.177734 0)"/>
       <use xlink:href="#DejaVuSans-7c" transform="translate(445.800781 0)"/>
       <use xlink:href="#DejaVuSans-63" transform="translate(479.492188 0)"/>
       <use xlink:href="#DejaVuSans-63" transform="translate(534.472656 0)"/>
       <use xlink:href="#DejaVuSans-6f" transform="translate(589.453125 0)"/>
       <use xlink:href="#DejaVuSans-6d" transform="translate(650.634766 0)"/>
       <use xlink:href="#DejaVuSans-5f" transform="translate(748.046875 0)"/>
       <use xlink:href="#DejaVuSans-35" transform="translate(798.046875 0)"/>
       <use xlink:href="#DejaVuSans-30" transform="translate(861.669922 0)"/>
       <use xlink:href="#DejaVuSans-7c" transform="translate(925.292969 0)"/>
       <use xlink:href="#DejaVuSans-63" transform="translate(958.984375 0)"/>
       <use xlink:href="#DejaVuSans-63" transform="translate(1013.964844 0)"/>
       <use xlink:href="#DejaVuSans-6f" transform="translate(1068.945312 0)"/>
       <use xlink:href="#DejaVuSans-6d" transform="translate(1130.126953 0)"/>
       <use xlink:href="#DejaVuSans-5f" transform="translate(1227.539062 0)"/>
       <use xlink:href="#DejaVuSans-35" transform="translate(1277.539062 0)"/>
       <use xlink:href="#DejaVuSans-30" transform="translate(1341.162109 0)"/>
       <use xlink:href="#DejaVuSans-7c" transform="translate(1404.785156 0)"/>
       <use xlink:href="#DejaVuSans-63" transform="translate(1438.476562 0)"/>
       <use xlink:href="#DejaVuSans-63" transform="translate(1493.457031 0)"/>
       <use xlink:href="#DejaVuSans-6f" transform="translate(1548.4375 0)"/>
       <use xlink:href="#DejaVuSans-6d" transform="translate(1609.619141 0)"/>
       <use xlink:href="#DejaVuSans-5f" transform="translate(1707.03125 0)"/>
       <use xlink:href="#DejaVuSans-35" transform="translate(1757.03125 0)"/>
       <use xlink:href="#DejaVuSans-30" transform="translate(1820.654297 0)"/>
       <use xlink:href="#DejaVuSans-7c" transform="translate(1884.277344 0)"/>
       <use xlink:href="#DejaVuSans-63" transform="translate(1917.96875 0)"/>
       <use xlink:href="#DejaVuSans-63" transform="translate(1972.949219 0)"/>
       <use xlink:href="#DejaVuSans-6f" transform="translate(2027.929688 0)"/>
       <use xlink:href="#DejaVuSans-6d" transform="translate(2089.111328 0)"/>
       <use xlink:href="#DejaVuSans-5f" transform="translate(2186.523438 0)"/>
       <use xlink:href="#DejaVuSans-33" transform="translate(2236.523438 0)"/>
       <use xlink:href="#DejaVuSans-33" transform="translate(2300.146484 0)"/>
      </g>
     </g>
    </g>
    <g id="xtick_13">
     <g id="line2d_13">
      <g>
       <use xlink:href="#m49227ddef5" x="645.953636" y="256.622676" style="stroke: #000000; stroke-width: 0.8"/>
      </g>
     </g>
     <g id="text_13">
      <!-- ccom_50|ccom_50|ccom_24_1|ccom_08|ccom_43 -->
      <g transform="translate(495.632402 417.120035) rotate(-45) scale(0.085 -0.085)">
       <use xlink:href="#DejaVuSans-63"/>
       <use xlink:href="#DejaVuSans-63" transform="translate(54.980469 0)"/>
       <use xlink:href="#DejaVuSans-6f" transform="translate(109.960938 0)"/>
       <use xlink:href="#DejaVuSans-6d" transform="translate(171.142578 0)"/>
       <use xlink:href="#DejaVuSans-5f" transform="translate(268.554688 0)"/>
       <use xlink:href="#DejaVuSans-35" transform="translate(318.554688 0)"/>
       <use xlink:href="#DejaVuSans-30" transform="translate(382.177734 0)"/>
       <use xlink:href="#DejaVuSans-7c" transform="translate(445.800781 0)"/>
       <use xlink:href="#DejaVuSans-63" transform="translate(479.492188 0)"/>
       <use xlink:href="#DejaVuSans-63" transform="translate(534.472656 0)"/>
       <use xlink:href="#DejaVuSans-6f" transform="translate(589.453125 0)"/>
       <use xlink:href="#DejaVuSans-6d" transform="translate(650.634766 0)"/>
       <use xlink:href="#DejaVuSans-5f" transform="translate(748.046875 0)"/>
       <use xlink:href="#DejaVuSans-35" transform="translate(798.046875 0)"/>
       <use xlink:href="#DejaVuSans-30" transform="translate(861.669922 0)"/>
       <use xlink:href="#DejaVuSans-7c" transform="translate(925.292969 0)"/>
       <use xlink:href="#DejaVuSans-63" transform="translate(958.984375 0)"/>
       <use xlink:href="#DejaVuSans-63" transform="translate(1013.964844 0)"/>
       <use xlink:href="#DejaVuSans-6f" transform="translate(1068.945312 0)"/>
       <use xlink:href="#DejaVuSans-6d" transform="translate(1130.126953 0)"/>
       <use xlink:href="#DejaVuSans-5f" transform="translate(1227.539062 0)"/>
       <use xlink:href="#DejaVuSans-32" transform="translate(1277.539062 0)"/>
       <use xlink:href="#DejaVuSans-34" transform="translate(1341.162109 0)"/>
       <use xlink:href="#DejaVuSans-5f" transform="translate(1404.785156 0)"/>
       <use xlink:href="#DejaVuSans-31" transform="translate(1454.785156 0)"/>
       <use xlink:href="#DejaVuSans-7c" transform="translate(1518.408203 0)"/>
       <use xlink:href="#DejaVuSans-63" transform="translate(1552.099609 0)"/>
       <use xlink:href="#DejaVuSans-63" transform="translate(1607.080078 0)"/>
       <use xlink:href="#DejaVuSans-6f" transform="translate(1662.060547 0)"/>
       <use xlink:href="#DejaVuSans-6d" transform="translate(1723.242188 0)"/>
       <use xlink:href="#DejaVuSans-5f" transform="translate(1820.654297 0)"/>
       <use xlink:href="#DejaVuSans-30" transform="translate(1870.654297 0)"/>
       <use xlink:href="#DejaVuSans-38" transform="translate(1934.277344 0)"/>
       <use xlink:href="#DejaVuSans-7c" transform="translate(1997.900391 0)"/>
       <use xlink:href="#DejaVuSans-63" transform="translate(2031.591797 0)"/>
       <use xlink:href="#DejaVuSans-63" transform="translate(2086.572266 0)"/>
       <use xlink:href="#DejaVuSans-6f" transform="translate(2141.552734 0)"/>
       <use xlink:href="#DejaVuSans-6d" transform="translate(2202.734375 0)"/>
       <use xlink:href="#DejaVuSans-5f" transform="translate(2300.146484 0)"/>
       <use xlink:href="#DejaVuSans-34" transform="translate(2350.146484 0)"/>
       <use xlink:href="#DejaVuSans-33" transform="translate(2413.769531 0)"/>
      </g>
     </g>
    </g>
    <g id="xtick_14">
     <g id="line2d_14">
      <g>
       <use xlink:href="#m49227ddef5" x="686.842674" y="256.622676" style="stroke: #000000; stroke-width: 0.8"/>
      </g>
     </g>
     <g id="text_14">
      <!-- ccom_08|ccom_35|ccom_08|ccom_08|ccom_13 -->
      <g transform="translate(543.350766 410.29071) rotate(-45) scale(0.085 -0.085)">
       <use xlink:href="#DejaVuSans-63"/>
       <use xlink:href="#DejaVuSans-63" transform="translate(54.980469 0)"/>
       <use xlink:href="#DejaVuSans-6f" transform="translate(109.960938 0)"/>
       <use xlink:href="#DejaVuSans-6d" transform="translate(171.142578 0)"/>
       <use xlink:href="#DejaVuSans-5f" transform="translate(268.554688 0)"/>
       <use xlink:href="#DejaVuSans-30" transform="translate(318.554688 0)"/>
       <use xlink:href="#DejaVuSans-38" transform="translate(382.177734 0)"/>
       <use xlink:href="#DejaVuSans-7c" transform="translate(445.800781 0)"/>
       <use xlink:href="#DejaVuSans-63" transform="translate(479.492188 0)"/>
       <use xlink:href="#DejaVuSans-63" transform="translate(534.472656 0)"/>
       <use xlink:href="#DejaVuSans-6f" transform="translate(589.453125 0)"/>
       <use xlink:href="#DejaVuSans-6d" transform="translate(650.634766 0)"/>
       <use xlink:href="#DejaVuSans-5f" transform="translate(748.046875 0)"/>
       <use xlink:href="#DejaVuSans-33" transform="translate(798.046875 0)"/>
       <use xlink:href="#DejaVuSans-35" transform="translate(861.669922 0)"/>
       <use xlink:href="#DejaVuSans-7c" transform="translate(925.292969 0)"/>
       <use xlink:href="#DejaVuSans-63" transform="translate(958.984375 0)"/>
       <use xlink:href="#DejaVuSans-63" transform="translate(1013.964844 0)"/>
       <use xlink:href="#DejaVuSans-6f" transform="translate(1068.945312 0)"/>
       <use xlink:href="#DejaVuSans-6d" transform="translate(1130.126953 0)"/>
       <use xlink:href="#DejaVuSans-5f" transform="translate(1227.539062 0)"/>
       <use xlink:href="#DejaVuSans-30" transform="translate(1277.539062 0)"/>
       <use xlink:href="#DejaVuSans-38" transform="translate(1341.162109 0)"/>
       <use xlink:href="#DejaVuSans-7c" transform="translate(1404.785156 0)"/>
       <use xlink:href="#DejaVuSans-63" transform="translate(1438.476562 0)"/>
       <use xlink:href="#DejaVuSans-63" transform="translate(1493.457031 0)"/>
       <use xlink:href="#DejaVuSans-6f" transform="translate(1548.4375 0)"/>
       <use xlink:href="#DejaVuSans-6d" transform="translate(1609.619141 0)"/>
       <use xlink:href="#DejaVuSans-5f" transform="translate(1707.03125 0)"/>
       <use xlink:href="#DejaVuSans-30" transform="translate(1757.03125 0)"/>
       <use xlink:href="#DejaVuSans-38" transform="translate(1820.654297 0)"/>
       <use xlink:href="#DejaVuSans-7c" transform="translate(1884.277344 0)"/>
       <use xlink:href="#DejaVuSans-63" transform="translate(1917.96875 0)"/>
       <use xlink:href="#DejaVuSans-63" transform="translate(1972.949219 0)"/>
       <use xlink:href="#DejaVuSans-6f" transform="translate(2027.929688 0)"/>
       <use xlink:href="#DejaVuSans-6d" transform="translate(2089.111328 0)"/>
       <use xlink:href="#DejaVuSans-5f" transform="translate(2186.523438 0)"/>
       <use xlink:href="#DejaVuSans-31" transform="translate(2236.523438 0)"/>
       <use xlink:href="#DejaVuSans-33" transform="translate(2300.146484 0)"/>
      </g>
     </g>
    </g>
    <g id="xtick_15">
     <g id="line2d_15">
      <g>
       <use xlink:href="#m49227ddef5" x="727.731713" y="256.622676" style="stroke: #000000; stroke-width: 0.8"/>
      </g>
     </g>
     <g id="text_15">
      <!-- ccom_13|ccom_08|ccom_08|ccom_14|ccom_14 -->
      <g transform="translate(584.239804 410.29071) rotate(-45) scale(0.085 -0.085)">
       <use xlink:href="#DejaVuSans-63"/>
       <use xlink:href="#DejaVuSans-63" transform="translate(54.980469 0)"/>
       <use xlink:href="#DejaVuSans-6f" transform="translate(109.960938 0)"/>
       <use xlink:href="#DejaVuSans-6d" transform="translate(171.142578 0)"/>
       <use xlink:href="#DejaVuSans-5f" transform="translate(268.554688 0)"/>
       <use xlink:href="#DejaVuSans-31" transform="translate(318.554688 0)"/>
       <use xlink:href="#DejaVuSans-33" transform="translate(382.177734 0)"/>
       <use xlink:href="#DejaVuSans-7c" transform="translate(445.800781 0)"/>
       <use xlink:href="#DejaVuSans-63" transform="translate(479.492188 0)"/>
       <use xlink:href="#DejaVuSans-63" transform="translate(534.472656 0)"/>
       <use xlink:href="#DejaVuSans-6f" transform="translate(589.453125 0)"/>
       <use xlink:href="#DejaVuSans-6d" transform="translate(650.634766 0)"/>
       <use xlink:href="#DejaVuSans-5f" transform="translate(748.046875 0)"/>
       <use xlink:href="#DejaVuSans-30" transform="translate(798.046875 0)"/>
       <use xlink:href="#DejaVuSans-38" transform="translate(861.669922 0)"/>
       <use xlink:href="#DejaVuSans-7c" transform="translate(925.292969 0)"/>
       <use xlink:href="#DejaVuSans-63" transform="translate(958.984375 0)"/>
       <use xlink:href="#DejaVuSans-63" transform="translate(1013.964844 0)"/>
       <use xlink:href="#DejaVuSans-6f" transform="translate(1068.945312 0)"/>
       <use xlink:href="#DejaVuSans-6d" transform="translate(1130.126953 0)"/>
       <use xlink:href="#DejaVuSans-5f" transform="translate(1227.539062 0)"/>
       <use xlink:href="#DejaVuSans-30" transform="translate(1277.539062 0)"/>
       <use xlink:href="#DejaVuSans-38" transform="translate(1341.162109 0)"/>
       <use xlink:href="#DejaVuSans-7c" transform="translate(1404.785156 0)"/>
       <use xlink:href="#DejaVuSans-63" transform="translate(1438.476562 0)"/>
       <use xlink:href="#DejaVuSans-63" transform="translate(1493.457031 0)"/>
       <use xlink:href="#DejaVuSans-6f" transform="translate(1548.4375 0)"/>
       <use xlink:href="#DejaVuSans-6d" transform="translate(1609.619141 0)"/>
       <use xlink:href="#DejaVuSans-5f" transform="translate(1707.03125 0)"/>
       <use xlink:href="#DejaVuSans-31" transform="translate(1757.03125 0)"/>
       <use xlink:href="#DejaVuSans-34" transform="translate(1820.654297 0)"/>
       <use xlink:href="#DejaVuSans-7c" transform="translate(1884.277344 0)"/>
       <use xlink:href="#DejaVuSans-63" transform="translate(1917.96875 0)"/>
       <use xlink:href="#DejaVuSans-63" transform="translate(1972.949219 0)"/>
       <use xlink:href="#DejaVuSans-6f" transform="translate(2027.929688 0)"/>
       <use xlink:href="#DejaVuSans-6d" transform="translate(2089.111328 0)"/>
       <use xlink:href="#DejaVuSans-5f" transform="translate(2186.523438 0)"/>
       <use xlink:href="#DejaVuSans-31" transform="translate(2236.523438 0)"/>
       <use xlink:href="#DejaVuSans-34" transform="translate(2300.146484 0)"/>
      </g>
     </g>
    </g>
    <g id="text_16">
     <!-- Retrieved document ID -->
     <g style="fill: #111111" transform="translate(383.760787 430.135614) scale(0.1 -0.1)">
      <defs>
       <path id="DejaVuSans-52" d="M 2841 2188 
Q 3044 2119 3236 1894 
Q 3428 1669 3622 1275 
L 4263 0 
L 3584 0 
L 2988 1197 
Q 2756 1666 2539 1819 
Q 2322 1972 1947 1972 
L 1259 1972 
L 1259 0 
L 628 0 
L 628 4666 
L 2053 4666 
Q 2853 4666 3247 4331 
Q 3641 3997 3641 3322 
Q 3641 2881 3436 2590 
Q 3231 2300 2841 2188 
z
M 1259 4147 
L 1259 2491 
L 2053 2491 
Q 2509 2491 2742 2702 
Q 2975 2913 2975 3322 
Q 2975 3731 2742 3939 
Q 2509 4147 2053 4147 
L 1259 4147 
z
" transform="scale(0.015625)"/>
       <path id="DejaVuSans-65" d="M 3597 1894 
L 3597 1613 
L 953 1613 
Q 991 1019 1311 708 
Q 1631 397 2203 397 
Q 2534 397 2845 478 
Q 3156 559 3463 722 
L 3463 178 
Q 3153 47 2828 -22 
Q 2503 -91 2169 -91 
Q 1331 -91 842 396 
Q 353 884 353 1716 
Q 353 2575 817 3079 
Q 1281 3584 2069 3584 
Q 2775 3584 3186 3129 
Q 3597 2675 3597 1894 
z
M 3022 2063 
Q 3016 2534 2758 2815 
Q 2500 3097 2075 3097 
Q 1594 3097 1305 2825 
Q 1016 2553 972 2059 
L 3022 2063 
z
" transform="scale(0.015625)"/>
       <path id="DejaVuSans-74" d="M 1172 4494 
L 1172 3500 
L 2356 3500 
L 2356 3053 
L 1172 3053 
L 1172 1153 
Q 1172 725 1289 603 
Q 1406 481 1766 481 
L 2356 481 
L 2356 0 
L 1766 0 
Q 1100 0 847 248 
Q 594 497 594 1153 
L 594 3053 
L 172 3053 
L 172 3500 
L 594 3500 
L 594 4494 
L 1172 4494 
z
" transform="scale(0.015625)"/>
       <path id="DejaVuSans-72" d="M 2631 2963 
Q 2534 3019 2420 3045 
Q 2306 3072 2169 3072 
Q 1681 3072 1420 2755 
Q 1159 2438 1159 1844 
L 1159 0 
L 581 0 
L 581 3500 
L 1159 3500 
L 1159 2956 
Q 1341 3275 1631 3429 
Q 1922 3584 2338 3584 
Q 2397 3584 2469 3576 
Q 2541 3569 2628 3553 
L 2631 2963 
z
" transform="scale(0.015625)"/>
       <path id="DejaVuSans-69" d="M 603 3500 
L 1178 3500 
L 1178 0 
L 603 0 
L 603 3500 
z
M 603 4863 
L 1178 4863 
L 1178 4134 
L 603 4134 
L 603 4863 
z
" transform="scale(0.015625)"/>
       <path id="DejaVuSans-76" d="M 191 3500 
L 800 3500 
L 1894 563 
L 2988 3500 
L 3597 3500 
L 2284 0 
L 1503 0 
L 191 3500 
z
" transform="scale(0.015625)"/>
       <path id="DejaVuSans-64" d="M 2906 2969 
L 2906 4863 
L 3481 4863 
L 3481 0 
L 2906 0 
L 2906 525 
Q 2725 213 2448 61 
Q 2172 -91 1784 -91 
Q 1150 -91 751 415 
Q 353 922 353 1747 
Q 353 2572 751 3078 
Q 1150 3584 1784 3584 
Q 2172 3584 2448 3432 
Q 2725 3281 2906 2969 
z
M 947 1747 
Q 947 1113 1208 752 
Q 1469 391 1925 391 
Q 2381 391 2643 752 
Q 2906 1113 2906 1747 
Q 2906 2381 2643 2742 
Q 2381 3103 1925 3103 
Q 1469 3103 1208 2742 
Q 947 2381 947 1747 
z
" transform="scale(0.015625)"/>
       <path id="DejaVuSans-20" transform="scale(0.015625)"/>
       <path id="DejaVuSans-75" d="M 544 1381 
L 544 3500 
L 1119 3500 
L 1119 1403 
Q 1119 906 1312 657 
Q 1506 409 1894 409 
Q 2359 409 2629 706 
Q 2900 1003 2900 1516 
L 2900 3500 
L 3475 3500 
L 3475 0 
L 2900 0 
L 2900 538 
Q 2691 219 2414 64 
Q 2138 -91 1772 -91 
Q 1169 -91 856 284 
Q 544 659 544 1381 
z
M 1991 3584 
L 1991 3584 
z
" transform="scale(0.015625)"/>
       <path id="DejaVuSans-6e" d="M 3513 2113 
L 3513 0 
L 2938 0 
L 2938 2094 
Q 2938 2591 2744 2837 
Q 2550 3084 2163 3084 
Q 1697 3084 1428 2787 
Q 1159 2491 1159 1978 
L 1159 0 
L 581 0 
L 581 3500 
L 1159 3500 
L 1159 2956 
Q 1366 3272 1645 3428 
Q 1925 3584 2291 3584 
Q 2894 3584 3203 3211 
Q 3513 2838 3513 2113 
z
" transform="scale(0.015625)"/>
       <path id="DejaVuSans-49" d="M 628 4666 
L 1259 4666 
L 1259 0 
L 628 0 
L 628 4666 
z
" transform="scale(0.015625)"/>
       <path id="DejaVuSans-44" d="M 1259 4147 
L 1259 519 
L 2022 519 
Q 2988 519 3436 956 
Q 3884 1394 3884 2338 
Q 3884 3275 3436 3711 
Q 2988 4147 2022 4147 
L 1259 4147 
z
M 628 4666 
L 1925 4666 
Q 3281 4666 3915 4102 
Q 4550 3538 4550 2338 
Q 4550 1131 3912 565 
Q 3275 0 1925 0 
L 628 0 
L 628 4666 
z
" transform="scale(0.015625)"/>
      </defs>
      <use xlink:href="#DejaVuSans-52"/>
      <use xlink:href="#DejaVuSans-65" transform="translate(64.982422 0)"/>
      <use xlink:href="#DejaVuSans-74" transform="translate(126.505859 0)"/>
      <use xlink:href="#DejaVuSans-72" transform="translate(165.714844 0)"/>
      <use xlink:href="#DejaVuSans-69" transform="translate(206.828125 0)"/>
      <use xlink:href="#DejaVuSans-65" transform="translate(234.611328 0)"/>
      <use xlink:href="#DejaVuSans-76" transform="translate(296.134766 0)"/>
      <use xlink:href="#DejaVuSans-65" transform="translate(355.314453 0)"/>
      <use xlink:href="#DejaVuSans-64" transform="translate(416.837891 0)"/>
      <use xlink:href="#DejaVuSans-20" transform="translate(480.314453 0)"/>
      <use xlink:href="#DejaVuSans-64" transform="translate(512.101562 0)"/>
      <use xlink:href="#DejaVuSans-6f" transform="translate(575.578125 0)"/>
      <use xlink:href="#DejaVuSans-63" transform="translate(636.759766 0)"/>
      <use xlink:href="#DejaVuSans-75" transform="translate(691.740234 0)"/>
      <use xlink:href="#DejaVuSans-6d" transform="translate(755.119141 0)"/>
      <use xlink:href="#DejaVuSans-65" transform="translate(852.53125 0)"/>
      <use xlink:href="#DejaVuSans-6e" transform="translate(914.054688 0)"/>
      <use xlink:href="#DejaVuSans-74" transform="translate(977.433594 0)"/>
      <use xlink:href="#DejaVuSans-20" transform="translate(1016.642578 0)"/>
      <use xlink:href="#DejaVuSans-49" transform="translate(1048.429688 0)"/>
      <use xlink:href="#DejaVuSans-44" transform="translate(1077.921875 0)"/>
     </g>
    </g>
   </g>
   <g id="matplotlib.axis_2">
    <g id="ytick_1">
     <g id="line2d_16">
      <path d="M 108.671671 256.622676 
L 774.345216 256.622676 
" clip-path="url(#pd3c34756e3)" style="fill: none; stroke: #b0b0b0; stroke-opacity: 0.18; stroke-width: 0.8; stroke-linecap: square"/>
     </g>
     <g id="line2d_17">
      <defs>
       <path id="m6516b19ed5" d="M 0 0 
L -3.5 0 
" style="stroke: #000000; stroke-width: 0.8"/>
      </defs>
      <g>
       <use xlink:href="#m6516b19ed5" x="108.671671" y="256.622676" style="stroke: #000000; stroke-width: 0.8"/>
      </g>
     </g>
     <g id="text_17">
      <!-- 0.0 -->
      <g transform="translate(87.358858 260.041973) scale(0.09 -0.09)">
       <defs>
        <path id="DejaVuSans-2e" d="M 684 794 
L 1344 794 
L 1344 0 
L 684 0 
L 684 794 
z
" transform="scale(0.015625)"/>
       </defs>
       <use xlink:href="#DejaVuSans-30"/>
       <use xlink:href="#DejaVuSans-2e" transform="translate(63.623047 0)"/>
       <use xlink:href="#DejaVuSans-30" transform="translate(95.410156 0)"/>
      </g>
     </g>
    </g>
    <g id="ytick_2">
     <g id="line2d_18">
      <path d="M 108.671671 214.568417 
L 774.345216 214.568417 
" clip-path="url(#pd3c34756e3)" style="fill: none; stroke: #b0b0b0; stroke-opacity: 0.18; stroke-width: 0.8; stroke-linecap: square"/>
     </g>
     <g id="line2d_19">
      <g>
       <use xlink:href="#m6516b19ed5" x="108.671671" y="214.568417" style="stroke: #000000; stroke-width: 0.8"/>
      </g>
     </g>
     <g id="text_18">
      <!-- 0.2 -->
      <g transform="translate(87.358858 217.987713) scale(0.09 -0.09)">
       <use xlink:href="#DejaVuSans-30"/>
       <use xlink:href="#DejaVuSans-2e" transform="translate(63.623047 0)"/>
       <use xlink:href="#DejaVuSans-32" transform="translate(95.410156 0)"/>
      </g>
     </g>
    </g>
    <g id="ytick_3">
     <g id="line2d_20">
      <path d="M 108.671671 172.514157 
L 774.345216 172.514157 
" clip-path="url(#pd3c34756e3)" style="fill: none; stroke: #b0b0b0; stroke-opacity: 0.18; stroke-width: 0.8; stroke-linecap: square"/>
     </g>
     <g id="line2d_21">
      <g>
       <use xlink:href="#m6516b19ed5" x="108.671671" y="172.514157" style="stroke: #000000; stroke-width: 0.8"/>
      </g>
     </g>
     <g id="text_19">
      <!-- 0.4 -->
      <g transform="translate(87.358858 175.933454) scale(0.09 -0.09)">
       <use xlink:href="#DejaVuSans-30"/>
       <use xlink:href="#DejaVuSans-2e" transform="translate(63.623047 0)"/>
       <use xlink:href="#DejaVuSans-34" transform="translate(95.410156 0)"/>
      </g>
     </g>
    </g>
    <g id="ytick_4">
     <g id="line2d_22">
      <path d="M 108.671671 130.459897 
L 774.345216 130.459897 
" clip-path="url(#pd3c34756e3)" style="fill: none; stroke: #b0b0b0; stroke-opacity: 0.18; stroke-width: 0.8; stroke-linecap: square"/>
     </g>
     <g id="line2d_23">
      <g>
       <use xlink:href="#m6516b19ed5" x="108.671671" y="130.459897" style="stroke: #000000; stroke-width: 0.8"/>
      </g>
     </g>
     <g id="text_20">
      <!-- 0.6 -->
      <g transform="translate(87.358858 133.879194) scale(0.09 -0.09)">
       <use xlink:href="#DejaVuSans-30"/>
       <use xlink:href="#DejaVuSans-2e" transform="translate(63.623047 0)"/>
       <use xlink:href="#DejaVuSans-36" transform="translate(95.410156 0)"/>
      </g>
     </g>
    </g>
    <g id="ytick_5">
     <g id="line2d_24">
      <path d="M 108.671671 88.405637 
L 774.345216 88.405637 
" clip-path="url(#pd3c34756e3)" style="fill: none; stroke: #b0b0b0; stroke-opacity: 0.18; stroke-width: 0.8; stroke-linecap: square"/>
     </g>
     <g id="line2d_25">
      <g>
       <use xlink:href="#m6516b19ed5" x="108.671671" y="88.405637" style="stroke: #000000; stroke-width: 0.8"/>
      </g>
     </g>
     <g id="text_21">
      <!-- 0.8 -->
      <g transform="translate(87.358858 91.824934) scale(0.09 -0.09)">
       <use xlink:href="#DejaVuSans-30"/>
       <use xlink:href="#DejaVuSans-2e" transform="translate(63.623047 0)"/>
       <use xlink:href="#DejaVuSans-38" transform="translate(95.410156 0)"/>
      </g>
     </g>
    </g>
    <g id="ytick_6">
     <g id="line2d_26">
      <path d="M 108.671671 46.351377 
L 774.345216 46.351377 
" clip-path="url(#pd3c34756e3)" style="fill: none; stroke: #b0b0b0; stroke-opacity: 0.18; stroke-width: 0.8; stroke-linecap: square"/>
     </g>
     <g id="line2d_27">
      <g>
       <use xlink:href="#m6516b19ed5" x="108.671671" y="46.351377" style="stroke: #000000; stroke-width: 0.8"/>
      </g>
     </g>
     <g id="text_22">
      <!-- 1.0 -->
      <g transform="translate(87.358858 49.770674) scale(0.09 -0.09)">
       <use xlink:href="#DejaVuSans-31"/>
       <use xlink:href="#DejaVuSans-2e" transform="translate(63.623047 0)"/>
       <use xlink:href="#DejaVuSans-30" transform="translate(95.410156 0)"/>
      </g>
     </g>
    </g>
    <g id="text_23">
     <!-- Retrieval frequency -->
     <g style="fill: #111111" transform="translate(81.279171 195.115401) rotate(-90) scale(0.1 -0.1)">
      <defs>
       <path id="DejaVuSans-61" d="M 2194 1759 
Q 1497 1759 1228 1600 
Q 959 1441 959 1056 
Q 959 750 1161 570 
Q 1363 391 1709 391 
Q 2188 391 2477 730 
Q 2766 1069 2766 1631 
L 2766 1759 
L 2194 1759 
z
M 3341 1997 
L 3341 0 
L 2766 0 
L 2766 531 
Q 2569 213 2275 61 
Q 1981 -91 1556 -91 
Q 1019 -91 701 211 
Q 384 513 384 1019 
Q 384 1609 779 1909 
Q 1175 2209 1959 2209 
L 2766 2209 
L 2766 2266 
Q 2766 2663 2505 2880 
Q 2244 3097 1772 3097 
Q 1472 3097 1187 3025 
Q 903 2953 641 2809 
L 641 3341 
Q 956 3463 1253 3523 
Q 1550 3584 1831 3584 
Q 2591 3584 2966 3190 
Q 3341 2797 3341 1997 
z
" transform="scale(0.015625)"/>
       <path id="DejaVuSans-6c" d="M 603 4863 
L 1178 4863 
L 1178 0 
L 603 0 
L 603 4863 
z
" transform="scale(0.015625)"/>
       <path id="DejaVuSans-66" d="M 2375 4863 
L 2375 4384 
L 1825 4384 
Q 1516 4384 1395 4259 
Q 1275 4134 1275 3809 
L 1275 3500 
L 2222 3500 
L 2222 3053 
L 1275 3053 
L 1275 0 
L 697 0 
L 697 3053 
L 147 3053 
L 147 3500 
L 697 3500 
L 697 3744 
Q 697 4328 969 4595 
Q 1241 4863 1831 4863 
L 2375 4863 
z
" transform="scale(0.015625)"/>
       <path id="DejaVuSans-71" d="M 947 1747 
Q 947 1113 1208 752 
Q 1469 391 1925 391 
Q 2381 391 2643 752 
Q 2906 1113 2906 1747 
Q 2906 2381 2643 2742 
Q 2381 3103 1925 3103 
Q 1469 3103 1208 2742 
Q 947 2381 947 1747 
z
M 2906 525 
Q 2725 213 2448 61 
Q 2172 -91 1784 -91 
Q 1150 -91 751 415 
Q 353 922 353 1747 
Q 353 2572 751 3078 
Q 1150 3584 1784 3584 
Q 2172 3584 2448 3432 
Q 2725 3281 2906 2969 
L 2906 3500 
L 3481 3500 
L 3481 -1331 
L 2906 -1331 
L 2906 525 
z
" transform="scale(0.015625)"/>
       <path id="DejaVuSans-79" d="M 2059 -325 
Q 1816 -950 1584 -1140 
Q 1353 -1331 966 -1331 
L 506 -1331 
L 506 -850 
L 844 -850 
Q 1081 -850 1212 -737 
Q 1344 -625 1503 -206 
L 1606 56 
L 191 3500 
L 800 3500 
L 1894 763 
L 2988 3500 
L 3597 3500 
L 2059 -325 
z
" transform="scale(0.015625)"/>
      </defs>
      <use xlink:href="#DejaVuSans-52"/>
      <use xlink:href="#DejaVuSans-65" transform="translate(64.982422 0)"/>
      <use xlink:href="#DejaVuSans-74" transform="translate(126.505859 0)"/>
      <use xlink:href="#DejaVuSans-72" transform="translate(165.714844 0)"/>
      <use xlink:href="#DejaVuSans-69" transform="translate(206.828125 0)"/>
      <use xlink:href="#DejaVuSans-65" transform="translate(234.611328 0)"/>
      <use xlink:href="#DejaVuSans-76" transform="translate(296.134766 0)"/>
      <use xlink:href="#DejaVuSans-61" transform="translate(355.314453 0)"/>
      <use xlink:href="#DejaVuSans-6c" transform="translate(416.59375 0)"/>
      <use xlink:href="#DejaVuSans-20" transform="translate(444.376953 0)"/>
      <use xlink:href="#DejaVuSans-66" transform="translate(476.164062 0)"/>
      <use xlink:href="#DejaVuSans-72" transform="translate(511.369141 0)"/>
      <use xlink:href="#DejaVuSans-65" transform="translate(550.232422 0)"/>
      <use xlink:href="#DejaVuSans-71" transform="translate(611.755859 0)"/>
      <use xlink:href="#DejaVuSans-75" transform="translate(675.232422 0)"/>
      <use xlink:href="#DejaVuSans-65" transform="translate(738.611328 0)"/>
      <use xlink:href="#DejaVuSans-6e" transform="translate(800.134766 0)"/>
      <use xlink:href="#DejaVuSans-63" transform="translate(863.513672 0)"/>
      <use xlink:href="#DejaVuSans-79" transform="translate(918.494141 0)"/>
     </g>
    </g>
   </g>
   <g id="patch_3">
    <path d="M 138.929559 256.622676 
L 171.64079 256.622676 
L 171.64079 46.351377 
L 138.929559 46.351377 
z
" clip-path="url(#pd3c34756e3)" style="fill: #c0392b; stroke: #333333; stroke-linejoin: miter"/>
   </g>
   <g id="patch_4">
    <path d="M 179.818598 256.622676 
L 212.529829 256.622676 
L 212.529829 46.351377 
L 179.818598 46.351377 
z
" clip-path="url(#pd3c34756e3)" style="fill: #c0392b; stroke: #333333; stroke-linejoin: miter"/>
   </g>
   <g id="patch_5">
    <path d="M 220.707636 256.622676 
L 253.418867 256.622676 
L 253.418867 46.351377 
L 220.707636 46.351377 
z
" clip-path="url(#pd3c34756e3)" style="fill: #b0b0b0; stroke: #333333; stroke-linejoin: miter"/>
   </g>
   <g id="patch_6">
    <path d="M 261.596675 256.622676 
L 294.307905 256.622676 
L 294.307905 46.351377 
L 261.596675 46.351377 
z
" clip-path="url(#pd3c34756e3)" style="fill: #b0b0b0; stroke: #333333; stroke-linejoin: miter"/>
   </g>
   <g id="patch_7">
    <path d="M 302.485713 256.622676 
L 335.196944 256.622676 
L 335.196944 46.351377 
L 302.485713 46.351377 
z
" clip-path="url(#pd3c34756e3)" style="fill: #b0b0b0; stroke: #333333; stroke-linejoin: miter"/>
   </g>
   <g id="patch_8">
    <path d="M 343.374751 256.622676 
L 376.085982 256.622676 
L 376.085982 46.351377 
L 343.374751 46.351377 
z
" clip-path="url(#pd3c34756e3)" style="fill: #b0b0b0; stroke: #333333; stroke-linejoin: miter"/>
   </g>
   <g id="patch_9">
    <path d="M 384.26379 256.622676 
L 416.975021 256.622676 
L 416.975021 46.351377 
L 384.26379 46.351377 
z
" clip-path="url(#pd3c34756e3)" style="fill: #b0b0b0; stroke: #333333; stroke-linejoin: miter"/>
   </g>
   <g id="patch_10">
    <path d="M 425.152828 256.622676 
L 457.864059 256.622676 
L 457.864059 46.351377 
L 425.152828 46.351377 
z
" clip-path="url(#pd3c34756e3)" style="fill: #b0b0b0; stroke: #333333; stroke-linejoin: miter"/>
   </g>
   <g id="patch_11">
    <path d="M 466.041867 256.622676 
L 498.753098 256.622676 
L 498.753098 46.351377 
L 466.041867 46.351377 
z
" clip-path="url(#pd3c34756e3)" style="fill: #b0b0b0; stroke: #333333; stroke-linejoin: miter"/>
   </g>
   <g id="patch_12">
    <path d="M 506.930905 256.622676 
L 539.642136 256.622676 
L 539.642136 46.351377 
L 506.930905 46.351377 
z
" clip-path="url(#pd3c34756e3)" style="fill: #b0b0b0; stroke: #333333; stroke-linejoin: miter"/>
   </g>
   <g id="patch_13">
    <path d="M 547.819944 256.622676 
L 580.531174 256.622676 
L 580.531174 46.351377 
L 547.819944 46.351377 
z
" clip-path="url(#pd3c34756e3)" style="fill: #b0b0b0; stroke: #333333; stroke-linejoin: miter"/>
   </g>
   <g id="patch_14">
    <path d="M 588.708982 256.622676 
L 621.420213 256.622676 
L 621.420213 46.351377 
L 588.708982 46.351377 
z
" clip-path="url(#pd3c34756e3)" style="fill: #b0b0b0; stroke: #333333; stroke-linejoin: miter"/>
   </g>
   <g id="patch_15">
    <path d="M 629.59802 256.622676 
L 662.309251 256.622676 
L 662.309251 46.351377 
L 629.59802 46.351377 
z
" clip-path="url(#pd3c34756e3)" style="fill: #b0b0b0; stroke: #333333; stroke-linejoin: miter"/>
   </g>
   <g id="patch_16">
    <path d="M 670.487059 256.622676 
L 703.19829 256.622676 
L 703.19829 46.351377 
L 670.487059 46.351377 
z
" clip-path="url(#pd3c34756e3)" style="fill: #b0b0b0; stroke: #333333; stroke-linejoin: miter"/>
   </g>
   <g id="patch_17">
    <path d="M 711.376097 256.622676 
L 744.087328 256.622676 
L 744.087328 46.351377 
L 711.376097 46.351377 
z
" clip-path="url(#pd3c34756e3)" style="fill: #b0b0b0; stroke: #333333; stroke-linejoin: miter"/>
   </g>
   <g id="patch_18">
    <path d="M 108.671671 256.622676 
L 108.671671 35.837812 
" style="fill: none; stroke: #333333; stroke-width: 0.8; stroke-linejoin: miter; stroke-linecap: square"/>
   </g>
   <g id="patch_19">
    <path d="M 108.671671 256.622676 
L 774.345216 256.622676 
" style="fill: none; stroke: #333333; stroke-width: 0.8; stroke-linejoin: miter; stroke-linecap: square"/>
   </g>
   <g id="text_24">
    <!-- 1 -->
    <g style="fill: #111111" transform="translate(152.581112 41.429574) scale(0.085 -0.085)">
     <use xlink:href="#DejaVuSans-31"/>
    </g>
   </g>
   <g id="text_25">
    <!-- 1 -->
    <g style="fill: #111111" transform="translate(193.470151 41.429574) scale(0.085 -0.085)">
     <use xlink:href="#DejaVuSans-31"/>
    </g>
   </g>
   <g id="text_26">
    <!-- 1 -->
    <g style="fill: #111111" transform="translate(234.359189 41.429574) scale(0.085 -0.085)">
     <use xlink:href="#DejaVuSans-31"/>
    </g>
   </g>
   <g id="text_27">
    <!-- 1 -->
    <g style="fill: #111111" transform="translate(275.248228 41.429574) scale(0.085 -0.085)">
     <use xlink:href="#DejaVuSans-31"/>
    </g>
   </g>
   <g id="text_28">
    <!-- 1 -->
    <g style="fill: #111111" transform="translate(316.137266 41.429574) scale(0.085 -0.085)">
     <use xlink:href="#DejaVuSans-31"/>
    </g>
   </g>
   <g id="text_29">
    <!-- 1 -->
    <g style="fill: #111111" transform="translate(357.026304 41.429574) scale(0.085 -0.085)">
     <use xlink:href="#DejaVuSans-31"/>
    </g>
   </g>
   <g id="text_30">
    <!-- 1 -->
    <g style="fill: #111111" transform="translate(397.915343 41.429574) scale(0.085 -0.085)">
     <use xlink:href="#DejaVuSans-31"/>
    </g>
   </g>
   <g id="text_31">
    <!-- 1 -->
    <g style="fill: #111111" transform="translate(438.804381 41.429574) scale(0.085 -0.085)">
     <use xlink:href="#DejaVuSans-31"/>
    </g>
   </g>
   <g id="text_32">
    <!-- 1 -->
    <g style="fill: #111111" transform="translate(479.69342 41.429574) scale(0.085 -0.085)">
     <use xlink:href="#DejaVuSans-31"/>
    </g>
   </g>
   <g id="text_33">
    <!-- 1 -->
    <g style="fill: #111111" transform="translate(520.582458 41.429574) scale(0.085 -0.085)">
     <use xlink:href="#DejaVuSans-31"/>
    </g>
   </g>
   <g id="text_34">
    <!-- 1 -->
    <g style="fill: #111111" transform="translate(561.471496 41.429574) scale(0.085 -0.085)">
     <use xlink:href="#DejaVuSans-31"/>
    </g>
   </g>
   <g id="text_35">
    <!-- 1 -->
    <g style="fill: #111111" transform="translate(602.360535 41.429574) scale(0.085 -0.085)">
     <use xlink:href="#DejaVuSans-31"/>
    </g>
   </g>
   <g id="text_36">
    <!-- 1 -->
    <g style="fill: #111111" transform="translate(643.249573 41.429574) scale(0.085 -0.085)">
     <use xlink:href="#DejaVuSans-31"/>
    </g>
   </g>
   <g id="text_37">
    <!-- 1 -->
    <g style="fill: #111111" transform="translate(684.138612 41.429574) scale(0.085 -0.085)">
     <use xlink:href="#DejaVuSans-31"/>
    </g>
   </g>
   <g id="text_38">
    <!-- 1 -->
    <g style="fill: #111111" transform="translate(725.02765 41.429574) scale(0.085 -0.085)">
     <use xlink:href="#DejaVuSans-31"/>
    </g>
   </g>
   <g id="text_39">
    <!-- Few documents dominate retrieval -->
    <g style="fill: #666666" transform="translate(607.532294 58.283315) scale(0.092 -0.092)">
     <defs>
      <path id="DejaVuSans-46" d="M 628 4666 
L 3309 4666 
L 3309 4134 
L 1259 4134 
L 1259 2759 
L 3109 2759 
L 3109 2228 
L 1259 2228 
L 1259 0 
L 628 0 
L 628 4666 
z
" transform="scale(0.015625)"/>
      <path id="DejaVuSans-77" d="M 269 3500 
L 844 3500 
L 1563 769 
L 2278 3500 
L 2956 3500 
L 3675 769 
L 4391 3500 
L 4966 3500 
L 4050 0 
L 3372 0 
L 2619 2869 
L 1863 0 
L 1184 0 
L 269 3500 
z
" transform="scale(0.015625)"/>
      <path id="DejaVuSans-73" d="M 2834 3397 
L 2834 2853 
Q 2591 2978 2328 3040 
Q 2066 3103 1784 3103 
Q 1356 3103 1142 2972 
Q 928 2841 928 2578 
Q 928 2378 1081 2264 
Q 1234 2150 1697 2047 
L 1894 2003 
Q 2506 1872 2764 1633 
Q 3022 1394 3022 966 
Q 3022 478 2636 193 
Q 2250 -91 1575 -91 
Q 1294 -91 989 -36 
Q 684 19 347 128 
L 347 722 
Q 666 556 975 473 
Q 1284 391 1588 391 
Q 1994 391 2212 530 
Q 2431 669 2431 922 
Q 2431 1156 2273 1281 
Q 2116 1406 1581 1522 
L 1381 1569 
Q 847 1681 609 1914 
Q 372 2147 372 2553 
Q 372 3047 722 3315 
Q 1072 3584 1716 3584 
Q 2034 3584 2315 3537 
Q 2597 3491 2834 3397 
z
" transform="scale(0.015625)"/>
     </defs>
     <use xlink:href="#DejaVuSans-46"/>
     <use xlink:href="#DejaVuSans-65" transform="translate(52.019531 0)"/>
     <use xlink:href="#DejaVuSans-77" transform="translate(113.542969 0)"/>
     <use xlink:href="#DejaVuSans-20" transform="translate(195.330078 0)"/>
     <use xlink:href="#DejaVuSans-64" transform="translate(227.117188 0)"/>
     <use xlink:href="#DejaVuSans-6f" transform="translate(290.59375 0)"/>
     <use xlink:href="#DejaVuSans-63" transform="translate(351.775391 0)"/>
     <use xlink:href="#DejaVuSans-75" transform="translate(406.755859 0)"/>
     <use xlink:href="#DejaVuSans-6d" transform="translate(470.134766 0)"/>
     <use xlink:href="#DejaVuSans-65" transform="translate(567.546875 0)"/>
     <use xlink:href="#DejaVuSans-6e" transform="translate(629.070312 0)"/>
     <use xlink:href="#DejaVuSans-74" transform="translate(692.449219 0)"/>
     <use xlink:href="#DejaVuSans-73" transform="translate(731.658203 0)"/>
     <use xlink:href="#DejaVuSans-20" transform="translate(783.757812 0)"/>
     <use xlink:href="#DejaVuSans-64" transform="translate(815.544922 0)"/>
     <use xlink:href="#DejaVuSans-6f" transform="translate(879.021484 0)"/>
     <use xlink:href="#DejaVuSans-6d" transform="translate(940.203125 0)"/>
     <use xlink:href="#DejaVuSans-69" transform="translate(1037.615234 0)"/>
     <use xlink:href="#DejaVuSans-6e" transform="translate(1065.398438 0)"/>
     <use xlink:href="#DejaVuSans-61" transform="translate(1128.777344 0)"/>
     <use xlink:href="#DejaVuSans-74" transform="translate(1190.056641 0)"/>
     <use xlink:href="#DejaVuSans-65" transform="translate(1229.265625 0)"/>
     <use xlink:href="#DejaVuSans-20" transform="translate(1290.789062 0)"/>
     <use xlink:href="#DejaVuSans-72" transform="translate(1322.576172 0)"/>
     <use xlink:href="#DejaVuSans-65" transform="translate(1361.439453 0)"/>
     <use xlink:href="#DejaVuSans-74" transform="translate(1422.962891 0)"/>
     <use xlink:href="#DejaVuSans-72" transform="translate(1462.171875 0)"/>
     <use xlink:href="#DejaVuSans-69" transform="translate(1503.285156 0)"/>
     <use xlink:href="#DejaVuSans-65" transform="translate(1531.068359 0)"/>
     <use xlink:href="#DejaVuSans-76" transform="translate(1592.591797 0)"/>
     <use xlink:href="#DejaVuSans-61" transform="translate(1651.771484 0)"/>
     <use xlink:href="#DejaVuSans-6c" transform="translate(1713.050781 0)"/>
    </g>
   </g>
   <g id="text_40">
    <!-- Retrieval Concentration: Visibility Concentrates in a Small Document Core -->
    <g style="fill: #111111" transform="translate(148.368131 17.837812) scale(0.14 -0.14)">
     <defs>
      <path id="DejaVuSans-Bold-52" d="M 2297 2597 
Q 2675 2597 2839 2737 
Q 3003 2878 3003 3200 
Q 3003 3519 2839 3656 
Q 2675 3794 2297 3794 
L 1791 3794 
L 1791 2597 
L 2297 2597 
z
M 1791 1766 
L 1791 0 
L 588 0 
L 588 4666 
L 2425 4666 
Q 3347 4666 3776 4356 
Q 4206 4047 4206 3378 
Q 4206 2916 3982 2619 
Q 3759 2322 3309 2181 
Q 3556 2125 3751 1926 
Q 3947 1728 4147 1325 
L 4800 0 
L 3519 0 
L 2950 1159 
Q 2778 1509 2601 1637 
Q 2425 1766 2131 1766 
L 1791 1766 
z
" transform="scale(0.015625)"/>
      <path id="DejaVuSans-Bold-65" d="M 4031 1759 
L 4031 1441 
L 1416 1441 
Q 1456 1047 1700 850 
Q 1944 653 2381 653 
Q 2734 653 3104 758 
Q 3475 863 3866 1075 
L 3866 213 
Q 3469 63 3072 -14 
Q 2675 -91 2278 -91 
Q 1328 -91 801 392 
Q 275 875 275 1747 
Q 275 2603 792 3093 
Q 1309 3584 2216 3584 
Q 3041 3584 3536 3087 
Q 4031 2591 4031 1759 
z
M 2881 2131 
Q 2881 2450 2695 2645 
Q 2509 2841 2209 2841 
Q 1884 2841 1681 2658 
Q 1478 2475 1428 2131 
L 2881 2131 
z
" transform="scale(0.015625)"/>
      <path id="DejaVuSans-Bold-74" d="M 1759 4494 
L 1759 3500 
L 2913 3500 
L 2913 2700 
L 1759 2700 
L 1759 1216 
Q 1759 972 1856 886 
Q 1953 800 2241 800 
L 2816 800 
L 2816 0 
L 1856 0 
Q 1194 0 917 276 
Q 641 553 641 1216 
L 641 2700 
L 84 2700 
L 84 3500 
L 641 3500 
L 641 4494 
L 1759 4494 
z
" transform="scale(0.015625)"/>
      <path id="DejaVuSans-Bold-72" d="M 3138 2547 
Q 2991 2616 2845 2648 
Q 2700 2681 2553 2681 
Q 2122 2681 1889 2404 
Q 1656 2128 1656 1613 
L 1656 0 
L 538 0 
L 538 3500 
L 1656 3500 
L 1656 2925 
Q 1872 3269 2151 3426 
Q 2431 3584 2822 3584 
Q 2878 3584 2943 3579 
Q 3009 3575 3134 3559 
L 3138 2547 
z
" transform="scale(0.015625)"/>
      <path id="DejaVuSans-Bold-69" d="M 538 3500 
L 1656 3500 
L 1656 0 
L 538 0 
L 538 3500 
z
M 538 4863 
L 1656 4863 
L 1656 3950 
L 538 3950 
L 538 4863 
z
" transform="scale(0.015625)"/>
      <path id="DejaVuSans-Bold-76" d="M 97 3500 
L 1216 3500 
L 2088 1081 
L 2956 3500 
L 4078 3500 
L 2700 0 
L 1472 0 
L 97 3500 
z
" transform="scale(0.015625)"/>
      <path id="DejaVuSans-Bold-61" d="M 2106 1575 
Q 1756 1575 1579 1456 
Q 1403 1338 1403 1106 
Q 1403 894 1545 773 
Q 1688 653 1941 653 
Q 2256 653 2472 879 
Q 2688 1106 2688 1447 
L 2688 1575 
L 2106 1575 
z
M 3816 1997 
L 3816 0 
L 2688 0 
L 2688 519 
Q 2463 200 2181 54 
Q 1900 -91 1497 -91 
Q 953 -91 614 226 
Q 275 544 275 1050 
Q 275 1666 698 1953 
Q 1122 2241 2028 2241 
L 2688 2241 
L 2688 2328 
Q 2688 2594 2478 2717 
Q 2269 2841 1825 2841 
Q 1466 2841 1156 2769 
Q 847 2697 581 2553 
L 581 3406 
Q 941 3494 1303 3539 
Q 1666 3584 2028 3584 
Q 2975 3584 3395 3211 
Q 3816 2838 3816 1997 
z
" transform="scale(0.015625)"/>
      <path id="DejaVuSans-Bold-6c" d="M 538 4863 
L 1656 4863 
L 1656 0 
L 538 0 
L 538 4863 
z
" transform="scale(0.015625)"/>
      <path id="DejaVuSans-Bold-20" transform="scale(0.015625)"/>
      <path id="DejaVuSans-Bold-43" d="M 4288 256 
Q 3956 84 3597 -3 
Q 3238 -91 2847 -91 
Q 1681 -91 1000 561 
Q 319 1213 319 2328 
Q 319 3447 1000 4098 
Q 1681 4750 2847 4750 
Q 3238 4750 3597 4662 
Q 3956 4575 4288 4403 
L 4288 3438 
Q 3953 3666 3628 3772 
Q 3303 3878 2944 3878 
Q 2300 3878 1931 3465 
Q 1563 3053 1563 2328 
Q 1563 1606 1931 1193 
Q 2300 781 2944 781 
Q 3303 781 3628 887 
Q 3953 994 4288 1222 
L 4288 256 
z
" transform="scale(0.015625)"/>
      <path id="DejaVuSans-Bold-6f" d="M 2203 2784 
Q 1831 2784 1636 2517 
Q 1441 2250 1441 1747 
Q 1441 1244 1636 976 
Q 1831 709 2203 709 
Q 2569 709 2762 976 
Q 2956 1244 2956 1747 
Q 2956 2250 2762 2517 
Q 2569 2784 2203 2784 
z
M 2203 3584 
Q 3106 3584 3614 3096 
Q 4122 2609 4122 1747 
Q 4122 884 3614 396 
Q 3106 -91 2203 -91 
Q 1297 -91 786 396 
Q 275 884 275 1747 
Q 275 2609 786 3096 
Q 1297 3584 2203 3584 
z
" transform="scale(0.015625)"/>
      <path id="DejaVuSans-Bold-6e" d="M 4056 2131 
L 4056 0 
L 2931 0 
L 2931 347 
L 2931 1631 
Q 2931 2084 2911 2256 
Q 2891 2428 2841 2509 
Q 2775 2619 2662 2680 
Q 2550 2741 2406 2741 
Q 2056 2741 1856 2470 
Q 1656 2200 1656 1722 
L 1656 0 
L 538 0 
L 538 3500 
L 1656 3500 
L 1656 2988 
Q 1909 3294 2193 3439 
Q 2478 3584 2822 3584 
Q 3428 3584 3742 3212 
Q 4056 2841 4056 2131 
z
" transform="scale(0.015625)"/>
      <path id="DejaVuSans-Bold-63" d="M 3366 3391 
L 3366 2478 
Q 3138 2634 2908 2709 
Q 2678 2784 2431 2784 
Q 1963 2784 1702 2511 
Q 1441 2238 1441 1747 
Q 1441 1256 1702 982 
Q 1963 709 2431 709 
Q 2694 709 2930 787 
Q 3166 866 3366 1019 
L 3366 103 
Q 3103 6 2833 -42 
Q 2563 -91 2291 -91 
Q 1344 -91 809 395 
Q 275 881 275 1747 
Q 275 2613 809 3098 
Q 1344 3584 2291 3584 
Q 2566 3584 2833 3536 
Q 3100 3488 3366 3391 
z
" transform="scale(0.015625)"/>
      <path id="DejaVuSans-Bold-3a" d="M 716 3500 
L 1844 3500 
L 1844 2291 
L 716 2291 
L 716 3500 
z
M 716 1209 
L 1844 1209 
L 1844 0 
L 716 0 
L 716 1209 
z
" transform="scale(0.015625)"/>
      <path id="DejaVuSans-Bold-56" d="M 31 4666 
L 1241 4666 
L 2478 1222 
L 3713 4666 
L 4922 4666 
L 3194 0 
L 1759 0 
L 31 4666 
z
" transform="scale(0.015625)"/>
      <path id="DejaVuSans-Bold-73" d="M 3272 3391 
L 3272 2541 
Q 2913 2691 2578 2766 
Q 2244 2841 1947 2841 
Q 1628 2841 1473 2761 
Q 1319 2681 1319 2516 
Q 1319 2381 1436 2309 
Q 1553 2238 1856 2203 
L 2053 2175 
Q 2913 2066 3209 1816 
Q 3506 1566 3506 1031 
Q 3506 472 3093 190 
Q 2681 -91 1863 -91 
Q 1516 -91 1145 -36 
Q 775 19 384 128 
L 384 978 
Q 719 816 1070 734 
Q 1422 653 1784 653 
Q 2113 653 2278 743 
Q 2444 834 2444 1013 
Q 2444 1163 2330 1236 
Q 2216 1309 1875 1350 
L 1678 1375 
Q 931 1469 631 1722 
Q 331 1975 331 2491 
Q 331 3047 712 3315 
Q 1094 3584 1881 3584 
Q 2191 3584 2531 3537 
Q 2872 3491 3272 3391 
z
" transform="scale(0.015625)"/>
      <path id="DejaVuSans-Bold-62" d="M 2400 722 
Q 2759 722 2948 984 
Q 3138 1247 3138 1747 
Q 3138 2247 2948 2509 
Q 2759 2772 2400 2772 
Q 2041 2772 1848 2508 
Q 1656 2244 1656 1747 
Q 1656 1250 1848 986 
Q 2041 722 2400 722 
z
M 1656 2988 
Q 1888 3294 2169 3439 
Q 2450 3584 2816 3584 
Q 3463 3584 3878 3070 
Q 4294 2556 4294 1747 
Q 4294 938 3878 423 
Q 3463 -91 2816 -91 
Q 2450 -91 2169 54 
Q 1888 200 1656 506 
L 1656 0 
L 538 0 
L 538 4863 
L 1656 4863 
L 1656 2988 
z
" transform="scale(0.015625)"/>
      <path id="DejaVuSans-Bold-79" d="M 78 3500 
L 1197 3500 
L 2138 1125 
L 2938 3500 
L 4056 3500 
L 2584 -331 
Q 2363 -916 2067 -1148 
Q 1772 -1381 1288 -1381 
L 641 -1381 
L 641 -647 
L 991 -647 
Q 1275 -647 1404 -556 
Q 1534 -466 1606 -231 
L 1638 -134 
L 78 3500 
z
" transform="scale(0.015625)"/>
      <path id="DejaVuSans-Bold-53" d="M 3834 4519 
L 3834 3531 
Q 3450 3703 3084 3790 
Q 2719 3878 2394 3878 
Q 1963 3878 1756 3759 
Q 1550 3641 1550 3391 
Q 1550 3203 1689 3098 
Q 1828 2994 2194 2919 
L 2706 2816 
Q 3484 2659 3812 2340 
Q 4141 2022 4141 1434 
Q 4141 663 3683 286 
Q 3225 -91 2284 -91 
Q 1841 -91 1394 -6 
Q 947 78 500 244 
L 500 1259 
Q 947 1022 1364 901 
Q 1781 781 2169 781 
Q 2563 781 2772 912 
Q 2981 1044 2981 1288 
Q 2981 1506 2839 1625 
Q 2697 1744 2272 1838 
L 1806 1941 
Q 1106 2091 782 2419 
Q 459 2747 459 3303 
Q 459 4000 909 4375 
Q 1359 4750 2203 4750 
Q 2588 4750 2994 4692 
Q 3400 4634 3834 4519 
z
" transform="scale(0.015625)"/>
      <path id="DejaVuSans-Bold-6d" d="M 3781 2919 
Q 3994 3244 4286 3414 
Q 4578 3584 4928 3584 
Q 5531 3584 5847 3212 
Q 6163 2841 6163 2131 
L 6163 0 
L 5038 0 
L 5038 1825 
Q 5041 1866 5042 1909 
Q 5044 1953 5044 2034 
Q 5044 2406 4934 2573 
Q 4825 2741 4581 2741 
Q 4263 2741 4089 2478 
Q 3916 2216 3909 1719 
L 3909 0 
L 2784 0 
L 2784 1825 
Q 2784 2406 2684 2573 
Q 2584 2741 2328 2741 
Q 2006 2741 1831 2477 
Q 1656 2213 1656 1722 
L 1656 0 
L 531 0 
L 531 3500 
L 1656 3500 
L 1656 2988 
Q 1863 3284 2130 3434 
Q 2397 3584 2719 3584 
Q 3081 3584 3359 3409 
Q 3638 3234 3781 2919 
z
" transform="scale(0.015625)"/>
      <path id="DejaVuSans-Bold-44" d="M 1791 3756 
L 1791 909 
L 2222 909 
Q 2959 909 3348 1275 
Q 3738 1641 3738 2338 
Q 3738 3031 3350 3393 
Q 2963 3756 2222 3756 
L 1791 3756 
z
M 588 4666 
L 1856 4666 
Q 2919 4666 3439 4514 
Q 3959 4363 4331 4000 
Q 4659 3684 4818 3271 
Q 4978 2859 4978 2338 
Q 4978 1809 4818 1395 
Q 4659 981 4331 666 
Q 3956 303 3431 151 
Q 2906 0 1856 0 
L 588 0 
L 588 4666 
z
" transform="scale(0.015625)"/>
      <path id="DejaVuSans-Bold-75" d="M 500 1363 
L 500 3500 
L 1625 3500 
L 1625 3150 
Q 1625 2866 1622 2436 
Q 1619 2006 1619 1863 
Q 1619 1441 1641 1255 
Q 1663 1069 1716 984 
Q 1784 875 1895 815 
Q 2006 756 2150 756 
Q 2500 756 2700 1025 
Q 2900 1294 2900 1772 
L 2900 3500 
L 4019 3500 
L 4019 0 
L 2900 0 
L 2900 506 
Q 2647 200 2364 54 
Q 2081 -91 1741 -91 
Q 1134 -91 817 281 
Q 500 653 500 1363 
z
" transform="scale(0.015625)"/>
     </defs>
     <use xlink:href="#DejaVuSans-Bold-52"/>
     <use xlink:href="#DejaVuSans-Bold-65" transform="translate(77.001953 0)"/>
     <use xlink:href="#DejaVuSans-Bold-74" transform="translate(144.824219 0)"/>
     <use xlink:href="#DejaVuSans-Bold-72" transform="translate(192.626953 0)"/>
     <use xlink:href="#DejaVuSans-Bold-69" transform="translate(241.943359 0)"/>
     <use xlink:href="#DejaVuSans-Bold-65" transform="translate(276.220703 0)"/>
     <use xlink:href="#DejaVuSans-Bold-76" transform="translate(344.042969 0)"/>
     <use xlink:href="#DejaVuSans-Bold-61" transform="translate(409.228516 0)"/>
     <use xlink:href="#DejaVuSans-Bold-6c" transform="translate(476.708984 0)"/>
     <use xlink:href="#DejaVuSans-Bold-20" transform="translate(510.986328 0)"/>
     <use xlink:href="#DejaVuSans-Bold-43" transform="translate(545.800781 0)"/>
     <use xlink:href="#DejaVuSans-Bold-6f" transform="translate(619.189453 0)"/>
     <use xlink:href="#DejaVuSans-Bold-6e" transform="translate(687.890625 0)"/>
     <use xlink:href="#DejaVuSans-Bold-63" transform="translate(759.082031 0)"/>
     <use xlink:href="#DejaVuSans-Bold-65" transform="translate(818.359375 0)"/>
     <use xlink:href="#DejaVuSans-Bold-6e" transform="translate(886.181641 0)"/>
     <use xlink:href="#DejaVuSans-Bold-74" transform="translate(957.373047 0)"/>
     <use xlink:href="#DejaVuSans-Bold-72" transform="translate(1005.175781 0)"/>
     <use xlink:href="#DejaVuSans-Bold-61" transform="translate(1054.492188 0)"/>
     <use xlink:href="#DejaVuSans-Bold-74" transform="translate(1121.972656 0)"/>
     <use xlink:href="#DejaVuSans-Bold-69" transform="translate(1169.775391 0)"/>
     <use xlink:href="#DejaVuSans-Bold-6f" transform="translate(1204.052734 0)"/>
     <use xlink:href="#DejaVuSans-Bold-6e" transform="translate(1272.753906 0)"/>
     <use xlink:href="#DejaVuSans-Bold-3a" transform="translate(1343.945312 0)"/>
     <use xlink:href="#DejaVuSans-Bold-20" transform="translate(1383.935547 0)"/>
     <use xlink:href="#DejaVuSans-Bold-56" transform="translate(1418.75 0)"/>
     <use xlink:href="#DejaVuSans-Bold-69" transform="translate(1494.392578 0)"/>
     <use xlink:href="#DejaVuSans-Bold-73" transform="translate(1528.669922 0)"/>
     <use xlink:href="#DejaVuSans-Bold-69" transform="translate(1588.191406 0)"/>
     <use xlink:href="#DejaVuSans-Bold-62" transform="translate(1622.46875 0)"/>
     <use xlink:href="#DejaVuSans-Bold-69" transform="translate(1694.050781 0)"/>
     <use xlink:href="#DejaVuSans-Bold-6c" transform="translate(1728.328125 0)"/>
     <use xlink:href="#DejaVuSans-Bold-69" transform="translate(1762.605469 0)"/>
     <use xlink:href="#DejaVuSans-Bold-74" transform="translate(1796.882812 0)"/>
     <use xlink:href="#DejaVuSans-Bold-79" transform="translate(1844.685547 0)"/>
     <use xlink:href="#DejaVuSans-Bold-20" transform="translate(1909.871094 0)"/>
     <use xlink:href="#DejaVuSans-Bold-43" transform="translate(1944.685547 0)"/>
     <use xlink:href="#DejaVuSans-Bold-6f" transform="translate(2018.074219 0)"/>
     <use xlink:href="#DejaVuSans-Bold-6e" transform="translate(2086.775391 0)"/>
     <use xlink:href="#DejaVuSans-Bold-63" transform="translate(2157.966797 0)"/>
     <use xlink:href="#DejaVuSans-Bold-65" transform="translate(2217.244141 0)"/>
     <use xlink:href="#DejaVuSans-Bold-6e" transform="translate(2285.066406 0)"/>
     <use xlink:href="#DejaVuSans-Bold-74" transform="translate(2356.257812 0)"/>
     <use xlink:href="#DejaVuSans-Bold-72" transform="translate(2404.060547 0)"/>
     <use xlink:href="#DejaVuSans-Bold-61" transform="translate(2453.376953 0)"/>
     <use xlink:href="#DejaVuSans-Bold-74" transform="translate(2520.857422 0)"/>
     <use xlink:href="#DejaVuSans-Bold-65" transform="translate(2568.660156 0)"/>
     <use xlink:href="#DejaVuSans-Bold-73" transform="translate(2636.482422 0)"/>
     <use xlink:href="#DejaVuSans-Bold-20" transform="translate(2696.003906 0)"/>
     <use xlink:href="#DejaVuSans-Bold-69" transform="translate(2730.818359 0)"/>
     <use xlink:href="#DejaVuSans-Bold-6e" transform="translate(2765.095703 0)"/>
     <use xlink:href="#DejaVuSans-Bold-20" transform="translate(2836.287109 0)"/>
     <use xlink:href="#DejaVuSans-Bold-61" transform="translate(2871.101562 0)"/>
     <use xlink:href="#DejaVuSans-Bold-20" transform="translate(2938.582031 0)"/>
     <use xlink:href="#DejaVuSans-Bold-53" transform="translate(2973.396484 0)"/>
     <use xlink:href="#DejaVuSans-Bold-6d" transform="translate(3045.417969 0)"/>
     <use xlink:href="#DejaVuSans-Bold-61" transform="translate(3149.617188 0)"/>
     <use xlink:href="#DejaVuSans-Bold-6c" transform="translate(3217.097656 0)"/>
     <use xlink:href="#DejaVuSans-Bold-6c" transform="translate(3251.375 0)"/>
     <use xlink:href="#DejaVuSans-Bold-20" transform="translate(3285.652344 0)"/>
     <use xlink:href="#DejaVuSans-Bold-44" transform="translate(3320.466797 0)"/>
     <use xlink:href="#DejaVuSans-Bold-6f" transform="translate(3403.474609 0)"/>
     <use xlink:href="#DejaVuSans-Bold-63" transform="translate(3472.175781 0)"/>
     <use xlink:href="#DejaVuSans-Bold-75" transform="translate(3531.453125 0)"/>
     <use xlink:href="#DejaVuSans-Bold-6d" transform="translate(3602.644531 0)"/>
     <use xlink:href="#DejaVuSans-Bold-65" transform="translate(3706.84375 0)"/>
     <use xlink:href="#DejaVuSans-Bold-6e" transform="translate(3774.666016 0)"/>
     <use xlink:href="#DejaVuSans-Bold-74" transform="translate(3845.857422 0)"/>
     <use xlink:href="#DejaVuSans-Bold-20" transform="translate(3893.660156 0)"/>
     <use xlink:href="#DejaVuSans-Bold-43" transform="translate(3928.474609 0)"/>
     <use xlink:href="#DejaVuSans-Bold-6f" transform="translate(4001.863281 0)"/>
     <use xlink:href="#DejaVuSans-Bold-72" transform="translate(4070.564453 0)"/>
     <use xlink:href="#DejaVuSans-Bold-65" transform="translate(4119.880859 0)"/>
    </g>
   </g>
  </g>
 </g>
 <defs>
  <clipPath id="pd3c34756e3">
   <rect x="108.671671" y="35.837812" width="665.673546" height="220.784864"/>
  </clipPath>
 </defs>
</svg>
