<?xml version="1.0" encoding="utf-8" standalone="no"?>
<!DOCTYPE svg PUBLIC "-//W3C//DTD SVG 1.1//EN"
  "http://www.w3.org/Graphics/SVG/1.1/DTD/svg11.dtd">
<svg xmlns:xlink="http://www.w3.org/1999/xlink" width="748.20125pt" height="459.546406pt" viewBox="0 0 748.20125 459.546406" xmlns="http://www.w3.org/2000/svg" version="1.1">
 <metadata>
  <rdf:RDF xmlns:dc="http://purl.org/dc/elements/1.1/" xmlns:cc="http://creativecommons.org/ns#" xmlns:rdf="http://www.w3.org/1999/02/22-rdf-syntax-ns#">
   <cc:Work>
    <dc:type rdf:resource="http://purl.org/dc/dcmitype/StillImage"/>
    <dc:date>2026-04-27T16:39:05.819942</dc:date>
    <dc:format>image/svg+xml</dc:format>
    <dc:creator>
     <cc:Agent>
      <dc:title>Matplotlib v3.10.8, https://matplotlib.org/</dc:title>
     </cc:Agent>
    </dc:creator>
   </cc:Work>
  </rdf:RDF>
 </metadata>
 <defs>
  <style type="text/css">*{stroke-linejoin: round; stroke-linecap: butt}</style>
 </defs>
 <g id="figure_1">
  <g id="patch_1">
   <path d="M 0 459.546406 
L 748.20125 459.546406 
L 748.20125 0 
L 0 0 
z
" style="fill: #ffffff"/>
  </g>
  <g id="axes_1">
   <g id="patch_2">
    <path d="M 68.00125 422.957969 
L 741.00125 422.957969 
L 741.00125 32.077969 
L 68.00125 32.077969 
z
" style="fill: #ffffff"/>
   </g>
   <g id="matplotlib.axis_1">
    <g id="xtick_1">
     <g id="line2d_1">
      <path d="M 68.00125 422.957969 
L 68.00125 32.077969 
" clip-path="url(#p4eb29fb124)" style="fill: none; stroke: #b0b0b0; stroke-opacity: 0.15; stroke-width: 0.8; stroke-linecap: square"/>
     </g>
     <g id="line2d_2">
      <defs>
       <path id="m5673d6165a" d="M 0 0 
L 0 3.5 
" style="stroke: #000000; stroke-width: 0.8"/>
      </defs>
      <g>
       <use xlink:href="#m5673d6165a" x="68.00125" y="422.957969" style="stroke: #000000; stroke-width: 0.8"/>
      </g>
     </g>
     <g id="text_1">
      <!-- 0 -->
      <g transform="translate(65.138125 436.796562) scale(0.09 -0.09)">
       <defs>
        <path id="DejaVuSans-30" d="M 2034 4250 
Q 1547 4250 1301 3770 
Q 1056 3291 1056 2328 
Q 1056 1369 1301 889 
Q 1547 409 2034 409 
Q 2525 409 2770 889 
Q 3016 1369 3016 2328 
Q 3016 3291 2770 3770 
Q 2525 4250 2034 4250 
z
M 2034 4750 
Q 2819 4750 3233 4129 
Q 3647 3509 3647 2328 
Q 3647 1150 3233 529 
Q 2819 -91 2034 -91 
Q 1250 -91 836 529 
Q 422 1150 422 2328 
Q 422 3509 836 4129 
Q 1250 4750 2034 4750 
z
" transform="scale(0.015625)"/>
       </defs>
       <use xlink:href="#DejaVuSans-30"/>
      </g>
     </g>
    </g>
    <g id="xtick_2">
     <g id="line2d_3">
      <path d="M 152.33709 422.957969 
L 152.33709 32.077969 
" clip-path="url(#p4eb29fb124)" style="fill: none; stroke: #b0b0b0; stroke-opacity: 0.15; stroke-width: 0.8; stroke-linecap: square"/>
     </g>
     <g id="line2d_4">
      <g>
       <use xlink:href="#m5673d6165a" x="152.33709" y="422.957969" style="stroke: #000000; stroke-width: 0.8"/>
      </g>
     </g>
     <g id="text_2">
      <!-- 5 -->
      <g transform="translate(149.473965 436.796562) scale(0.09 -0.09)">
       <defs>
        <path id="DejaVuSans-35" d="M 691 4666 
L 3169 4666 
L 3169 4134 
L 1269 4134 
L 1269 2991 
Q 1406 3038 1543 3061 
Q 1681 3084 1819 3084 
Q 2600 3084 3056 2656 
Q 3513 2228 3513 1497 
Q 3513 744 3044 326 
Q 2575 -91 1722 -91 
Q 1428 -91 1123 -41 
Q 819 9 494 109 
L 494 744 
Q 775 591 1075 516 
Q 1375 441 1709 441 
Q 2250 441 2565 725 
Q 2881 1009 2881 1497 
Q 2881 1984 2565 2268 
Q 2250 2553 1709 2553 
Q 1456 2553 1204 2497 
Q 953 2441 691 2322 
L 691 4666 
z
" transform="scale(0.015625)"/>
       </defs>
       <use xlink:href="#DejaVuSans-35"/>
      </g>
     </g>
    </g>
    <g id="xtick_3">
     <g id="line2d_5">
      <path d="M 236.672929 422.957969 
L 236.672929 32.077969 
" clip-path="url(#p4eb29fb124)" style="fill: none; stroke: #b0b0b0; stroke-opacity: 0.15; stroke-width: 0.8; stroke-linecap: square"/>
     </g>
     <g id="line2d_6">
      <g>
       <use xlink:href="#m5673d6165a" x="236.672929" y="422.957969" style="stroke: #000000; stroke-width: 0.8"/>
      </g>
     </g>
     <g id="text_3">
      <!-- 10 -->
      <g transform="translate(230.946679 436.796562) scale(0.09 -0.09)">
       <defs>
        <path id="DejaVuSans-31" d="M 794 531 
L 1825 531 
L 1825 4091 
L 703 3866 
L 703 4441 
L 1819 4666 
L 2450 4666 
L 2450 531 
L 3481 531 
L 3481 0 
L 794 0 
L 794 531 
z
" transform="scale(0.015625)"/>
       </defs>
       <use xlink:href="#DejaVuSans-31"/>
       <use xlink:href="#DejaVuSans-30" transform="translate(63.623047 0)"/>
      </g>
     </g>
    </g>
    <g id="xtick_4">
     <g id="line2d_7">
      <path d="M 321.008769 422.957969 
L 321.008769 32.077969 
" clip-path="url(#p4eb29fb124)" style="fill: none; stroke: #b0b0b0; stroke-opacity: 0.15; stroke-width: 0.8; stroke-linecap: square"/>
     </g>
     <g id="line2d_8">
      <g>
       <use xlink:href="#m5673d6165a" x="321.008769" y="422.957969" style="stroke: #000000; stroke-width: 0.8"/>
      </g>
     </g>
     <g id="text_4">
      <!-- 15 -->
      <g transform="translate(315.282519 436.796562) scale(0.09 -0.09)">
       <use xlink:href="#DejaVuSans-31"/>
       <use xlink:href="#DejaVuSans-35" transform="translate(63.623047 0)"/>
      </g>
     </g>
    </g>
    <g id="xtick_5">
     <g id="line2d_9">
      <path d="M 405.344608 422.957969 
L 405.344608 32.077969 
" clip-path="url(#p4eb29fb124)" style="fill: none; stroke: #b0b0b0; stroke-opacity: 0.15; stroke-width: 0.8; stroke-linecap: square"/>
     </g>
     <g id="line2d_10">
      <g>
       <use xlink:href="#m5673d6165a" x="405.344608" y="422.957969" style="stroke: #000000; stroke-width: 0.8"/>
      </g>
     </g>
     <g id="text_5">
      <!-- 20 -->
      <g transform="translate(399.618358 436.796562) scale(0.09 -0.09)">
       <defs>
        <path id="DejaVuSans-32" d="M 1228 531 
L 3431 531 
L 3431 0 
L 469 0 
L 469 531 
Q 828 903 1448 1529 
Q 2069 2156 2228 2338 
Q 2531 2678 2651 2914 
Q 2772 3150 2772 3378 
Q 2772 3750 2511 3984 
Q 2250 4219 1831 4219 
Q 1534 4219 1204 4116 
Q 875 4013 500 3803 
L 500 4441 
Q 881 4594 1212 4672 
Q 1544 4750 1819 4750 
Q 2544 4750 2975 4387 
Q 3406 4025 3406 3419 
Q 3406 3131 3298 2873 
Q 3191 2616 2906 2266 
Q 2828 2175 2409 1742 
Q 1991 1309 1228 531 
z
" transform="scale(0.015625)"/>
       </defs>
       <use xlink:href="#DejaVuSans-32"/>
       <use xlink:href="#DejaVuSans-30" transform="translate(63.623047 0)"/>
      </g>
     </g>
    </g>
    <g id="xtick_6">
     <g id="line2d_11">
      <path d="M 489.680448 422.957969 
L 489.680448 32.077969 
" clip-path="url(#p4eb29fb124)" style="fill: none; stroke: #b0b0b0; stroke-opacity: 0.15; stroke-width: 0.8; stroke-linecap: square"/>
     </g>
     <g id="line2d_12">
      <g>
       <use xlink:href="#m5673d6165a" x="489.680448" y="422.957969" style="stroke: #000000; stroke-width: 0.8"/>
      </g>
     </g>
     <g id="text_6">
      <!-- 25 -->
      <g transform="translate(483.954198 436.796562) scale(0.09 -0.09)">
       <use xlink:href="#DejaVuSans-32"/>
       <use xlink:href="#DejaVuSans-35" transform="translate(63.623047 0)"/>
      </g>
     </g>
    </g>
    <g id="xtick_7">
     <g id="line2d_13">
      <path d="M 574.016288 422.957969 
L 574.016288 32.077969 
" clip-path="url(#p4eb29fb124)" style="fill: none; stroke: #b0b0b0; stroke-opacity: 0.15; stroke-width: 0.8; stroke-linecap: square"/>
     </g>
     <g id="line2d_14">
      <g>
       <use xlink:href="#m5673d6165a" x="574.016288" y="422.957969" style="stroke: #000000; stroke-width: 0.8"/>
      </g>
     </g>
     <g id="text_7">
      <!-- 30 -->
      <g transform="translate(568.290038 436.796562) scale(0.09 -0.09)">
       <defs>
        <path id="DejaVuSans-33" d="M 2597 2516 
Q 3050 2419 3304 2112 
Q 3559 1806 3559 1356 
Q 3559 666 3084 287 
Q 2609 -91 1734 -91 
Q 1441 -91 1130 -33 
Q 819 25 488 141 
L 488 750 
Q 750 597 1062 519 
Q 1375 441 1716 441 
Q 2309 441 2620 675 
Q 2931 909 2931 1356 
Q 2931 1769 2642 2001 
Q 2353 2234 1838 2234 
L 1294 2234 
L 1294 2753 
L 1863 2753 
Q 2328 2753 2575 2939 
Q 2822 3125 2822 3475 
Q 2822 3834 2567 4026 
Q 2313 4219 1838 4219 
Q 1578 4219 1281 4162 
Q 984 4106 628 3988 
L 628 4550 
Q 988 4650 1302 4700 
Q 1616 4750 1894 4750 
Q 2613 4750 3031 4423 
Q 3450 4097 3450 3541 
Q 3450 3153 3228 2886 
Q 3006 2619 2597 2516 
z
" transform="scale(0.015625)"/>
       </defs>
       <use xlink:href="#DejaVuSans-33"/>
       <use xlink:href="#DejaVuSans-30" transform="translate(63.623047 0)"/>
      </g>
     </g>
    </g>
    <g id="xtick_8">
     <g id="line2d_15">
      <path d="M 658.352127 422.957969 
L 658.352127 32.077969 
" clip-path="url(#p4eb29fb124)" style="fill: none; stroke: #b0b0b0; stroke-opacity: 0.15; stroke-width: 0.8; stroke-linecap: square"/>
     </g>
     <g id="line2d_16">
      <g>
       <use xlink:href="#m5673d6165a" x="658.352127" y="422.957969" style="stroke: #000000; stroke-width: 0.8"/>
      </g>
     </g>
     <g id="text_8">
      <!-- 35 -->
      <g transform="translate(652.625877 436.796562) scale(0.09 -0.09)">
       <use xlink:href="#DejaVuSans-33"/>
       <use xlink:href="#DejaVuSans-35" transform="translate(63.623047 0)"/>
      </g>
     </g>
    </g>
    <g id="text_9">
     <!-- Retrieval frequency -->
     <g style="fill: #111111" transform="translate(355.616094 450.266719) scale(0.1 -0.1)">
      <defs>
       <path id="DejaVuSans-52" d="M 2841 2188 
Q 3044 2119 3236 1894 
Q 3428 1669 3622 1275 
L 4263 0 
L 3584 0 
L 2988 1197 
Q 2756 1666 2539 1819 
Q 2322 1972 1947 1972 
L 1259 1972 
L 1259 0 
L 628 0 
L 628 4666 
L 2053 4666 
Q 2853 4666 3247 4331 
Q 3641 3997 3641 3322 
Q 3641 2881 3436 2590 
Q 3231 2300 2841 2188 
z
M 1259 4147 
L 1259 2491 
L 2053 2491 
Q 2509 2491 2742 2702 
Q 2975 2913 2975 3322 
Q 2975 3731 2742 3939 
Q 2509 4147 2053 4147 
L 1259 4147 
z
" transform="scale(0.015625)"/>
       <path id="DejaVuSans-65" d="M 3597 1894 
L 3597 1613 
L 953 1613 
Q 991 1019 1311 708 
Q 1631 397 2203 397 
Q 2534 397 2845 478 
Q 3156 559 3463 722 
L 3463 178 
Q 3153 47 2828 -22 
Q 2503 -91 2169 -91 
Q 1331 -91 842 396 
Q 353 884 353 1716 
Q 353 2575 817 3079 
Q 1281 3584 2069 3584 
Q 2775 3584 3186 3129 
Q 3597 2675 3597 1894 
z
M 3022 2063 
Q 3016 2534 2758 2815 
Q 2500 3097 2075 3097 
Q 1594 3097 1305 2825 
Q 1016 2553 972 2059 
L 3022 2063 
z
" transform="scale(0.015625)"/>
       <path id="DejaVuSans-74" d="M 1172 4494 
L 1172 3500 
L 2356 3500 
L 2356 3053 
L 1172 3053 
L 1172 1153 
Q 1172 725 1289 603 
Q 1406 481 1766 481 
L 2356 481 
L 2356 0 
L 1766 0 
Q 1100 0 847 248 
Q 594 497 594 1153 
L 594 3053 
L 172 3053 
L 172 3500 
L 594 3500 
L 594 4494 
L 1172 4494 
z
" transform="scale(0.015625)"/>
       <path id="DejaVuSans-72" d="M 2631 2963 
Q 2534 3019 2420 3045 
Q 2306 3072 2169 3072 
Q 1681 3072 1420 2755 
Q 1159 2438 1159 1844 
L 1159 0 
L 581 0 
L 581 3500 
L 1159 3500 
L 1159 2956 
Q 1341 3275 1631 3429 
Q 1922 3584 2338 3584 
Q 2397 3584 2469 3576 
Q 2541 3569 2628 3553 
L 2631 2963 
z
" transform="scale(0.015625)"/>
       <path id="DejaVuSans-69" d="M 603 3500 
L 1178 3500 
L 1178 0 
L 603 0 
L 603 3500 
z
M 603 4863 
L 1178 4863 
L 1178 4134 
L 603 4134 
L 603 4863 
z
" transform="scale(0.015625)"/>
       <path id="DejaVuSans-76" d="M 191 3500 
L 800 3500 
L 1894 563 
L 2988 3500 
L 3597 3500 
L 2284 0 
L 1503 0 
L 191 3500 
z
" transform="scale(0.015625)"/>
       <path id="DejaVuSans-61" d="M 2194 1759 
Q 1497 1759 1228 1600 
Q 959 1441 959 1056 
Q 959 750 1161 570 
Q 1363 391 1709 391 
Q 2188 391 2477 730 
Q 2766 1069 2766 1631 
L 2766 1759 
L 2194 1759 
z
M 3341 1997 
L 3341 0 
L 2766 0 
L 2766 531 
Q 2569 213 2275 61 
Q 1981 -91 1556 -91 
Q 1019 -91 701 211 
Q 384 513 384 1019 
Q 384 1609 779 1909 
Q 1175 2209 1959 2209 
L 2766 2209 
L 2766 2266 
Q 2766 2663 2505 2880 
Q 2244 3097 1772 3097 
Q 1472 3097 1187 3025 
Q 903 2953 641 2809 
L 641 3341 
Q 956 3463 1253 3523 
Q 1550 3584 1831 3584 
Q 2591 3584 2966 3190 
Q 3341 2797 3341 1997 
z
" transform="scale(0.015625)"/>
       <path id="DejaVuSans-6c" d="M 603 4863 
L 1178 4863 
L 1178 0 
L 603 0 
L 603 4863 
z
" transform="scale(0.015625)"/>
       <path id="DejaVuSans-20" transform="scale(0.015625)"/>
       <path id="DejaVuSans-66" d="M 2375 4863 
L 2375 4384 
L 1825 4384 
Q 1516 4384 1395 4259 
Q 1275 4134 1275 3809 
L 1275 3500 
L 2222 3500 
L 2222 3053 
L 1275 3053 
L 1275 0 
L 697 0 
L 697 3053 
L 147 3053 
L 147 3500 
L 697 3500 
L 697 3744 
Q 697 4328 969 4595 
Q 1241 4863 1831 4863 
L 2375 4863 
z
" transform="scale(0.015625)"/>
       <path id="DejaVuSans-71" d="M 947 1747 
Q 947 1113 1208 752 
Q 1469 391 1925 391 
Q 2381 391 2643 752 
Q 2906 1113 2906 1747 
Q 2906 2381 2643 2742 
Q 2381 3103 1925 3103 
Q 1469 3103 1208 2742 
Q 947 2381 947 1747 
z
M 2906 525 
Q 2725 213 2448 61 
Q 2172 -91 1784 -91 
Q 1150 -91 751 415 
Q 353 922 353 1747 
Q 353 2572 751 3078 
Q 1150 3584 1784 3584 
Q 2172 3584 2448 3432 
Q 2725 3281 2906 2969 
L 2906 3500 
L 3481 3500 
L 3481 -1331 
L 2906 -1331 
L 2906 525 
z
" transform="scale(0.015625)"/>
       <path id="DejaVuSans-75" d="M 544 1381 
L 544 3500 
L 1119 3500 
L 1119 1403 
Q 1119 906 1312 657 
Q 1506 409 1894 409 
Q 2359 409 2629 706 
Q 2900 1003 2900 1516 
L 2900 3500 
L 3475 3500 
L 3475 0 
L 2900 0 
L 2900 538 
Q 2691 219 2414 64 
Q 2138 -91 1772 -91 
Q 1169 -91 856 284 
Q 544 659 544 1381 
z
M 1991 3584 
L 1991 3584 
z
" transform="scale(0.015625)"/>
       <path id="DejaVuSans-6e" d="M 3513 2113 
L 3513 0 
L 2938 0 
L 2938 2094 
Q 2938 2591 2744 2837 
Q 2550 3084 2163 3084 
Q 1697 3084 1428 2787 
Q 1159 2491 1159 1978 
L 1159 0 
L 581 0 
L 581 3500 
L 1159 3500 
L 1159 2956 
Q 1366 3272 1645 3428 
Q 1925 3584 2291 3584 
Q 2894 3584 3203 3211 
Q 3513 2838 3513 2113 
z
" transform="scale(0.015625)"/>
       <path id="DejaVuSans-63" d="M 3122 3366 
L 3122 2828 
Q 2878 2963 2633 3030 
Q 2388 3097 2138 3097 
Q 1578 3097 1268 2742 
Q 959 2388 959 1747 
Q 959 1106 1268 751 
Q 1578 397 2138 397 
Q 2388 397 2633 464 
Q 2878 531 3122 666 
L 3122 134 
Q 2881 22 2623 -34 
Q 2366 -91 2075 -91 
Q 1284 -91 818 406 
Q 353 903 353 1747 
Q 353 2603 823 3093 
Q 1294 3584 2113 3584 
Q 2378 3584 2631 3529 
Q 2884 3475 3122 3366 
z
" transform="scale(0.015625)"/>
       <path id="DejaVuSans-79" d="M 2059 -325 
Q 1816 -950 1584 -1140 
Q 1353 -1331 966 -1331 
L 506 -1331 
L 506 -850 
L 844 -850 
Q 1081 -850 1212 -737 
Q 1344 -625 1503 -206 
L 1606 56 
L 191 3500 
L 800 3500 
L 1894 763 
L 2988 3500 
L 3597 3500 
L 2059 -325 
z
" transform="scale(0.015625)"/>
      </defs>
      <use xlink:href="#DejaVuSans-52"/>
      <use xlink:href="#DejaVuSans-65" transform="translate(64.982422 0)"/>
      <use xlink:href="#DejaVuSans-74" transform="translate(126.505859 0)"/>
      <use xlink:href="#DejaVuSans-72" transform="translate(165.714844 0)"/>
      <use xlink:href="#DejaVuSans-69" transform="translate(206.828125 0)"/>
      <use xlink:href="#DejaVuSans-65" transform="translate(234.611328 0)"/>
      <use xlink:href="#DejaVuSans-76" transform="translate(296.134766 0)"/>
      <use xlink:href="#DejaVuSans-61" transform="translate(355.314453 0)"/>
      <use xlink:href="#DejaVuSans-6c" transform="translate(416.59375 0)"/>
      <use xlink:href="#DejaVuSans-20" transform="translate(444.376953 0)"/>
      <use xlink:href="#DejaVuSans-66" transform="translate(476.164062 0)"/>
      <use xlink:href="#DejaVuSans-72" transform="translate(511.369141 0)"/>
      <use xlink:href="#DejaVuSans-65" transform="translate(550.232422 0)"/>
      <use xlink:href="#DejaVuSans-71" transform="translate(611.755859 0)"/>
      <use xlink:href="#DejaVuSans-75" transform="translate(675.232422 0)"/>
      <use xlink:href="#DejaVuSans-65" transform="translate(738.611328 0)"/>
      <use xlink:href="#DejaVuSans-6e" transform="translate(800.134766 0)"/>
      <use xlink:href="#DejaVuSans-63" transform="translate(863.513672 0)"/>
      <use xlink:href="#DejaVuSans-79" transform="translate(918.494141 0)"/>
     </g>
    </g>
   </g>
   <g id="matplotlib.axis_2">
    <g id="ytick_1">
     <g id="line2d_17">
      <defs>
       <path id="m0552223d4c" d="M 0 0 
L -3.5 0 
" style="stroke: #000000; stroke-width: 0.8"/>
      </defs>
      <g>
       <use xlink:href="#m0552223d4c" x="68.00125" y="395.586765" style="stroke: #000000; stroke-width: 0.8"/>
      </g>
     </g>
     <g id="text_10">
      <!-- ccom_41 -->
      <g transform="translate(20.878125 398.880905) scale(0.09 -0.09)">
       <defs>
        <path id="DejaVuSans-6f" d="M 1959 3097 
Q 1497 3097 1228 2736 
Q 959 2375 959 1747 
Q 959 1119 1226 758 
Q 1494 397 1959 397 
Q 2419 397 2687 759 
Q 2956 1122 2956 1747 
Q 2956 2369 2687 2733 
Q 2419 3097 1959 3097 
z
M 1959 3584 
Q 2709 3584 3137 3096 
Q 3566 2609 3566 1747 
Q 3566 888 3137 398 
Q 2709 -91 1959 -91 
Q 1206 -91 779 398 
Q 353 888 353 1747 
Q 353 2609 779 3096 
Q 1206 3584 1959 3584 
z
" transform="scale(0.015625)"/>
        <path id="DejaVuSans-6d" d="M 3328 2828 
Q 3544 3216 3844 3400 
Q 4144 3584 4550 3584 
Q 5097 3584 5394 3201 
Q 5691 2819 5691 2113 
L 5691 0 
L 5113 0 
L 5113 2094 
Q 5113 2597 4934 2840 
Q 4756 3084 4391 3084 
Q 3944 3084 3684 2787 
Q 3425 2491 3425 1978 
L 3425 0 
L 2847 0 
L 2847 2094 
Q 2847 2600 2669 2842 
Q 2491 3084 2119 3084 
Q 1678 3084 1418 2786 
Q 1159 2488 1159 1978 
L 1159 0 
L 581 0 
L 581 3500 
L 1159 3500 
L 1159 2956 
Q 1356 3278 1631 3431 
Q 1906 3584 2284 3584 
Q 2666 3584 2933 3390 
Q 3200 3197 3328 2828 
z
" transform="scale(0.015625)"/>
        <path id="DejaVuSans-5f" d="M 3263 -1063 
L 3263 -1509 
L -63 -1509 
L -63 -1063 
L 3263 -1063 
z
" transform="scale(0.015625)"/>
        <path id="DejaVuSans-34" d="M 2419 4116 
L 825 1625 
L 2419 1625 
L 2419 4116 
z
M 2253 4666 
L 3047 4666 
L 3047 1625 
L 3713 1625 
L 3713 1100 
L 3047 1100 
L 3047 0 
L 2419 0 
L 2419 1100 
L 313 1100 
L 313 1709 
L 2253 4666 
z
" transform="scale(0.015625)"/>
       </defs>
       <use xlink:href="#DejaVuSans-63"/>
       <use xlink:href="#DejaVuSans-63" transform="translate(54.980469 0)"/>
       <use xlink:href="#DejaVuSans-6f" transform="translate(109.960938 0)"/>
       <use xlink:href="#DejaVuSans-6d" transform="translate(171.142578 0)"/>
       <use xlink:href="#DejaVuSans-5f" transform="translate(268.554688 0)"/>
       <use xlink:href="#DejaVuSans-34" transform="translate(318.554688 0)"/>
       <use xlink:href="#DejaVuSans-31" transform="translate(382.177734 0)"/>
      </g>
     </g>
    </g>
    <g id="ytick_2">
     <g id="line2d_18">
      <g>
       <use xlink:href="#m0552223d4c" x="68.00125" y="371.576937" style="stroke: #000000; stroke-width: 0.8"/>
      </g>
     </g>
     <g id="text_11">
      <!-- ccom_37 -->
      <g transform="translate(20.878125 374.916781) scale(0.09 -0.09)">
       <defs>
        <path id="DejaVuSans-37" d="M 525 4666 
L 3525 4666 
L 3525 4397 
L 1831 0 
L 1172 0 
L 2766 4134 
L 525 4134 
L 525 4666 
z
" transform="scale(0.015625)"/>
       </defs>
       <use xlink:href="#DejaVuSans-63"/>
       <use xlink:href="#DejaVuSans-63" transform="translate(54.980469 0)"/>
       <use xlink:href="#DejaVuSans-6f" transform="translate(109.960938 0)"/>
       <use xlink:href="#DejaVuSans-6d" transform="translate(171.142578 0)"/>
       <use xlink:href="#DejaVuSans-5f" transform="translate(268.554688 0)"/>
       <use xlink:href="#DejaVuSans-33" transform="translate(318.554688 0)"/>
       <use xlink:href="#DejaVuSans-37" transform="translate(382.177734 0)"/>
      </g>
     </g>
    </g>
    <g id="ytick_3">
     <g id="line2d_19">
      <g>
       <use xlink:href="#m0552223d4c" x="68.00125" y="347.567109" style="stroke: #000000; stroke-width: 0.8"/>
      </g>
     </g>
     <g id="text_12">
      <!-- ccom_40 -->
      <g transform="translate(20.878125 350.906953) scale(0.09 -0.09)">
       <use xlink:href="#DejaVuSans-63"/>
       <use xlink:href="#DejaVuSans-63" transform="translate(54.980469 0)"/>
       <use xlink:href="#DejaVuSans-6f" transform="translate(109.960938 0)"/>
       <use xlink:href="#DejaVuSans-6d" transform="translate(171.142578 0)"/>
       <use xlink:href="#DejaVuSans-5f" transform="translate(268.554688 0)"/>
       <use xlink:href="#DejaVuSans-34" transform="translate(318.554688 0)"/>
       <use xlink:href="#DejaVuSans-30" transform="translate(382.177734 0)"/>
      </g>
     </g>
    </g>
    <g id="ytick_4">
     <g id="line2d_20">
      <g>
       <use xlink:href="#m0552223d4c" x="68.00125" y="323.557281" style="stroke: #000000; stroke-width: 0.8"/>
      </g>
     </g>
     <g id="text_13">
      <!-- ccom_14 -->
      <g transform="translate(20.878125 326.851421) scale(0.09 -0.09)">
       <use xlink:href="#DejaVuSans-63"/>
       <use xlink:href="#DejaVuSans-63" transform="translate(54.980469 0)"/>
       <use xlink:href="#DejaVuSans-6f" transform="translate(109.960938 0)"/>
       <use xlink:href="#DejaVuSans-6d" transform="translate(171.142578 0)"/>
       <use xlink:href="#DejaVuSans-5f" transform="translate(268.554688 0)"/>
       <use xlink:href="#DejaVuSans-31" transform="translate(318.554688 0)"/>
       <use xlink:href="#DejaVuSans-34" transform="translate(382.177734 0)"/>
      </g>
     </g>
    </g>
    <g id="ytick_5">
     <g id="line2d_21">
      <g>
       <use xlink:href="#m0552223d4c" x="68.00125" y="299.547453" style="stroke: #000000; stroke-width: 0.8"/>
      </g>
     </g>
     <g id="text_14">
      <!-- ccom_11 -->
      <g transform="translate(20.878125 302.841593) scale(0.09 -0.09)">
       <use xlink:href="#DejaVuSans-63"/>
       <use xlink:href="#DejaVuSans-63" transform="translate(54.980469 0)"/>
       <use xlink:href="#DejaVuSans-6f" transform="translate(109.960938 0)"/>
       <use xlink:href="#DejaVuSans-6d" transform="translate(171.142578 0)"/>
       <use xlink:href="#DejaVuSans-5f" transform="translate(268.554688 0)"/>
       <use xlink:href="#DejaVuSans-31" transform="translate(318.554688 0)"/>
       <use xlink:href="#DejaVuSans-31" transform="translate(382.177734 0)"/>
      </g>
     </g>
    </g>
    <g id="ytick_6">
     <g id="line2d_22">
      <g>
       <use xlink:href="#m0552223d4c" x="68.00125" y="275.537625" style="stroke: #000000; stroke-width: 0.8"/>
      </g>
     </g>
     <g id="text_15">
      <!-- ccom_35 -->
      <g transform="translate(20.878125 278.877469) scale(0.09 -0.09)">
       <use xlink:href="#DejaVuSans-63"/>
       <use xlink:href="#DejaVuSans-63" transform="translate(54.980469 0)"/>
       <use xlink:href="#DejaVuSans-6f" transform="translate(109.960938 0)"/>
       <use xlink:href="#DejaVuSans-6d" transform="translate(171.142578 0)"/>
       <use xlink:href="#DejaVuSans-5f" transform="translate(268.554688 0)"/>
       <use xlink:href="#DejaVuSans-33" transform="translate(318.554688 0)"/>
       <use xlink:href="#DejaVuSans-35" transform="translate(382.177734 0)"/>
      </g>
     </g>
    </g>
    <g id="ytick_7">
     <g id="line2d_23">
      <g>
       <use xlink:href="#m0552223d4c" x="68.00125" y="251.527797" style="stroke: #000000; stroke-width: 0.8"/>
      </g>
     </g>
     <g id="text_16">
      <!-- ccom_42 -->
      <g transform="translate(20.878125 254.867641) scale(0.09 -0.09)">
       <use xlink:href="#DejaVuSans-63"/>
       <use xlink:href="#DejaVuSans-63" transform="translate(54.980469 0)"/>
       <use xlink:href="#DejaVuSans-6f" transform="translate(109.960938 0)"/>
       <use xlink:href="#DejaVuSans-6d" transform="translate(171.142578 0)"/>
       <use xlink:href="#DejaVuSans-5f" transform="translate(268.554688 0)"/>
       <use xlink:href="#DejaVuSans-34" transform="translate(318.554688 0)"/>
       <use xlink:href="#DejaVuSans-32" transform="translate(382.177734 0)"/>
      </g>
     </g>
    </g>
    <g id="ytick_8">
     <g id="line2d_24">
      <g>
       <use xlink:href="#m0552223d4c" x="68.00125" y="227.517969" style="stroke: #000000; stroke-width: 0.8"/>
      </g>
     </g>
     <g id="text_17">
      <!-- ccom_43 -->
      <g transform="translate(20.878125 230.857812) scale(0.09 -0.09)">
       <use xlink:href="#DejaVuSans-63"/>
       <use xlink:href="#DejaVuSans-63" transform="translate(54.980469 0)"/>
       <use xlink:href="#DejaVuSans-6f" transform="translate(109.960938 0)"/>
       <use xlink:href="#DejaVuSans-6d" transform="translate(171.142578 0)"/>
       <use xlink:href="#DejaVuSans-5f" transform="translate(268.554688 0)"/>
       <use xlink:href="#DejaVuSans-34" transform="translate(318.554688 0)"/>
       <use xlink:href="#DejaVuSans-33" transform="translate(382.177734 0)"/>
      </g>
     </g>
    </g>
    <g id="ytick_9">
     <g id="line2d_25">
      <g>
       <use xlink:href="#m0552223d4c" x="68.00125" y="203.508141" style="stroke: #000000; stroke-width: 0.8"/>
      </g>
     </g>
     <g id="text_18">
      <!-- ccom_16 -->
      <g transform="translate(20.878125 206.847984) scale(0.09 -0.09)">
       <defs>
        <path id="DejaVuSans-36" d="M 2113 2584 
Q 1688 2584 1439 2293 
Q 1191 2003 1191 1497 
Q 1191 994 1439 701 
Q 1688 409 2113 409 
Q 2538 409 2786 701 
Q 3034 994 3034 1497 
Q 3034 2003 2786 2293 
Q 2538 2584 2113 2584 
z
M 3366 4563 
L 3366 3988 
Q 3128 4100 2886 4159 
Q 2644 4219 2406 4219 
Q 1781 4219 1451 3797 
Q 1122 3375 1075 2522 
Q 1259 2794 1537 2939 
Q 1816 3084 2150 3084 
Q 2853 3084 3261 2657 
Q 3669 2231 3669 1497 
Q 3669 778 3244 343 
Q 2819 -91 2113 -91 
Q 1303 -91 875 529 
Q 447 1150 447 2328 
Q 447 3434 972 4092 
Q 1497 4750 2381 4750 
Q 2619 4750 2861 4703 
Q 3103 4656 3366 4563 
z
" transform="scale(0.015625)"/>
       </defs>
       <use xlink:href="#DejaVuSans-63"/>
       <use xlink:href="#DejaVuSans-63" transform="translate(54.980469 0)"/>
       <use xlink:href="#DejaVuSans-6f" transform="translate(109.960938 0)"/>
       <use xlink:href="#DejaVuSans-6d" transform="translate(171.142578 0)"/>
       <use xlink:href="#DejaVuSans-5f" transform="translate(268.554688 0)"/>
       <use xlink:href="#DejaVuSans-31" transform="translate(318.554688 0)"/>
       <use xlink:href="#DejaVuSans-36" transform="translate(382.177734 0)"/>
      </g>
     </g>
    </g>
    <g id="ytick_10">
     <g id="line2d_26">
      <g>
       <use xlink:href="#m0552223d4c" x="68.00125" y="179.498313" style="stroke: #000000; stroke-width: 0.8"/>
      </g>
     </g>
     <g id="text_19">
      <!-- ccom_32 -->
      <g transform="translate(20.878125 182.838156) scale(0.09 -0.09)">
       <use xlink:href="#DejaVuSans-63"/>
       <use xlink:href="#DejaVuSans-63" transform="translate(54.980469 0)"/>
       <use xlink:href="#DejaVuSans-6f" transform="translate(109.960938 0)"/>
       <use xlink:href="#DejaVuSans-6d" transform="translate(171.142578 0)"/>
       <use xlink:href="#DejaVuSans-5f" transform="translate(268.554688 0)"/>
       <use xlink:href="#DejaVuSans-33" transform="translate(318.554688 0)"/>
       <use xlink:href="#DejaVuSans-32" transform="translate(382.177734 0)"/>
      </g>
     </g>
    </g>
    <g id="ytick_11">
     <g id="line2d_27">
      <g>
       <use xlink:href="#m0552223d4c" x="68.00125" y="155.488485" style="stroke: #000000; stroke-width: 0.8"/>
      </g>
     </g>
     <g id="text_20">
      <!-- ccom_13 -->
      <g transform="translate(20.878125 158.828328) scale(0.09 -0.09)">
       <use xlink:href="#DejaVuSans-63"/>
       <use xlink:href="#DejaVuSans-63" transform="translate(54.980469 0)"/>
       <use xlink:href="#DejaVuSans-6f" transform="translate(109.960938 0)"/>
       <use xlink:href="#DejaVuSans-6d" transform="translate(171.142578 0)"/>
       <use xlink:href="#DejaVuSans-5f" transform="translate(268.554688 0)"/>
       <use xlink:href="#DejaVuSans-31" transform="translate(318.554688 0)"/>
       <use xlink:href="#DejaVuSans-33" transform="translate(382.177734 0)"/>
      </g>
     </g>
    </g>
    <g id="ytick_12">
     <g id="line2d_28">
      <g>
       <use xlink:href="#m0552223d4c" x="68.00125" y="131.478657" style="stroke: #000000; stroke-width: 0.8"/>
      </g>
     </g>
     <g id="text_21">
      <!-- ccom_45 -->
      <g transform="translate(20.878125 134.772797) scale(0.09 -0.09)">
       <use xlink:href="#DejaVuSans-63"/>
       <use xlink:href="#DejaVuSans-63" transform="translate(54.980469 0)"/>
       <use xlink:href="#DejaVuSans-6f" transform="translate(109.960938 0)"/>
       <use xlink:href="#DejaVuSans-6d" transform="translate(171.142578 0)"/>
       <use xlink:href="#DejaVuSans-5f" transform="translate(268.554688 0)"/>
       <use xlink:href="#DejaVuSans-34" transform="translate(318.554688 0)"/>
       <use xlink:href="#DejaVuSans-35" transform="translate(382.177734 0)"/>
      </g>
     </g>
    </g>
    <g id="ytick_13">
     <g id="line2d_29">
      <g>
       <use xlink:href="#m0552223d4c" x="68.00125" y="107.468829" style="stroke: #000000; stroke-width: 0.8"/>
      </g>
     </g>
     <g id="text_22">
      <!-- ccom_29 -->
      <g transform="translate(20.878125 110.808672) scale(0.09 -0.09)">
       <defs>
        <path id="DejaVuSans-39" d="M 703 97 
L 703 672 
Q 941 559 1184 500 
Q 1428 441 1663 441 
Q 2288 441 2617 861 
Q 2947 1281 2994 2138 
Q 2813 1869 2534 1725 
Q 2256 1581 1919 1581 
Q 1219 1581 811 2004 
Q 403 2428 403 3163 
Q 403 3881 828 4315 
Q 1253 4750 1959 4750 
Q 2769 4750 3195 4129 
Q 3622 3509 3622 2328 
Q 3622 1225 3098 567 
Q 2575 -91 1691 -91 
Q 1453 -91 1209 -44 
Q 966 3 703 97 
z
M 1959 2075 
Q 2384 2075 2632 2365 
Q 2881 2656 2881 3163 
Q 2881 3666 2632 3958 
Q 2384 4250 1959 4250 
Q 1534 4250 1286 3958 
Q 1038 3666 1038 3163 
Q 1038 2656 1286 2365 
Q 1534 2075 1959 2075 
z
" transform="scale(0.015625)"/>
       </defs>
       <use xlink:href="#DejaVuSans-63"/>
       <use xlink:href="#DejaVuSans-63" transform="translate(54.980469 0)"/>
       <use xlink:href="#DejaVuSans-6f" transform="translate(109.960938 0)"/>
       <use xlink:href="#DejaVuSans-6d" transform="translate(171.142578 0)"/>
       <use xlink:href="#DejaVuSans-5f" transform="translate(268.554688 0)"/>
       <use xlink:href="#DejaVuSans-32" transform="translate(318.554688 0)"/>
       <use xlink:href="#DejaVuSans-39" transform="translate(382.177734 0)"/>
      </g>
     </g>
    </g>
    <g id="ytick_14">
     <g id="line2d_30">
      <g>
       <use xlink:href="#m0552223d4c" x="68.00125" y="83.459001" style="stroke: #000000; stroke-width: 0.8"/>
      </g>
     </g>
     <g id="text_23">
      <!-- ccom_08 -->
      <g transform="translate(20.878125 86.798844) scale(0.09 -0.09)">
       <defs>
        <path id="DejaVuSans-38" d="M 2034 2216 
Q 1584 2216 1326 1975 
Q 1069 1734 1069 1313 
Q 1069 891 1326 650 
Q 1584 409 2034 409 
Q 2484 409 2743 651 
Q 3003 894 3003 1313 
Q 3003 1734 2745 1975 
Q 2488 2216 2034 2216 
z
M 1403 2484 
Q 997 2584 770 2862 
Q 544 3141 544 3541 
Q 544 4100 942 4425 
Q 1341 4750 2034 4750 
Q 2731 4750 3128 4425 
Q 3525 4100 3525 3541 
Q 3525 3141 3298 2862 
Q 3072 2584 2669 2484 
Q 3125 2378 3379 2068 
Q 3634 1759 3634 1313 
Q 3634 634 3220 271 
Q 2806 -91 2034 -91 
Q 1263 -91 848 271 
Q 434 634 434 1313 
Q 434 1759 690 2068 
Q 947 2378 1403 2484 
z
M 1172 3481 
Q 1172 3119 1398 2916 
Q 1625 2713 2034 2713 
Q 2441 2713 2670 2916 
Q 2900 3119 2900 3481 
Q 2900 3844 2670 4047 
Q 2441 4250 2034 4250 
Q 1625 4250 1398 4047 
Q 1172 3844 1172 3481 
z
" transform="scale(0.015625)"/>
       </defs>
       <use xlink:href="#DejaVuSans-63"/>
       <use xlink:href="#DejaVuSans-63" transform="translate(54.980469 0)"/>
       <use xlink:href="#DejaVuSans-6f" transform="translate(109.960938 0)"/>
       <use xlink:href="#DejaVuSans-6d" transform="translate(171.142578 0)"/>
       <use xlink:href="#DejaVuSans-5f" transform="translate(268.554688 0)"/>
       <use xlink:href="#DejaVuSans-30" transform="translate(318.554688 0)"/>
       <use xlink:href="#DejaVuSans-38" transform="translate(382.177734 0)"/>
      </g>
     </g>
    </g>
    <g id="ytick_15">
     <g id="line2d_31">
      <g>
       <use xlink:href="#m0552223d4c" x="68.00125" y="59.449173" style="stroke: #000000; stroke-width: 0.8"/>
      </g>
     </g>
     <g id="text_24">
      <!-- ccom_50 -->
      <g transform="translate(20.878125 62.789016) scale(0.09 -0.09)">
       <use xlink:href="#DejaVuSans-63"/>
       <use xlink:href="#DejaVuSans-63" transform="translate(54.980469 0)"/>
       <use xlink:href="#DejaVuSans-6f" transform="translate(109.960938 0)"/>
       <use xlink:href="#DejaVuSans-6d" transform="translate(171.142578 0)"/>
       <use xlink:href="#DejaVuSans-5f" transform="translate(268.554688 0)"/>
       <use xlink:href="#DejaVuSans-35" transform="translate(318.554688 0)"/>
       <use xlink:href="#DejaVuSans-30" transform="translate(382.177734 0)"/>
      </g>
     </g>
    </g>
    <g id="text_25">
     <!-- Retrieved document ID -->
     <g style="fill: #111111" transform="translate(14.798438 285.265625) rotate(-90) scale(0.1 -0.1)">
      <defs>
       <path id="DejaVuSans-64" d="M 2906 2969 
L 2906 4863 
L 3481 4863 
L 3481 0 
L 2906 0 
L 2906 525 
Q 2725 213 2448 61 
Q 2172 -91 1784 -91 
Q 1150 -91 751 415 
Q 353 922 353 1747 
Q 353 2572 751 3078 
Q 1150 3584 1784 3584 
Q 2172 3584 2448 3432 
Q 2725 3281 2906 2969 
z
M 947 1747 
Q 947 1113 1208 752 
Q 1469 391 1925 391 
Q 2381 391 2643 752 
Q 2906 1113 2906 1747 
Q 2906 2381 2643 2742 
Q 2381 3103 1925 3103 
Q 1469 3103 1208 2742 
Q 947 2381 947 1747 
z
" transform="scale(0.015625)"/>
       <path id="DejaVuSans-49" d="M 628 4666 
L 1259 4666 
L 1259 0 
L 628 0 
L 628 4666 
z
" transform="scale(0.015625)"/>
       <path id="DejaVuSans-44" d="M 1259 4147 
L 1259 519 
L 2022 519 
Q 2988 519 3436 956 
Q 3884 1394 3884 2338 
Q 3884 3275 3436 3711 
Q 2988 4147 2022 4147 
L 1259 4147 
z
M 628 4666 
L 1925 4666 
Q 3281 4666 3915 4102 
Q 4550 3538 4550 2338 
Q 4550 1131 3912 565 
Q 3275 0 1925 0 
L 628 0 
L 628 4666 
z
" transform="scale(0.015625)"/>
      </defs>
      <use xlink:href="#DejaVuSans-52"/>
      <use xlink:href="#DejaVuSans-65" transform="translate(64.982422 0)"/>
      <use xlink:href="#DejaVuSans-74" transform="translate(126.505859 0)"/>
      <use xlink:href="#DejaVuSans-72" transform="translate(165.714844 0)"/>
      <use xlink:href="#DejaVuSans-69" transform="translate(206.828125 0)"/>
      <use xlink:href="#DejaVuSans-65" transform="translate(234.611328 0)"/>
      <use xlink:href="#DejaVuSans-76" transform="translate(296.134766 0)"/>
      <use xlink:href="#DejaVuSans-65" transform="translate(355.314453 0)"/>
      <use xlink:href="#DejaVuSans-64" transform="translate(416.837891 0)"/>
      <use xlink:href="#DejaVuSans-20" transform="translate(480.314453 0)"/>
      <use xlink:href="#DejaVuSans-64" transform="translate(512.101562 0)"/>
      <use xlink:href="#DejaVuSans-6f" transform="translate(575.578125 0)"/>
      <use xlink:href="#DejaVuSans-63" transform="translate(636.759766 0)"/>
      <use xlink:href="#DejaVuSans-75" transform="translate(691.740234 0)"/>
      <use xlink:href="#DejaVuSans-6d" transform="translate(755.119141 0)"/>
      <use xlink:href="#DejaVuSans-65" transform="translate(852.53125 0)"/>
      <use xlink:href="#DejaVuSans-6e" transform="translate(914.054688 0)"/>
      <use xlink:href="#DejaVuSans-74" transform="translate(977.433594 0)"/>
      <use xlink:href="#DejaVuSans-20" transform="translate(1016.642578 0)"/>
      <use xlink:href="#DejaVuSans-49" transform="translate(1048.429688 0)"/>
      <use xlink:href="#DejaVuSans-44" transform="translate(1077.921875 0)"/>
     </g>
    </g>
   </g>
   <g id="patch_3">
    <path d="M 68.00125 405.190696 
L 101.735586 405.190696 
L 101.735586 385.982834 
L 68.00125 385.982834 
z
" clip-path="url(#p4eb29fb124)" style="fill: #b0b0b0; stroke: #333333; stroke-linejoin: miter"/>
   </g>
   <g id="patch_4">
    <path d="M 68.00125 381.180868 
L 118.602754 381.180868 
L 118.602754 361.973006 
L 68.00125 361.973006 
z
" clip-path="url(#p4eb29fb124)" style="fill: #b0b0b0; stroke: #333333; stroke-linejoin: miter"/>
   </g>
   <g id="patch_5">
    <path d="M 68.00125 357.17104 
L 118.602754 357.17104 
L 118.602754 337.963178 
L 68.00125 337.963178 
z
" clip-path="url(#p4eb29fb124)" style="fill: #b0b0b0; stroke: #333333; stroke-linejoin: miter"/>
   </g>
   <g id="patch_6">
    <path d="M 68.00125 333.161212 
L 118.602754 333.161212 
L 118.602754 313.95335 
L 68.00125 313.95335 
z
" clip-path="url(#p4eb29fb124)" style="fill: #b0b0b0; stroke: #333333; stroke-linejoin: miter"/>
   </g>
   <g id="patch_7">
    <path d="M 68.00125 309.151384 
L 135.469922 309.151384 
L 135.469922 289.943522 
L 68.00125 289.943522 
z
" clip-path="url(#p4eb29fb124)" style="fill: #b0b0b0; stroke: #333333; stroke-linejoin: miter"/>
   </g>
   <g id="patch_8">
    <path d="M 68.00125 285.141556 
L 135.469922 285.141556 
L 135.469922 265.933694 
L 68.00125 265.933694 
z
" clip-path="url(#p4eb29fb124)" style="fill: #b0b0b0; stroke: #333333; stroke-linejoin: miter"/>
   </g>
   <g id="patch_9">
    <path d="M 68.00125 261.131728 
L 135.469922 261.131728 
L 135.469922 241.923866 
L 68.00125 241.923866 
z
" clip-path="url(#p4eb29fb124)" style="fill: #b0b0b0; stroke: #333333; stroke-linejoin: miter"/>
   </g>
   <g id="patch_10">
    <path d="M 68.00125 237.1219 
L 152.33709 237.1219 
L 152.33709 217.914038 
L 68.00125 217.914038 
z
" clip-path="url(#p4eb29fb124)" style="fill: #b0b0b0; stroke: #333333; stroke-linejoin: miter"/>
   </g>
   <g id="patch_11">
    <path d="M 68.00125 213.112072 
L 169.204258 213.112072 
L 169.204258 193.90421 
L 68.00125 193.90421 
z
" clip-path="url(#p4eb29fb124)" style="fill: #b0b0b0; stroke: #333333; stroke-linejoin: miter"/>
   </g>
   <g id="patch_12">
    <path d="M 68.00125 189.102244 
L 169.204258 189.102244 
L 169.204258 169.894382 
L 68.00125 169.894382 
z
" clip-path="url(#p4eb29fb124)" style="fill: #b0b0b0; stroke: #333333; stroke-linejoin: miter"/>
   </g>
   <g id="patch_13">
    <path d="M 68.00125 165.092416 
L 186.071425 165.092416 
L 186.071425 145.884554 
L 68.00125 145.884554 
z
" clip-path="url(#p4eb29fb124)" style="fill: #b0b0b0; stroke: #333333; stroke-linejoin: miter"/>
   </g>
   <g id="patch_14">
    <path d="M 68.00125 141.082588 
L 202.938593 141.082588 
L 202.938593 121.874726 
L 68.00125 121.874726 
z
" clip-path="url(#p4eb29fb124)" style="fill: #b0b0b0; stroke: #333333; stroke-linejoin: miter"/>
   </g>
   <g id="patch_15">
    <path d="M 68.00125 117.07276 
L 321.008769 117.07276 
L 321.008769 97.864897 
L 68.00125 97.864897 
z
" clip-path="url(#p4eb29fb124)" style="fill: #b0b0b0; stroke: #333333; stroke-linejoin: miter"/>
   </g>
   <g id="patch_16">
    <path d="M 68.00125 93.062932 
L 624.617791 93.062932 
L 624.617791 73.855069 
L 68.00125 73.855069 
z
" clip-path="url(#p4eb29fb124)" style="fill: #c0392b; stroke: #333333; stroke-linejoin: miter"/>
   </g>
   <g id="patch_17">
    <path d="M 68.00125 69.053104 
L 708.953631 69.053104 
L 708.953631 49.845241 
L 68.00125 49.845241 
z
" clip-path="url(#p4eb29fb124)" style="fill: #c0392b; stroke: #333333; stroke-linejoin: miter"/>
   </g>
   <g id="patch_18">
    <path d="M 68.00125 422.957969 
L 68.00125 32.077969 
" style="fill: none; stroke: #333333; stroke-width: 0.8; stroke-linejoin: miter; stroke-linecap: square"/>
   </g>
   <g id="patch_19">
    <path d="M 68.00125 422.957969 
L 741.00125 422.957969 
" style="fill: none; stroke: #333333; stroke-width: 0.8; stroke-linejoin: miter; stroke-linecap: square"/>
   </g>
   <g id="text_26">
    <!-- 2 -->
    <g style="fill: #111111" transform="translate(114.554633 397.932234) scale(0.085 -0.085)">
     <use xlink:href="#DejaVuSans-32"/>
    </g>
   </g>
   <g id="text_27">
    <!-- 3 -->
    <g style="fill: #111111" transform="translate(131.421801 373.922406) scale(0.085 -0.085)">
     <use xlink:href="#DejaVuSans-33"/>
    </g>
   </g>
   <g id="text_28">
    <!-- 3 -->
    <g style="fill: #111111" transform="translate(131.421801 349.912578) scale(0.085 -0.085)">
     <use xlink:href="#DejaVuSans-33"/>
    </g>
   </g>
   <g id="text_29">
    <!-- 3 -->
    <g style="fill: #111111" transform="translate(131.421801 325.90275) scale(0.085 -0.085)">
     <use xlink:href="#DejaVuSans-33"/>
    </g>
   </g>
   <g id="text_30">
    <!-- 4 -->
    <g style="fill: #111111" transform="translate(148.288969 301.892922) scale(0.085 -0.085)">
     <use xlink:href="#DejaVuSans-34"/>
    </g>
   </g>
   <g id="text_31">
    <!-- 4 -->
    <g style="fill: #111111" transform="translate(148.288969 277.883094) scale(0.085 -0.085)">
     <use xlink:href="#DejaVuSans-34"/>
    </g>
   </g>
   <g id="text_32">
    <!-- 4 -->
    <g style="fill: #111111" transform="translate(148.288969 253.873266) scale(0.085 -0.085)">
     <use xlink:href="#DejaVuSans-34"/>
    </g>
   </g>
   <g id="text_33">
    <!-- 5 -->
    <g style="fill: #111111" transform="translate(165.156137 229.863437) scale(0.085 -0.085)">
     <use xlink:href="#DejaVuSans-35"/>
    </g>
   </g>
   <g id="text_34">
    <!-- 6 -->
    <g style="fill: #111111" transform="translate(182.023305 205.853609) scale(0.085 -0.085)">
     <use xlink:href="#DejaVuSans-36"/>
    </g>
   </g>
   <g id="text_35">
    <!-- 6 -->
    <g style="fill: #111111" transform="translate(182.023305 181.843781) scale(0.085 -0.085)">
     <use xlink:href="#DejaVuSans-36"/>
    </g>
   </g>
   <g id="text_36">
    <!-- 7 -->
    <g style="fill: #111111" transform="translate(198.890473 157.833953) scale(0.085 -0.085)">
     <use xlink:href="#DejaVuSans-37"/>
    </g>
   </g>
   <g id="text_37">
    <!-- 8 -->
    <g style="fill: #111111" transform="translate(215.757641 133.824125) scale(0.085 -0.085)">
     <use xlink:href="#DejaVuSans-38"/>
    </g>
   </g>
   <g id="text_38">
    <!-- 15 -->
    <g style="fill: #111111" transform="translate(333.827816 109.814297) scale(0.085 -0.085)">
     <use xlink:href="#DejaVuSans-31"/>
     <use xlink:href="#DejaVuSans-35" transform="translate(63.623047 0)"/>
    </g>
   </g>
   <g id="text_39">
    <!-- 33 -->
    <g style="fill: #111111" transform="translate(637.436839 85.804469) scale(0.085 -0.085)">
     <use xlink:href="#DejaVuSans-33"/>
     <use xlink:href="#DejaVuSans-33" transform="translate(63.623047 0)"/>
    </g>
   </g>
   <g id="text_40">
    <!-- 38 -->
    <g style="fill: #111111" transform="translate(721.772679 61.794641) scale(0.085 -0.085)">
     <use xlink:href="#DejaVuSans-33"/>
     <use xlink:href="#DejaVuSans-38" transform="translate(63.623047 0)"/>
    </g>
   </g>
   <g id="text_41">
    <!-- Retrieval Distribution: Visibility Concentrates in a Small Document Core -->
    <g style="fill: #111111" transform="translate(140.437734 17.077969) scale(0.13 -0.13)">
     <defs>
      <path id="DejaVuSans-Bold-52" d="M 2297 2597 
Q 2675 2597 2839 2737 
Q 3003 2878 3003 3200 
Q 3003 3519 2839 3656 
Q 2675 3794 2297 3794 
L 1791 3794 
L 1791 2597 
L 2297 2597 
z
M 1791 1766 
L 1791 0 
L 588 0 
L 588 4666 
L 2425 4666 
Q 3347 4666 3776 4356 
Q 4206 4047 4206 3378 
Q 4206 2916 3982 2619 
Q 3759 2322 3309 2181 
Q 3556 2125 3751 1926 
Q 3947 1728 4147 1325 
L 4800 0 
L 3519 0 
L 2950 1159 
Q 2778 1509 2601 1637 
Q 2425 1766 2131 1766 
L 1791 1766 
z
" transform="scale(0.015625)"/>
      <path id="DejaVuSans-Bold-65" d="M 4031 1759 
L 4031 1441 
L 1416 1441 
Q 1456 1047 1700 850 
Q 1944 653 2381 653 
Q 2734 653 3104 758 
Q 3475 863 3866 1075 
L 3866 213 
Q 3469 63 3072 -14 
Q 2675 -91 2278 -91 
Q 1328 -91 801 392 
Q 275 875 275 1747 
Q 275 2603 792 3093 
Q 1309 3584 2216 3584 
Q 3041 3584 3536 3087 
Q 4031 2591 4031 1759 
z
M 2881 2131 
Q 2881 2450 2695 2645 
Q 2509 2841 2209 2841 
Q 1884 2841 1681 2658 
Q 1478 2475 1428 2131 
L 2881 2131 
z
" transform="scale(0.015625)"/>
      <path id="DejaVuSans-Bold-74" d="M 1759 4494 
L 1759 3500 
L 2913 3500 
L 2913 2700 
L 1759 2700 
L 1759 1216 
Q 1759 972 1856 886 
Q 1953 800 2241 800 
L 2816 800 
L 2816 0 
L 1856 0 
Q 1194 0 917 276 
Q 641 553 641 1216 
L 641 2700 
L 84 2700 
L 84 3500 
L 641 3500 
L 641 4494 
L 1759 4494 
z
" transform="scale(0.015625)"/>
      <path id="DejaVuSans-Bold-72" d="M 3138 2547 
Q 2991 2616 2845 2648 
Q 2700 2681 2553 2681 
Q 2122 2681 1889 2404 
Q 1656 2128 1656 1613 
L 1656 0 
L 538 0 
L 538 3500 
L 1656 3500 
L 1656 2925 
Q 1872 3269 2151 3426 
Q 2431 3584 2822 3584 
Q 2878 3584 2943 3579 
Q 3009 3575 3134 3559 
L 3138 2547 
z
" transform="scale(0.015625)"/>
      <path id="DejaVuSans-Bold-69" d="M 538 3500 
L 1656 3500 
L 1656 0 
L 538 0 
L 538 3500 
z
M 538 4863 
L 1656 4863 
L 1656 3950 
L 538 3950 
L 538 4863 
z
" transform="scale(0.015625)"/>
      <path id="DejaVuSans-Bold-76" d="M 97 3500 
L 1216 3500 
L 2088 1081 
L 2956 3500 
L 4078 3500 
L 2700 0 
L 1472 0 
L 97 3500 
z
" transform="scale(0.015625)"/>
      <path id="DejaVuSans-Bold-61" d="M 2106 1575 
Q 1756 1575 1579 1456 
Q 1403 1338 1403 1106 
Q 1403 894 1545 773 
Q 1688 653 1941 653 
Q 2256 653 2472 879 
Q 2688 1106 2688 1447 
L 2688 1575 
L 2106 1575 
z
M 3816 1997 
L 3816 0 
L 2688 0 
L 2688 519 
Q 2463 200 2181 54 
Q 1900 -91 1497 -91 
Q 953 -91 614 226 
Q 275 544 275 1050 
Q 275 1666 698 1953 
Q 1122 2241 2028 2241 
L 2688 2241 
L 2688 2328 
Q 2688 2594 2478 2717 
Q 2269 2841 1825 2841 
Q 1466 2841 1156 2769 
Q 847 2697 581 2553 
L 581 3406 
Q 941 3494 1303 3539 
Q 1666 3584 2028 3584 
Q 2975 3584 3395 3211 
Q 3816 2838 3816 1997 
z
" transform="scale(0.015625)"/>
      <path id="DejaVuSans-Bold-6c" d="M 538 4863 
L 1656 4863 
L 1656 0 
L 538 0 
L 538 4863 
z
" transform="scale(0.015625)"/>
      <path id="DejaVuSans-Bold-20" transform="scale(0.015625)"/>
      <path id="DejaVuSans-Bold-44" d="M 1791 3756 
L 1791 909 
L 2222 909 
Q 2959 909 3348 1275 
Q 3738 1641 3738 2338 
Q 3738 3031 3350 3393 
Q 2963 3756 2222 3756 
L 1791 3756 
z
M 588 4666 
L 1856 4666 
Q 2919 4666 3439 4514 
Q 3959 4363 4331 4000 
Q 4659 3684 4818 3271 
Q 4978 2859 4978 2338 
Q 4978 1809 4818 1395 
Q 4659 981 4331 666 
Q 3956 303 3431 151 
Q 2906 0 1856 0 
L 588 0 
L 588 4666 
z
" transform="scale(0.015625)"/>
      <path id="DejaVuSans-Bold-73" d="M 3272 3391 
L 3272 2541 
Q 2913 2691 2578 2766 
Q 2244 2841 1947 2841 
Q 1628 2841 1473 2761 
Q 1319 2681 1319 2516 
Q 1319 2381 1436 2309 
Q 1553 2238 1856 2203 
L 2053 2175 
Q 2913 2066 3209 1816 
Q 3506 1566 3506 1031 
Q 3506 472 3093 190 
Q 2681 -91 1863 -91 
Q 1516 -91 1145 -36 
Q 775 19 384 128 
L 384 978 
Q 719 816 1070 734 
Q 1422 653 1784 653 
Q 2113 653 2278 743 
Q 2444 834 2444 1013 
Q 2444 1163 2330 1236 
Q 2216 1309 1875 1350 
L 1678 1375 
Q 931 1469 631 1722 
Q 331 1975 331 2491 
Q 331 3047 712 3315 
Q 1094 3584 1881 3584 
Q 2191 3584 2531 3537 
Q 2872 3491 3272 3391 
z
" transform="scale(0.015625)"/>
      <path id="DejaVuSans-Bold-62" d="M 2400 722 
Q 2759 722 2948 984 
Q 3138 1247 3138 1747 
Q 3138 2247 2948 2509 
Q 2759 2772 2400 2772 
Q 2041 2772 1848 2508 
Q 1656 2244 1656 1747 
Q 1656 1250 1848 986 
Q 2041 722 2400 722 
z
M 1656 2988 
Q 1888 3294 2169 3439 
Q 2450 3584 2816 3584 
Q 3463 3584 3878 3070 
Q 4294 2556 4294 1747 
Q 4294 938 3878 423 
Q 3463 -91 2816 -91 
Q 2450 -91 2169 54 
Q 1888 200 1656 506 
L 1656 0 
L 538 0 
L 538 4863 
L 1656 4863 
L 1656 2988 
z
" transform="scale(0.015625)"/>
      <path id="DejaVuSans-Bold-75" d="M 500 1363 
L 500 3500 
L 1625 3500 
L 1625 3150 
Q 1625 2866 1622 2436 
Q 1619 2006 1619 1863 
Q 1619 1441 1641 1255 
Q 1663 1069 1716 984 
Q 1784 875 1895 815 
Q 2006 756 2150 756 
Q 2500 756 2700 1025 
Q 2900 1294 2900 1772 
L 2900 3500 
L 4019 3500 
L 4019 0 
L 2900 0 
L 2900 506 
Q 2647 200 2364 54 
Q 2081 -91 1741 -91 
Q 1134 -91 817 281 
Q 500 653 500 1363 
z
" transform="scale(0.015625)"/>
      <path id="DejaVuSans-Bold-6f" d="M 2203 2784 
Q 1831 2784 1636 2517 
Q 1441 2250 1441 1747 
Q 1441 1244 1636 976 
Q 1831 709 2203 709 
Q 2569 709 2762 976 
Q 2956 1244 2956 1747 
Q 2956 2250 2762 2517 
Q 2569 2784 2203 2784 
z
M 2203 3584 
Q 3106 3584 3614 3096 
Q 4122 2609 4122 1747 
Q 4122 884 3614 396 
Q 3106 -91 2203 -91 
Q 1297 -91 786 396 
Q 275 884 275 1747 
Q 275 2609 786 3096 
Q 1297 3584 2203 3584 
z
" transform="scale(0.015625)"/>
      <path id="DejaVuSans-Bold-6e" d="M 4056 2131 
L 4056 0 
L 2931 0 
L 2931 347 
L 2931 1631 
Q 2931 2084 2911 2256 
Q 2891 2428 2841 2509 
Q 2775 2619 2662 2680 
Q 2550 2741 2406 2741 
Q 2056 2741 1856 2470 
Q 1656 2200 1656 1722 
L 1656 0 
L 538 0 
L 538 3500 
L 1656 3500 
L 1656 2988 
Q 1909 3294 2193 3439 
Q 2478 3584 2822 3584 
Q 3428 3584 3742 3212 
Q 4056 2841 4056 2131 
z
" transform="scale(0.015625)"/>
      <path id="DejaVuSans-Bold-3a" d="M 716 3500 
L 1844 3500 
L 1844 2291 
L 716 2291 
L 716 3500 
z
M 716 1209 
L 1844 1209 
L 1844 0 
L 716 0 
L 716 1209 
z
" transform="scale(0.015625)"/>
      <path id="DejaVuSans-Bold-56" d="M 31 4666 
L 1241 4666 
L 2478 1222 
L 3713 4666 
L 4922 4666 
L 3194 0 
L 1759 0 
L 31 4666 
z
" transform="scale(0.015625)"/>
      <path id="DejaVuSans-Bold-79" d="M 78 3500 
L 1197 3500 
L 2138 1125 
L 2938 3500 
L 4056 3500 
L 2584 -331 
Q 2363 -916 2067 -1148 
Q 1772 -1381 1288 -1381 
L 641 -1381 
L 641 -647 
L 991 -647 
Q 1275 -647 1404 -556 
Q 1534 -466 1606 -231 
L 1638 -134 
L 78 3500 
z
" transform="scale(0.015625)"/>
      <path id="DejaVuSans-Bold-43" d="M 4288 256 
Q 3956 84 3597 -3 
Q 3238 -91 2847 -91 
Q 1681 -91 1000 561 
Q 319 1213 319 2328 
Q 319 3447 1000 4098 
Q 1681 4750 2847 4750 
Q 3238 4750 3597 4662 
Q 3956 4575 4288 4403 
L 4288 3438 
Q 3953 3666 3628 3772 
Q 3303 3878 2944 3878 
Q 2300 3878 1931 3465 
Q 1563 3053 1563 2328 
Q 1563 1606 1931 1193 
Q 2300 781 2944 781 
Q 3303 781 3628 887 
Q 3953 994 4288 1222 
L 4288 256 
z
" transform="scale(0.015625)"/>
      <path id="DejaVuSans-Bold-63" d="M 3366 3391 
L 3366 2478 
Q 3138 2634 2908 2709 
Q 2678 2784 2431 2784 
Q 1963 2784 1702 2511 
Q 1441 2238 1441 1747 
Q 1441 1256 1702 982 
Q 1963 709 2431 709 
Q 2694 709 2930 787 
Q 3166 866 3366 1019 
L 3366 103 
Q 3103 6 2833 -42 
Q 2563 -91 2291 -91 
Q 1344 -91 809 395 
Q 275 881 275 1747 
Q 275 2613 809 3098 
Q 1344 3584 2291 3584 
Q 2566 3584 2833 3536 
Q 3100 3488 3366 3391 
z
" transform="scale(0.015625)"/>
      <path id="DejaVuSans-Bold-53" d="M 3834 4519 
L 3834 3531 
Q 3450 3703 3084 3790 
Q 2719 3878 2394 3878 
Q 1963 3878 1756 3759 
Q 1550 3641 1550 3391 
Q 1550 3203 1689 3098 
Q 1828 2994 2194 2919 
L 2706 2816 
Q 3484 2659 3812 2340 
Q 4141 2022 4141 1434 
Q 4141 663 3683 286 
Q 3225 -91 2284 -91 
Q 1841 -91 1394 -6 
Q 947 78 500 244 
L 500 1259 
Q 947 1022 1364 901 
Q 1781 781 2169 781 
Q 2563 781 2772 912 
Q 2981 1044 2981 1288 
Q 2981 1506 2839 1625 
Q 2697 1744 2272 1838 
L 1806 1941 
Q 1106 2091 782 2419 
Q 459 2747 459 3303 
Q 459 4000 909 4375 
Q 1359 4750 2203 4750 
Q 2588 4750 2994 4692 
Q 3400 4634 3834 4519 
z
" transform="scale(0.015625)"/>
      <path id="DejaVuSans-Bold-6d" d="M 3781 2919 
Q 3994 3244 4286 3414 
Q 4578 3584 4928 3584 
Q 5531 3584 5847 3212 
Q 6163 2841 6163 2131 
L 6163 0 
L 5038 0 
L 5038 1825 
Q 5041 1866 5042 1909 
Q 5044 1953 5044 2034 
Q 5044 2406 4934 2573 
Q 4825 2741 4581 2741 
Q 4263 2741 4089 2478 
Q 3916 2216 3909 1719 
L 3909 0 
L 2784 0 
L 2784 1825 
Q 2784 2406 2684 2573 
Q 2584 2741 2328 2741 
Q 2006 2741 1831 2477 
Q 1656 2213 1656 1722 
L 1656 0 
L 531 0 
L 531 3500 
L 1656 3500 
L 1656 2988 
Q 1863 3284 2130 3434 
Q 2397 3584 2719 3584 
Q 3081 3584 3359 3409 
Q 3638 3234 3781 2919 
z
" transform="scale(0.015625)"/>
     </defs>
     <use xlink:href="#DejaVuSans-Bold-52"/>
     <use xlink:href="#DejaVuSans-Bold-65" transform="translate(77.001953 0)"/>
     <use xlink:href="#DejaVuSans-Bold-74" transform="translate(144.824219 0)"/>
     <use xlink:href="#DejaVuSans-Bold-72" transform="translate(192.626953 0)"/>
     <use xlink:href="#DejaVuSans-Bold-69" transform="translate(241.943359 0)"/>
     <use xlink:href="#DejaVuSans-Bold-65" transform="translate(276.220703 0)"/>
     <use xlink:href="#DejaVuSans-Bold-76" transform="translate(344.042969 0)"/>
     <use xlink:href="#DejaVuSans-Bold-61" transform="translate(409.228516 0)"/>
     <use xlink:href="#DejaVuSans-Bold-6c" transform="translate(476.708984 0)"/>
     <use xlink:href="#DejaVuSans-Bold-20" transform="translate(510.986328 0)"/>
     <use xlink:href="#DejaVuSans-Bold-44" transform="translate(545.800781 0)"/>
     <use xlink:href="#DejaVuSans-Bold-69" transform="translate(628.808594 0)"/>
     <use xlink:href="#DejaVuSans-Bold-73" transform="translate(663.085938 0)"/>
     <use xlink:href="#DejaVuSans-Bold-74" transform="translate(722.607422 0)"/>
     <use xlink:href="#DejaVuSans-Bold-72" transform="translate(770.410156 0)"/>
     <use xlink:href="#DejaVuSans-Bold-69" transform="translate(819.726562 0)"/>
     <use xlink:href="#DejaVuSans-Bold-62" transform="translate(854.003906 0)"/>
     <use xlink:href="#DejaVuSans-Bold-75" transform="translate(925.585938 0)"/>
     <use xlink:href="#DejaVuSans-Bold-74" transform="translate(996.777344 0)"/>
     <use xlink:href="#DejaVuSans-Bold-69" transform="translate(1044.580078 0)"/>
     <use xlink:href="#DejaVuSans-Bold-6f" transform="translate(1078.857422 0)"/>
     <use xlink:href="#DejaVuSans-Bold-6e" transform="translate(1147.558594 0)"/>
     <use xlink:href="#DejaVuSans-Bold-3a" transform="translate(1218.75 0)"/>
     <use xlink:href="#DejaVuSans-Bold-20" transform="translate(1258.740234 0)"/>
     <use xlink:href="#DejaVuSans-Bold-56" transform="translate(1293.554688 0)"/>
     <use xlink:href="#DejaVuSans-Bold-69" transform="translate(1369.197266 0)"/>
     <use xlink:href="#DejaVuSans-Bold-73" transform="translate(1403.474609 0)"/>
     <use xlink:href="#DejaVuSans-Bold-69" transform="translate(1462.996094 0)"/>
     <use xlink:href="#DejaVuSans-Bold-62" transform="translate(1497.273438 0)"/>
     <use xlink:href="#DejaVuSans-Bold-69" transform="translate(1568.855469 0)"/>
     <use xlink:href="#DejaVuSans-Bold-6c" transform="translate(1603.132812 0)"/>
     <use xlink:href="#DejaVuSans-Bold-69" transform="translate(1637.410156 0)"/>
     <use xlink:href="#DejaVuSans-Bold-74" transform="translate(1671.6875 0)"/>
     <use xlink:href="#DejaVuSans-Bold-79" transform="translate(1719.490234 0)"/>
     <use xlink:href="#DejaVuSans-Bold-20" transform="translate(1784.675781 0)"/>
     <use xlink:href="#DejaVuSans-Bold-43" transform="translate(1819.490234 0)"/>
     <use xlink:href="#DejaVuSans-Bold-6f" transform="translate(1892.878906 0)"/>
     <use xlink:href="#DejaVuSans-Bold-6e" transform="translate(1961.580078 0)"/>
     <use xlink:href="#DejaVuSans-Bold-63" transform="translate(2032.771484 0)"/>
     <use xlink:href="#DejaVuSans-Bold-65" transform="translate(2092.048828 0)"/>
     <use xlink:href="#DejaVuSans-Bold-6e" transform="translate(2159.871094 0)"/>
     <use xlink:href="#DejaVuSans-Bold-74" transform="translate(2231.0625 0)"/>
     <use xlink:href="#DejaVuSans-Bold-72" transform="translate(2278.865234 0)"/>
     <use xlink:href="#DejaVuSans-Bold-61" transform="translate(2328.181641 0)"/>
     <use xlink:href="#DejaVuSans-Bold-74" transform="translate(2395.662109 0)"/>
     <use xlink:href="#DejaVuSans-Bold-65" transform="translate(2443.464844 0)"/>
     <use xlink:href="#DejaVuSans-Bold-73" transform="translate(2511.287109 0)"/>
     <use xlink:href="#DejaVuSans-Bold-20" transform="translate(2570.808594 0)"/>
     <use xlink:href="#DejaVuSans-Bold-69" transform="translate(2605.623047 0)"/>
     <use xlink:href="#DejaVuSans-Bold-6e" transform="translate(2639.900391 0)"/>
     <use xlink:href="#DejaVuSans-Bold-20" transform="translate(2711.091797 0)"/>
     <use xlink:href="#DejaVuSans-Bold-61" transform="translate(2745.90625 0)"/>
     <use xlink:href="#DejaVuSans-Bold-20" transform="translate(2813.386719 0)"/>
     <use xlink:href="#DejaVuSans-Bold-53" transform="translate(2848.201172 0)"/>
     <use xlink:href="#DejaVuSans-Bold-6d" transform="translate(2920.222656 0)"/>
     <use xlink:href="#DejaVuSans-Bold-61" transform="translate(3024.421875 0)"/>
     <use xlink:href="#DejaVuSans-Bold-6c" transform="translate(3091.902344 0)"/>
     <use xlink:href="#DejaVuSans-Bold-6c" transform="translate(3126.179688 0)"/>
     <use xlink:href="#DejaVuSans-Bold-20" transform="translate(3160.457031 0)"/>
     <use xlink:href="#DejaVuSans-Bold-44" transform="translate(3195.271484 0)"/>
     <use xlink:href="#DejaVuSans-Bold-6f" transform="translate(3278.279297 0)"/>
     <use xlink:href="#DejaVuSans-Bold-63" transform="translate(3346.980469 0)"/>
     <use xlink:href="#DejaVuSans-Bold-75" transform="translate(3406.257812 0)"/>
     <use xlink:href="#DejaVuSans-Bold-6d" transform="translate(3477.449219 0)"/>
     <use xlink:href="#DejaVuSans-Bold-65" transform="translate(3581.648438 0)"/>
     <use xlink:href="#DejaVuSans-Bold-6e" transform="translate(3649.470703 0)"/>
     <use xlink:href="#DejaVuSans-Bold-74" transform="translate(3720.662109 0)"/>
     <use xlink:href="#DejaVuSans-Bold-20" transform="translate(3768.464844 0)"/>
     <use xlink:href="#DejaVuSans-Bold-43" transform="translate(3803.279297 0)"/>
     <use xlink:href="#DejaVuSans-Bold-6f" transform="translate(3876.667969 0)"/>
     <use xlink:href="#DejaVuSans-Bold-72" transform="translate(3945.369141 0)"/>
     <use xlink:href="#DejaVuSans-Bold-65" transform="translate(3994.685547 0)"/>
    </g>
   </g>
  </g>
 </g>
 <defs>
  <clipPath id="p4eb29fb124">
   <rect x="68.00125" y="32.077969" width="673" height="390.88"/>
  </clipPath>
 </defs>
</svg>
